<?xml version="1.0" encoding="UTF-8"?>
<svg version="1.1" xmlns="http://www.w3.org/2000/svg" width="127" height="86">
<path d="M0 0 C4.92265695 2.2855193 7.81049249 5.71694706 11 10 C13.47856911 17.43570734 12.6289113 25.56620475 9.37890625 32.62109375 C4.25199866 41.46609863 -3.21396563 47.43060866 -12.953125 50.64453125 C-15.65374922 51.11353279 -18.25961575 51.1703726 -21 51.1875 C-22.03125 51.20167969 -23.0625 51.21585938 -24.125 51.23046875 C-26.99485407 51.00041251 -28.61459554 50.57370433 -31 49 C-32.4706777 46.0586446 -32.17048999 43.39772595 -32.1875 40.125 C-32.20167969 38.89007813 -32.21585938 37.65515625 -32.23046875 36.3828125 C-32.01667788 33.24479731 -31.76042913 31.55725495 -30 29 C-29.34 28.67 -28.68 28.34 -28 28 C-28.4125 27.484375 -28.825 26.96875 -29.25 26.4375 C-30 24 -30 24 -28.5 20.5 C-25.67798779 16.04217732 -21.97727308 13.65909103 -17 12 C-11.75105833 11.60385346 -8.44657906 12.13442683 -4 15 C-1.95911288 17.26152356 -0.35925488 19.28149023 1 22 C0.62789263 16.99103695 0.62789263 16.99103695 -1.75 12.6875 C-6.57157015 9.07132239 -11.0502586 8.41625179 -17 9 C-19.41092827 9.52767487 -21.65285067 10.21761689 -24 11 C-22.63310446 7.84930578 -21.14342115 5.99108226 -18.5 3.8125 C-17.8915625 3.30332031 -17.283125 2.79414063 -16.65625 2.26953125 C-11.88978992 -1.38400537 -5.72791572 -0.49595368 0 0 Z M-28 22 C-25.1575146 23.57273568 -25.1575146 23.57273568 -22 24 C-23.485 26.475 -23.485 26.475 -25 29 C-24.01 29 -23.02 29 -22 29 C-22.28875 29.78503906 -22.5775 30.57007813 -22.875 31.37890625 C-25.781549 39.50575249 -25.781549 39.50575249 -26 48 C-24.92083333 49.27916667 -24.92083333 49.27916667 -22.375 49.375 C-17.76775768 48.86308419 -15.19924609 47.32572791 -12 44 C-8.08691264 38.26801525 -5.82603688 32.92638243 -7 26 C-9.53453657 22.78045355 -11.11297305 21.29567565 -15 20 C-19.83105392 19.72654412 -23.49302254 20.24117953 -28 22 Z " fill="#F26C20" transform="translate(32,17)"/>
<path d="M0 0 C4.47353123 -0.147075 6.63824835 -0.10315537 10 3 C10 2.34 10 1.68 10 1 C11.32 1 12.64 1 14 1 C14 1.99 14 2.98 14 4 C16.3431213 3.74438677 18.67843403 3.40729228 21 3 C21.33 2.34 21.66 1.68 22 1 C28.75 1.75 28.75 1.75 31 4 C33.00636471 3.70740515 35.00714063 3.37366113 37 3 C37.66 3.33 38.32 3.66 39 4 C39.33 2.68 39.66 1.36 40 0 C40.99 0 41.98 0 43 0 C42.01 3.3 41.02 6.6 40 10 C41.32 10.33 42.64 10.66 44 11 C44.20496094 10.37351562 44.40992188 9.74703125 44.62109375 9.1015625 C44.89050781 8.28429688 45.15992188 7.46703125 45.4375 6.625 C45.70433594 5.81289063 45.97117188 5.00078125 46.24609375 4.1640625 C47 2 47 2 48 0 C48.99 0 49.98 0 51 0 C51 1.32 51 2.64 51 4 C51.763125 3.79375 52.52625 3.5875 53.3125 3.375 C56 3 56 3 59 5 C61.66666667 4.41666667 61.66666667 4.41666667 64 3 C64.33 2.01 64.66 1.02 65 0 C67.97 0.495 67.97 0.495 71 1 C71 2.32 71 3.64 71 5 C71.99 4.34 72.98 3.68 74 3 C75.32 3 76.64 3 78 3 C77.7215625 4.60875 77.7215625 4.60875 77.4375 6.25 C77.05606253 9.51946406 77.10197515 10.99327978 78 14 C77.23800797 13.99777939 76.47601593 13.99555878 75.69093323 13.99327087 C68.52448288 13.97326843 61.35804599 13.95802612 54.19157505 13.94818783 C50.50685502 13.94295992 46.82215797 13.93586395 43.13745117 13.92456055 C39.58429169 13.91372838 36.03115437 13.90772247 32.47797966 13.90512276 C31.11954334 13.9032691 29.76110829 13.89964962 28.40268135 13.89426994 C26.50617777 13.88705525 24.60965207 13.88659191 22.71313477 13.88647461 C21.63169693 13.884254 20.55025909 13.88203339 19.43605042 13.87974548 C17.05202528 13.7241803 17.05202528 13.7241803 16 15 C14.33382885 15.04063832 12.66611905 15.042721 11 15 C10.67 13.68 10.34 12.36 10 11 C9.01 12.485 9.01 12.485 8 14 C4.375 14.6875 4.375 14.6875 1 15 C5.62459244 16.17700048 10.07866462 16.11408412 14.8125 16.0625 C15.99489258 16.05573242 15.99489258 16.05573242 17.20117188 16.04882812 C19.13414761 16.03711312 21.06708393 16.01917998 23 16 C23 16.66 23 17.32 23 18 C22.34 18 21.68 18 21 18 C21 19.32 21 20.64 21 22 C11 22 11 22 8.5 21.4375 C5.92790773 20.98738385 4.44792768 21.18402411 2 22 C1.67 21.01 1.34 20.02 1 19 C0.54625 19.495 0.0925 19.99 -0.375 20.5 C-2 22 -2 22 -4 22 C-3.979375 20.9275 -3.95875 19.855 -3.9375 18.75 C-3.79901967 15.25895156 -3.79901967 15.25895156 -4.65625 13.125 C-5.16633338 9.97175727 -3.94415773 8.0807134 -2.5625 5.25 C-2.08941406 4.26515625 -1.61632813 3.2803125 -1.12890625 2.265625 C-0.75636719 1.51796875 -0.38382813 0.7703125 0 0 Z M67 2 C68 4 68 4 68 4 Z M2 3 C1.34 4.98 0.68 6.96 0 9 C1.32 8.67 2.64 8.34 4 8 C4.33 6.35 4.66 4.7 5 3 C4.01 3 3.02 3 2 3 Z M66 4 C67 6 67 6 67 6 Z M37 5 C38 7 38 7 38 7 Z M49 5 C50 8 50 8 50 8 Z M8 6 C9 8 9 8 9 8 Z M12 6 C11.67 6.99 11.34 7.98 11 9 C11.66 9 12.32 9 13 9 C12.67 8.01 12.34 7.02 12 6 Z M19 6 C20 8 20 8 20 8 Z M23 6 C24 8 24 8 24 8 Z M27 6 C27 6.66 27 7.32 27 8 C27.66 8 28.32 8 29 8 C29 7.34 29 6.68 29 6 C28.34 6 27.68 6 27 6 Z M32 7 C31.67 7.66 31.34 8.32 31 9 C31.66 9 32.32 9 33 9 C32.67 8.34 32.34 7.68 32 7 Z M36 7 C37 9 37 9 37 9 Z M53 7 C52.67 8.32 52.34 9.64 52 11 C52.66 9.68 53.32 8.36 54 7 C53.67 7 53.34 7 53 7 Z M61 7 C60.67 7.66 60.34 8.32 60 9 C60.66 9 61.32 9 62 9 C61.67 8.34 61.34 7.68 61 7 Z M65 7 C66 9 66 9 66 9 Z M73 7 C72.67 7.66 72.34 8.32 72 9 C72.66 9 73.32 9 74 9 C73.67 8.34 73.34 7.68 73 7 Z M7 8 C6.01 9.485 6.01 9.485 5 11 C5.99 10.67 6.98 10.34 8 10 C7.67 9.34 7.34 8.68 7 8 Z M18 8 C17.67 8.66 17.34 9.32 17 10 C17.66 10 18.32 10 19 10 C18.67 9.34 18.34 8.68 18 8 Z M22 8 C23 11 23 11 23 11 Z M48 8 C49 10 49 10 49 10 Z M68 8 C69 11 69 11 69 11 Z M56 9 C56 9.66 56 10.32 56 11 C56.66 10.67 57.32 10.34 58 10 C57.34 9.67 56.68 9.34 56 9 Z M64 9 C65 11 65 11 65 11 Z M3 18 C3 18.66 3 19.32 3 20 C3.66 19.67 4.32 19.34 5 19 C4.34 18.67 3.68 18.34 3 18 Z " fill="#57575A" transform="translate(49,32)"/>
<path d="M0 0 C3.62011046 2.33296007 5.89022378 4.96794755 7.8125 8.8125 C8.91937654 16.1495102 6.83073174 21.71483333 2.8125 27.8125 C-0.39243834 31.754288 -3.03908544 34.89998013 -8.1875 35.8125 C-8.1875 36.4725 -8.1875 37.1325 -8.1875 37.8125 C-10.10385217 37.86673638 -12.02064925 37.90539963 -13.9375 37.9375 C-15.00484375 37.96070313 -16.0721875 37.98390625 -17.171875 38.0078125 C-20.13772828 37.81572356 -21.73954664 37.44828192 -24.1875 35.8125 C-25.6581777 32.8711446 -25.35798999 30.21022595 -25.375 26.9375 C-25.38917969 25.70257813 -25.40335938 24.46765625 -25.41796875 23.1953125 C-25.20417788 20.05729731 -24.94792913 18.36975495 -23.1875 15.8125 C-22.5275 15.4825 -21.8675 15.1525 -21.1875 14.8125 C-21.6 14.296875 -22.0125 13.78125 -22.4375 13.25 C-23.1875 10.8125 -23.1875 10.8125 -21.6875 7.3125 C-16.81888383 -0.37826317 -8.4931729 -3.16412324 0 0 Z M-21.1875 8.8125 C-18.3450146 10.38523568 -18.3450146 10.38523568 -15.1875 10.8125 C-16.6725 13.2875 -16.6725 13.2875 -18.1875 15.8125 C-17.1975 15.8125 -16.2075 15.8125 -15.1875 15.8125 C-15.47625 16.59753906 -15.765 17.38257813 -16.0625 18.19140625 C-18.969049 26.31825249 -18.969049 26.31825249 -19.1875 34.8125 C-18.10833333 36.09166667 -18.10833333 36.09166667 -15.5625 36.1875 C-10.95525768 35.67558419 -8.38674609 34.13822791 -5.1875 30.8125 C-1.27441264 25.08051525 0.98646312 19.73888243 -0.1875 12.8125 C-2.72203657 9.59295355 -4.30047305 8.10817565 -8.1875 6.8125 C-13.01855392 6.53904412 -16.68052254 7.05367953 -21.1875 8.8125 Z " fill="#1E8843" transform="translate(25.1875,30.1875)"/>
<path d="M0 0 C1.81757812 0.10828125 1.81757812 0.10828125 3.671875 0.21875 C15.79487976 0.9029558 27.85929272 1.11624081 40 1 C40 1.66 40 2.32 40 3 C39.34 3 38.68 3 38 3 C38 4.32 38 5.64 38 7 C28 7 28 7 26 6.4375 C23.58873234 5.9100352 22.36662649 6.323821 20 7 C15.27386856 7.87520953 11.69777877 7.88083352 7 7 C4.66697011 6.96237049 2.33286681 6.95334266 0 7 C0 4.69 0 2.38 0 0 Z M4 2 C4 2.66 4 3.32 4 4 C3.01 4.495 3.01 4.495 2 5 C2.99 5 3.98 5 5 5 C4.67 4.01 4.34 3.02 4 2 Z M15 3 C15 3.66 15 4.32 15 5 C15.66 4.67 16.32 4.34 17 4 C16.34 3.67 15.68 3.34 15 3 Z M20 3 C20 3.66 20 4.32 20 5 C20.66 5 21.32 5 22 5 C22 4.34 22 3.68 22 3 C21.34 3 20.68 3 20 3 Z " fill="#57575A" transform="translate(86,47)"/>
<path d="M0 0 C-0.66 1.32 -1.32 2.64 -2 4 C-1.34 4.33 -0.68 4.66 0 5 C-0.52359793 7.87978859 -1.18170605 10.57718391 -2.0625 13.375 C-3.16227993 17.62748239 -4.03093711 21.93812578 -2 26 C-4.3431213 25.74438677 -6.67843403 25.40729228 -9 25 C-10.4706777 22.0586446 -10.17048999 19.39772595 -10.1875 16.125 C-10.20167969 14.89007813 -10.21585938 13.65515625 -10.23046875 12.3828125 C-10.01667788 9.24479731 -9.76042913 7.55725495 -8 5 C-7.34 4.67 -6.68 4.34 -6 4 C-6.66 2.68 -7.32 1.36 -8 0 C-5.13822943 -1.43088528 -3.06624227 -0.59991697 0 0 Z " fill="#2557A3" transform="translate(10,41)"/>
<path d="M0 0 C1.45947705 0.06006078 2.91779272 0.1488689 4.375 0.25 C5.59316406 0.31960937 5.59316406 0.31960937 6.8359375 0.390625 C9 1 9 1 10.2890625 3.046875 C10.64097656 4.01367188 10.64097656 4.01367188 11 5 C10.34 5.66 9.68 6.32 9 7 C7.65938457 6.69728039 6.32594105 6.36162029 5 6 C4.01 6.33 3.02 6.66 2 7 C2 5.35 2 3.7 2 2 C1.34 2 0.68 2 0 2 C0 1.34 0 0.68 0 0 Z M7 3 C8 5 8 5 8 5 Z " fill="#575859" transform="translate(73,47)"/>
<path d="M0 0 C0.66 1.32 1.32 2.64 2 4 C-1.96 4 -5.92 4 -10 4 C-6.71536341 1.81024227 -3.79303725 1.00193437 0 0 Z " fill="#318541" transform="translate(15,64)"/>
</svg>
