<?xml version="1.0" encoding="UTF-8"?>
<svg version="1.1" xmlns="http://www.w3.org/2000/svg" width="200" height="100">
<path d="M0 0 C2.97 0 5.94 0 9 0 C9 0.66 9 1.32 9 2 C8.01 2 7.02 2 6 2 C6 7.94 6 13.88 6 20 C7.32 20 8.64 20 10 20 C10 17.03 10 14.06 10 11 C9.34 11 8.68 11 8 11 C8 10.01 8 9.02 8 8 C9.77007714 7.91885894 11.54122098 7.86074495 13.3125 7.8125 C14.29863281 7.77769531 15.28476562 7.74289063 16.30078125 7.70703125 C19 8 19 8 20.85546875 9.51171875 C21.23316406 10.00285156 21.61085938 10.49398437 22 11 C22.721875 10.484375 23.44375 9.96875 24.1875 9.4375 C27.50828184 7.74021151 28.50140832 8.10292521 32 9 C34.05396726 8.59070014 34.05396726 8.59070014 36 8 C40 8 40 8 42.4375 8.5625 C45.00303705 9.17736344 45.00303705 9.17736344 47.5 8.375 C50.87714452 7.86842832 52.29203622 9.06574015 55 11 C55.556875 10.484375 56.11375 9.96875 56.6875 9.4375 C59 8 59 8 61.75 8.3125 C62.4925 8.539375 63.235 8.76625 64 9 C64 6.69 64 4.38 64 2 C63.34 2 62.68 2 62 2 C62 1.34 62 0.68 62 0 C63.65 0 65.3 0 67 0 C67 6.6 67 13.2 67 20 C68.32 20 69.64 20 71 20 C71 17.03 71 14.06 71 11 C70.01 10.67 69.02 10.34 68 10 C68.33 9.34 68.66 8.68 69 8 C70.65 8 72.3 8 74 8 C74 11.96 74 15.92 74 20 C74.99 20 75.98 20 77 20 C77 14.06 77 8.12 77 2 C76.34 2 75.68 2 75 2 C75 1.34 75 0.68 75 0 C76.98 0 78.96 0 81 0 C81.495 3.96 81.495 3.96 82 8 C83.1446875 8.1546875 83.1446875 8.1546875 84.3125 8.3125 C87.26644989 9.0681616 88.33726664 9.46214383 90 12 C90.25265405 15.09501208 90.39935013 17.20129973 89 20 C89.66 20 90.32 20 91 20 C91 14.06 91 8.12 91 2 C90.01 2 89.02 2 88 2 C88 1.34 88 0.68 88 0 C89.98 0 91.96 0 94 0 C94 6.6 94 13.2 94 20 C94.495 19.505 94.495 19.505 95 19 C94.9175 17.906875 94.835 16.81375 94.75 15.6875 C95 12 95 12 97.1875 9.5 C100 8 100 8 102.625 8 C105.46206638 9.19455427 106.47623428 10.35345953 108 13 C108 13.66 108 14.32 108 15 C105.03 15 102.06 15 99 15 C99.495 16.98 99.495 16.98 100 19 C101.32 19 102.64 19 104 19 C104.33 18.34 104.66 17.68 105 17 C105.99 17 106.98 17 108 17 C106.125 20.875 106.125 20.875 105 22 C103.53724595 22.09822116 102.06980711 22.12798364 100.60375977 22.12939453 C99.66931534 22.13254669 98.73487091 22.13569885 97.77210999 22.13894653 C96.75547775 22.1369223 95.73884552 22.13489807 94.69140625 22.1328125 C93.13582253 22.13424759 93.13582253 22.13424759 91.54881287 22.13571167 C89.35049377 22.13639369 87.15217268 22.13453791 84.95385742 22.13037109 C81.58052051 22.12502854 78.20731708 22.1303126 74.83398438 22.13671875 C72.7031247 22.13605787 70.57226512 22.13477649 68.44140625 22.1328125 C66.91949425 22.13584885 66.91949425 22.13584885 65.36683655 22.13894653 C64.42923996 22.13579437 63.49164337 22.13264221 62.52563477 22.12939453 C61.69814224 22.12859894 60.87064972 22.12780334 60.01808167 22.12698364 C58 22 58 22 56 21 C56 20.34 56 19.68 56 19 C55.34 19 54.68 19 54 19 C54 19.66 54 20.32 54 21 C50.9167365 22.54163175 48.39121901 22.29747535 45 22 C43.0625 20.3125 43.0625 20.3125 42 18 C41.8125 15.25 41.8125 15.25 42 13 C41.34 12.67 40.68 12.34 40 12 C39.34 14.64 38.68 17.28 38 20 C38.99 20 39.98 20 41 20 C41 20.66 41 21.32 41 22 C32.66666667 22 24.33333333 22 16 22 C16 21.34 16 20.68 16 20 C16.66 20 17.32 20 18 20 C18 17.03 18 14.06 18 11 C17.01 11.33 16.02 11.66 15 12 C15 15.3 15 18.6 15 22 C10.05 22 5.1 22 0 22 C0 21.34 0 20.68 0 20 C0.66 20 1.32 20 2 20 C2 14.06 2 8.12 2 2 C1.34 2 0.68 2 0 2 C0 1.34 0 0.68 0 0 Z M48 10 C47.01 11.485 47.01 11.485 46 13 C47.65 13 49.3 13 51 13 C51 12.34 51 11.68 51 11 C50.01 10.67 49.02 10.34 48 10 Z M60 10 C58.76732652 11.00836062 58.76732652 11.00836062 58.90234375 13.06640625 C58.91394531 13.89011719 58.92554688 14.71382812 58.9375 15.5625 C58.94652344 16.38878906 58.95554688 17.21507812 58.96484375 18.06640625 C58.97644531 18.70449219 58.98804688 19.34257813 59 20 C60.65 19.67 62.3 19.34 64 19 C64 16.69 64 14.38 64 12 C62.68 11.34 61.36 10.68 60 10 Z M26 11 C26 13.97 26 16.94 26 20 C27.65 20 29.3 20 31 20 C31.33 19.01 31.66 18.02 32 17 C32.66 17 33.32 17 34 17 C33.67 17.99 33.34 18.98 33 20 C33.66 20 34.32 20 35 20 C35 17.03 35 14.06 35 11 C34.67 11.99 34.34 12.98 34 14 C33.01 14 32.02 14 31 14 C30.34 12.68 29.68 11.36 29 10 C27.7763932 9.9254644 27.7763932 9.9254644 26 11 Z M83 10 C82.01 10.495 82.01 10.495 81 11 C81 13.64 81 16.28 81 19 C82.94603274 19.59070014 82.94603274 19.59070014 85 20 C86.38908639 18.82889816 86.38908639 18.82889816 86.25 15.5625 C86.1675 14.386875 86.085 13.21125 86 12 C85.01 11.34 84.02 10.68 83 10 Z M99 11 C99 11.66 99 12.32 99 13 C100.32 13 101.64 13 103 13 C102.67 12.01 102.34 11.02 102 10 C100.7763932 9.9254644 100.7763932 9.9254644 99 11 Z M21 14 C22 17 22 17 22 17 Z M46 15 C46.33 16.65 46.66 18.3 47 20 C49.44480079 19.81171228 49.44480079 19.81171228 52 19 C53.36020151 17.03241727 53.36020151 17.03241727 54 15 C51.36 15 48.72 15 46 15 Z " fill="#417981" transform="translate(19,38)"/>
<path d="M0 0 C2.475 0.495 2.475 0.495 5 1 C5 3.31 5 5.62 5 8 C5.69867188 7.98839844 6.39734375 7.97679687 7.1171875 7.96484375 C8.02726563 7.95582031 8.93734375 7.94679688 9.875 7.9375 C10.77992188 7.92589844 11.68484375 7.91429687 12.6171875 7.90234375 C15 8 15 8 17 9 C17 9.66 17 10.32 17 11 C17.7425 10.505 18.485 10.01 19.25 9.5 C22 8 22 8 26 8 C26.33 6.02 26.66 4.04 27 2 C26.34 2 25.68 2 25 2 C25 1.34 25 0.68 25 0 C26.98 0 28.96 0 31 0 C31 6.6 31 13.2 31 20 C31.99 20 32.98 20 34 20 C34 17.03 34 14.06 34 11 C33.34 11 32.68 11 32 11 C32 10.01 32 9.02 32 8 C33.65 8 35.3 8 37 8 C37.495 12.455 37.495 12.455 38 17 C38.103125 15.88625 38.20625 14.7725 38.3125 13.625 C38.539375 12.42875 38.76625 11.2325 39 10 C42.8503105 7.43312633 44.58569763 8.16711276 49 9 C49.06058594 9.68707031 49.12117188 10.37414063 49.18359375 11.08203125 C49.26738281 11.98308594 49.35117188 12.88414063 49.4375 13.8125 C49.51871094 14.70582031 49.59992188 15.59914063 49.68359375 16.51953125 C49.93489767 19.12743559 49.93489767 19.12743559 51 22 C38.13 22 25.26 22 12 22 C12 21.34 12 20.68 12 20 C12.66 20 13.32 20 14 20 C14 17.03 14 14.06 14 11 C13.01 11.33 12.02 11.66 11 12 C10.06213918 17.05009595 10.06213918 17.05009595 11 22 C8.69 22 6.38 22 4 22 C4 21.34 4 20.68 4 20 C4.66 20 5.32 20 6 20 C6 17.03 6 14.06 6 11 C5.34 11 4.68 11 4 11 C3.67 14.63 3.34 18.26 3 22 C2.34 22 1.68 22 1 22 C0.20274098 14.63959083 -0.12886183 7.40239645 0 0 Z M22 11 C22 13.97 22 16.94 22 20 C23.65 19.67 25.3 19.34 27 19 C27 16.69 27 14.38 27 12 C25.35 11.67 23.7 11.34 22 11 Z M43 11 C42.67 11.99 42.34 12.98 42 14 C43.32 14 44.64 14 46 14 C46 13.01 46 12.02 46 11 C45.01 11 44.02 11 43 11 Z M17 12 C18 14 18 14 18 14 Z M42 16 C42 17.32 42 18.64 42 20 C43.32 19.67 44.64 19.34 46 19 C46 18.01 46 17.02 46 16 C44.68 16 43.36 16 42 16 Z M17 17 C17 17.99 17 18.98 17 20 C17.66 19.67 18.32 19.34 19 19 C18.34 18.34 17.68 17.68 17 17 Z " fill="#E74467" transform="translate(130,38)"/>
<path d="M0 0 C1.98 0 3.96 0 6 0 C6.33 2.64 6.66 5.28 7 8 C8.1446875 8.1546875 8.1446875 8.1546875 9.3125 8.3125 C12.26644989 9.0681616 13.33726664 9.46214383 15 12 C15.25265405 15.09501208 15.39935013 17.20129973 14 20 C14.66 20 15.32 20 16 20 C16 14.06 16 8.12 16 2 C15.01 2 14.02 2 13 2 C13 1.34 13 0.68 13 0 C14.98 0 16.96 0 19 0 C19 6.6 19 13.2 19 20 C19.33 19.67 19.66 19.34 20 19 C19.9175 17.906875 19.835 16.81375 19.75 15.6875 C20 12 20 12 22.1875 9.5 C25 8 25 8 27.625 8 C30.46206638 9.19455427 31.47623428 10.35345953 33 13 C33 13.66 33 14.32 33 15 C30.03 15 27.06 15 24 15 C24.495 16.98 24.495 16.98 25 19 C26.32 19 27.64 19 29 19 C29.33 18.34 29.66 17.68 30 17 C30.99 17 31.98 17 33 17 C31.125 20.875 31.125 20.875 30 22 C27.1156618 22.08865208 24.25537842 22.11521296 21.37109375 22.09765625 C20.07474754 22.09553383 20.07474754 22.09553383 18.75221252 22.09336853 C15.98060708 22.08775239 13.2090812 22.07519719 10.4375 22.0625 C8.5631522 22.05748708 6.68880315 22.05292381 4.81445312 22.04882812 C0.20960456 22.03777772 -4.39518421 22.0205023 -9 22 C-8.34 21.34 -7.68 20.68 -7 20 C-6.01 20 -5.02 20 -4 20 C-4 17.03 -4 14.06 -4 11 C-4.99 10.67 -5.98 10.34 -7 10 C-6.67 9.34 -6.34 8.68 -6 8 C-4.35 8 -2.7 8 -1 8 C-1 11.96 -1 15.92 -1 20 C-0.01 20 0.98 20 2 20 C2 14.06 2 8.12 2 2 C1.34 2 0.68 2 0 2 C0 1.34 0 0.68 0 0 Z M8 10 C7.01 10.495 7.01 10.495 6 11 C6 13.64 6 16.28 6 19 C7.94603274 19.59070014 7.94603274 19.59070014 10 20 C11.38908639 18.82889816 11.38908639 18.82889816 11.25 15.5625 C11.1675 14.386875 11.085 13.21125 11 12 C10.01 11.34 9.02 10.68 8 10 Z M24 11 C24 11.66 24 12.32 24 13 C25.32 13 26.64 13 28 13 C27.67 12.01 27.34 11.02 27 10 C25.7763932 9.9254644 25.7763932 9.9254644 24 11 Z " fill="#E62A46" transform="translate(94,38)"/>
<path d="M0 0 C2.475 0.495 2.475 0.495 5 1 C5 3.31 5 5.62 5 8 C5.69867188 7.98839844 6.39734375 7.97679687 7.1171875 7.96484375 C8.02726563 7.95582031 8.93734375 7.94679688 9.875 7.9375 C10.77992188 7.92589844 11.68484375 7.91429687 12.6171875 7.90234375 C15 8 15 8 17 9 C17 9.66 17 10.32 17 11 C17.66 11.33 18.32 11.66 19 12 C18.34 12 17.68 12 17 12 C17.350625 12.598125 17.70125 13.19625 18.0625 13.8125 C19 16 19 16 18 19 C17.67 19.33 17.34 19.66 17 20 C17.99 20.33 18.98 20.66 20 21 C19 22 19 22 15.4375 22.0625 C14.303125 22.041875 13.16875 22.02125 12 22 C12 21.34 12 20.68 12 20 C12.66 20 13.32 20 14 20 C14 17.03 14 14.06 14 11 C13.01 11.33 12.02 11.66 11 12 C10.06213918 17.05009595 10.06213918 17.05009595 11 22 C8.69 22 6.38 22 4 22 C4 21.34 4 20.68 4 20 C4.66 20 5.32 20 6 20 C6 17.03 6 14.06 6 11 C5.34 11 4.68 11 4 11 C3.67 14.63 3.34 18.26 3 22 C2.34 22 1.68 22 1 22 C0.20274098 14.63959083 -0.12886183 7.40239645 0 0 Z " fill="#87447F" transform="translate(130,38)"/>
<path d="M0 0 C1.98 0 3.96 0 6 0 C6 6.6 6 13.2 6 20 C6.33 19.67 6.66 19.34 7 19 C6.87625 17.3603125 6.87625 17.3603125 6.75 15.6875 C7 12 7 12 9.1875 9.5 C12 8 12 8 14.625 8 C17.46206638 9.19455427 18.47623428 10.35345953 20 13 C20 13.66 20 14.32 20 15 C17.03 15 14.06 15 11 15 C11.33 16.32 11.66 17.64 12 19 C13.32 19 14.64 19 16 19 C16.33 18.34 16.66 17.68 17 17 C17.99 17 18.98 17 20 17 C18.125 20.875 18.125 20.875 17 22 C14.13732433 22.07325168 11.299281 22.09238205 8.4375 22.0625 C7.63119141 22.05798828 6.82488281 22.05347656 5.99414062 22.04882812 C3.99606244 22.03700518 1.99802217 22.01906914 0 22 C-0.33 21.34 -0.66 20.68 -1 20 C-0.34 19.34 0.32 18.68 1 18 C1 18.66 1 19.32 1 20 C1.66 20 2.32 20 3 20 C3 14.06 3 8.12 3 2 C2.01 2 1.02 2 0 2 C0 1.34 0 0.68 0 0 Z M11 11 C11 11.66 11 12.32 11 13 C12.32 13 13.64 13 15 13 C14.67 12.01 14.34 11.02 14 10 C12.7763932 9.9254644 12.7763932 9.9254644 11 11 Z " fill="#8F304C" transform="translate(107,38)"/>
<path d="M0 0 C2.97 0 5.94 0 9 0 C9 0.66 9 1.32 9 2 C8.01 2 7.02 2 6 2 C6 7.94 6 13.88 6 20 C7.32 20 8.64 20 10 20 C10 17.03 10 14.06 10 11 C9.34 11 8.68 11 8 11 C8 10.01 8 9.02 8 8 C11.3 8.33 14.6 8.66 18 9 C17.01 9.99 16.02 10.98 15 12 C14.63786432 14.51289675 14.63786432 14.51289675 14.8125 17.1875 C14.874375 18.775625 14.93625 20.36375 15 22 C10.05 22 5.1 22 0 22 C0 21.34 0 20.68 0 20 C0.66 20 1.32 20 2 20 C2 14.06 2 8.12 2 2 C1.34 2 0.68 2 0 2 C0 1.34 0 0.68 0 0 Z " fill="#297B4C" transform="translate(19,38)"/>
<path d="M0 0 C1.65 0 3.3 0 5 0 C5.33 6.93 5.66 13.86 6 21 C3.75487738 22.12256131 2.48543351 22.13413762 0 22.125 C-1.051875 22.12886719 -1.051875 22.12886719 -2.125 22.1328125 C-4 22 -4 22 -6 21 C-6 20.34 -6 19.68 -6 19 C-6.66 19 -7.32 19 -8 19 C-8 19.66 -8 20.32 -8 21 C-9.98 21.33 -11.96 21.66 -14 22 C-14 21.34 -14 20.68 -14 20 C-13.236875 19.608125 -12.47375 19.21625 -11.6875 18.8125 C-8.1572742 16.43165004 -7.55508446 13.88771114 -6 10 C-3 8 -3 8 -0.3125 8.375 C0.450625 8.58125 1.21375 8.7875 2 9 C2 6.69 2 4.38 2 2 C1.34 2 0.68 2 0 2 C0 1.34 0 0.68 0 0 Z M-2 10 C-3.23267348 11.00836062 -3.23267348 11.00836062 -3.09765625 13.06640625 C-3.08605469 13.89011719 -3.07445313 14.71382812 -3.0625 15.5625 C-3.05347656 16.38878906 -3.04445313 17.21507812 -3.03515625 18.06640625 C-3.02355469 18.70449219 -3.01195313 19.34257813 -3 20 C-1.35 19.67 0.3 19.34 2 19 C2 16.69 2 14.38 2 12 C0.68 11.34 -0.64 10.68 -2 10 Z " fill="#6E805D" transform="translate(81,38)"/>
<path d="M0 0 C1.65 0 3.3 0 5 0 C5.02887814 3.47914941 5.04675687 6.95826831 5.0625 10.4375 C5.07087891 11.43072266 5.07925781 12.42394531 5.08789062 13.44726562 C5.09111328 14.39150391 5.09433594 15.33574219 5.09765625 16.30859375 C5.10289307 17.18314209 5.10812988 18.05769043 5.11352539 18.95874023 C5 21 5 21 4 22 C-1.73611111 22.27314815 -1.73611111 22.27314815 -4 22 C-6.48369197 19.51630803 -6.74194843 17.40883097 -7.09765625 13.9765625 C-7 12 -7 12 -5.3125 9.5 C-3 8 -3 8 1 8 C1.33 6.02 1.66 4.04 2 2 C1.34 2 0.68 2 0 2 C0 1.34 0 0.68 0 0 Z M-3 11 C-3 13.97 -3 16.94 -3 20 C-1.35 19.67 0.3 19.34 2 19 C2 16.69 2 14.38 2 12 C0.35 11.67 -1.3 11.34 -3 11 Z " fill="#E5173D" transform="translate(155,38)"/>
<path d="M0 0 C2.475 0.495 2.475 0.495 5 1 C5 3.31 5 5.62 5 8 C6.32 8.33 7.64 8.66 9 9 C8.67 12.96 8.34 16.92 8 21 C7.67 21 7.34 21 7 21 C6.67 17.7 6.34 14.4 6 11 C5.34 11 4.68 11 4 11 C3.67 14.63 3.34 18.26 3 22 C2.34 22 1.68 22 1 22 C0.20274098 14.63959083 -0.12886183 7.40239645 0 0 Z " fill="#412570" transform="translate(130,38)"/>
<path d="M0 0 C1.98 0 3.96 0 6 0 C6 6.6 6 13.2 6 20 C6.99 19.67 7.98 19.34 9 19 C9 19.99 9 20.98 9 22 C6.03 22 3.06 22 0 22 C-0.33 21.34 -0.66 20.68 -1 20 C-0.34 19.34 0.32 18.68 1 18 C1 18.66 1 19.32 1 20 C1.66 20 2.32 20 3 20 C3 14.06 3 8.12 3 2 C2.01 2 1.02 2 0 2 C0 1.34 0 0.68 0 0 Z " fill="#B03846" transform="translate(107,38)"/>
<path d="M0 0 C0.99 0.33 1.98 0.66 3 1 C3.33 7.93 3.66 14.86 4 22 C-0.29 22 -4.58 22 -9 22 C-8.34 21.34 -7.68 20.68 -7 20 C-6.01 20 -5.02 20 -4 20 C-4 17.03 -4 14.06 -4 11 C-4.99 10.67 -5.98 10.34 -7 10 C-6.67 9.34 -6.34 8.68 -6 8 C-4.35 8 -2.7 8 -1 8 C-1 11.96 -1 15.92 -1 20 C-0.01 20 0.98 20 2 20 C2 14.06 2 8.12 2 2 C1.34 2 0.68 2 0 2 C0 1.34 0 0.68 0 0 Z " fill="#E4477B" transform="translate(94,38)"/>
<path d="M0 0 C0.33 0 0.66 0 1 0 C1 6.6 1 13.2 1 20 C1.99 20 2.98 20 4 20 C4 17.03 4 14.06 4 11 C3.34 11 2.68 11 2 11 C2 10.01 2 9.02 2 8 C3.65 8 5.3 8 7 8 C7.07347656 8.90492187 7.07347656 8.90492187 7.1484375 9.828125 C7.22320312 10.62734375 7.29796875 11.4265625 7.375 12.25 C7.44460937 13.03890625 7.51421875 13.8278125 7.5859375 14.640625 C8.01564076 17.08912284 8.8188095 18.8296825 10 21 C10 21.33 10 21.66 10 22 C6.37 22 2.74 22 -1 22 C-0.67 14.74 -0.34 7.48 0 0 Z " fill="#EF5D7E" transform="translate(160,38)"/>
<path d="M0 0 C2.4375 0.375 2.4375 0.375 5 1 C5.33 1.66 5.66 2.32 6 3 C6.99 3 7.98 3 9 3 C9 5.97 9 8.94 9 12 C8.34 12 7.68 12 7 12 C7 12.66 7 13.32 7 14 C4.69 14 2.38 14 0 14 C0 13.34 0 12.68 0 12 C0.66 12 1.32 12 2 12 C1.85904936 10.3745692 1.71207913 8.74965949 1.5625 7.125 C1.48128906 6.22007813 1.40007813 5.31515625 1.31640625 4.3828125 C1.13010715 1.98889139 1.13010715 1.98889139 0 0 Z M5 6 C6 9 6 9 6 9 Z " fill="#376E7A" transform="translate(35,46)"/>
<path d="M0 0 C0.66 -0.33 1.32 -0.66 2 -1 C2 0.98 2 2.96 2 5 C1.01 5.33 0.02 5.66 -1 6 C-1.45375 5.34 -1.9075 4.68 -2.375 4 C-2.91125 3.34 -3.4475 2.68 -4 2 C-4.66 2 -5.32 2 -6 2 C-6 4.97 -6 7.94 -6 11 C-3.52733235 10.65555119 -3.52733235 10.65555119 -1 10 C-0.67 9.34 -0.34 8.68 0 8 C0.66 8 1.32 8 2 8 C2 8.99 2 9.98 2 11 C4.31 11.33 6.62 11.66 9 12 C9 12.33 9 12.66 9 13 C3.72 13 -1.56 13 -7 13 C-8.58877287 9.82245425 -8 6.50617078 -8 3 C-8.33 2.34 -8.66 1.68 -9 1 C-5.59632699 -1.14305338 -3.83416112 -0.90809079 0 0 Z " fill="#486B9E" transform="translate(51,47)"/>
<path d="M0 0 C0.66 0 1.32 0 2 0 C2 3.3 2 6.6 2 10 C2.99 9.67 3.98 9.34 5 9 C5 9.99 5 10.98 5 12 C1.37 12 -2.26 12 -6 12 C-6.33 10.35 -6.66 8.7 -7 7 C-6.34 6.67 -5.68 6.34 -5 6 C-5 7.32 -5 8.64 -5 10 C-3.02 9.67 -1.04 9.34 1 9 C0.67 6.03 0.34 3.06 0 0 Z " fill="#E41D43" transform="translate(176,48)"/>
<path d="M0 0 C2.91517292 1.07401108 4.77810176 1.77810176 7 4 C7.125 7.125 7.125 7.125 7 10 C6.34 10 5.68 10 5 10 C4.67 10.99 4.34 11.98 4 13 C3.67 13 3.34 13 3 13 C2.92652344 12.09507813 2.92652344 12.09507813 2.8515625 11.171875 C2.77679688 10.37265625 2.70203125 9.5734375 2.625 8.75 C2.55539063 7.96109375 2.48578125 7.1721875 2.4140625 6.359375 C1.98492887 3.914123 1.21399362 2.15163097 0 0 Z " fill="#CE2D30" transform="translate(102,46)"/>
<path d="M0 0 C3 1 3 1 4 3 C4.06950541 4.54023996 4.08452357 6.08334988 4.0625 7.625 C4.05347656 8.44226562 4.04445313 9.25953125 4.03515625 10.1015625 C4.02355469 10.72804688 4.01195312 11.35453125 4 12 C4.99 12.33 5.98 12.66 7 13 C4.69 13 2.38 13 0 13 C0 8.71 0 4.42 0 0 Z " fill="#294D8B" transform="translate(53,46)"/>
<path d="M0 0 C0.33 0 0.66 0 1 0 C1.33 2.64 1.66 5.28 2 8 C2.33 8 2.66 8 3 8 C4.33257403 17.41002278 4.33257403 17.41002278 3 22 C2.34 22 1.68 22 1 22 C0.20274098 14.63959083 -0.12886183 7.40239645 0 0 Z " fill="#513A7F" transform="translate(130,38)"/>
<path d="M0 0 C0.99 0 1.98 0 3 0 C3 3.96 3 7.92 3 12 C2.01 12 1.02 12 0 12 C-0.19401633 10.18818595 -0.38004375 8.37551468 -0.5625 6.5625 C-0.66691406 5.55316406 -0.77132813 4.54382812 -0.87890625 3.50390625 C-0.91886719 2.67761719 -0.95882813 1.85132813 -1 1 C-0.67 0.67 -0.34 0.34 0 0 Z " fill="#0D5F3B" transform="translate(29,47)"/>
<path d="M0 0 C3.79557881 0 5.62902617 0.50178941 9 2 C8.67 4.97 8.34 7.94 8 11 C7.34 10.67 6.68 10.34 6 10 C6 8.35 6 6.7 6 5 C5.34 4.67 4.68 4.34 4 4 C3.34 4.66 2.68 5.32 2 6 C1.34 4.02 0.68 2.04 0 0 Z " fill="#4E769C" transform="translate(55,46)"/>
<path d="M0 0 C1.53445094 3.06890187 0.54984289 5.70094266 0 9 C-0.66 9 -1.32 9 -2 9 C-2 9.66 -2 10.32 -2 11 C-3.98 11.33 -5.96 11.66 -8 12 C-8 11.34 -8 10.68 -8 10 C-7.236875 9.608125 -6.47375 9.21625 -5.6875 8.8125 C-2.02360316 6.34149981 -1.47271683 4.10810485 0 0 Z " fill="#60978E" transform="translate(75,48)"/>
<path d="M0 0 C1.32 0 2.64 0 4 0 C4 4.29 4 8.58 4 13 C3.34 13 2.68 13 2 13 C2 9.7 2 6.4 2 3 C1.34 3 0.68 3 0 3 C0 2.01 0 1.02 0 0 Z " fill="#E5193F" transform="translate(162,46)"/>
<path d="M0 0 C0.99 0 1.98 0 3 0 C2.67 3.3 2.34 6.6 2 10 C1.34 10 0.68 10 0 10 C-1.125 2.25 -1.125 2.25 0 0 Z " fill="#C21E49" transform="translate(149,48)"/>
<path d="M0 0 C1.32 0.66 2.64 1.32 4 2 C4 5.96 4 9.92 4 14 C1.69 14 -0.62 14 -3 14 C-2.34 13.34 -1.68 12.68 -1 12 C-0.01 12 0.98 12 2 12 C2 9.03 2 6.06 2 3 C1.01 2.67 0.02 2.34 -1 2 C-0.67 1.34 -0.34 0.68 0 0 Z " fill="#B9677F" transform="translate(88,46)"/>
<path d="M0 0 C0.66 0 1.32 0 2 0 C2 3.3 2 6.6 2 10 C0 11 0 11 -3.125 10.0625 C-4.07375 9.711875 -5.0225 9.36125 -6 9 C-5.34 8.34 -4.68 7.68 -4 7 C-2.68 7 -1.36 7 0 7 C0 4.69 0 2.38 0 0 Z " fill="#EC4369" transform="translate(156,39)"/>
<path d="M0 0 C0.99 0 1.98 0 3 0 C3 3.63 3 7.26 3 11 C0.50907189 12.24546405 -0.41080733 11.7767578 -3 11 C-3 10.01 -3 9.02 -3 8 C-0.525 8.495 -0.525 8.495 2 9 C2 6.69 2 4.38 2 2 C1.34 2 0.68 2 0 2 C0 1.34 0 0.68 0 0 Z " fill="#6EA16E" transform="translate(81,38)"/>
<path d="M0 0 C0.66 0 1.32 0 2 0 C2 0.99 2 1.98 2 3 C3.65 3.33 5.3 3.66 7 4 C6.67 5.32 6.34 6.64 6 8 C6 7.01 6 6.02 6 5 C4.68 5 3.36 5 2 5 C1.67 6.32 1.34 7.64 1 9 C-1.09230769 4.56923077 -1.09230769 4.56923077 -0.625 1.6875 C-0.41875 1.130625 -0.2125 0.57375 0 0 Z " fill="#E83459" transform="translate(170,49)"/>
<path d="M0 0 C0.66 0 1.32 0 2 0 C2.05399736 1.45792884 2.09279177 2.91642712 2.125 4.375 C2.14820312 5.18710937 2.17140625 5.99921875 2.1953125 6.8359375 C2 9 2 9 0 11 C-1 10 -1 10 -1.125 6.625 C-1 3 -1 3 0 0 Z " fill="#428A65" transform="translate(76,47)"/>
<path d="M0 0 C0.99 0 1.98 0 3 0 C1.125 3.875 1.125 3.875 0 5 C-2.33297433 5.04092937 -4.66705225 5.04241723 -7 5 C-6.34 4.01 -5.68 3.02 -5 2 C-3.68 2 -2.36 2 -1 2 C-0.67 1.34 -0.34 0.68 0 0 Z " fill="#8D4F78" transform="translate(124,55)"/>
<path d="M0 0 C0.33 0 0.66 0 1 0 C1.1953125 2.01822917 1.390625 4.03645833 1.5859375 6.0546875 C1.86374749 8.22668245 1.86374749 8.22668245 4 10 C3.01 10.33 2.02 10.66 1 11 C1 12.32 1 13.64 1 15 C0.34 15 -0.32 15 -1 15 C-0.67 10.05 -0.34 5.1 0 0 Z " fill="#EF6274" transform="translate(99,38)"/>
<path d="M0 0 C-0.33 1.65 -0.66 3.3 -1 5 C-2.98 5 -4.96 5 -7 5 C-6.67 4.34 -6.34 3.68 -6 3 C-4.02 3.495 -4.02 3.495 -2 4 C-4.03268602 1.83656989 -4.03268602 1.83656989 -7 0 C-4.3333581 -1.33332095 -2.83319697 -0.67102033 0 0 Z " fill="#925177" transform="translate(124,47)"/>
<path d="M0 0 C0.33 0.66 0.66 1.32 1 2 C2.65 1.67 4.3 1.34 6 1 C6.66 1.99 7.32 2.98 8 4 C0.25 4.125 0.25 4.125 -2 3 C-1 1 -1 1 0 0 Z " fill="#5DA271" transform="translate(77,56)"/>
<path d="M0 0 C1.53445094 3.06890187 0.54984289 5.70094266 0 9 C0.99 9.33 1.98 9.66 3 10 C3 10.66 3 11.32 3 12 C1.0625 11.625 1.0625 11.625 -1 11 C-2.659214 7.681572 -1.57259528 4.60735024 -1 1 C-0.67 0.67 -0.34 0.34 0 0 Z " fill="#30617F" transform="translate(64,48)"/>
<path d="M0 0 C3.3 0.33 6.6 0.66 10 1 C8.68 2.32 7.36 3.64 6 5 C5.67 3.68 5.34 2.36 5 1 C3.35 1.66 1.7 2.32 0 3 C0 2.01 0 1.02 0 0 Z " fill="#317966" transform="translate(27,46)"/>
<path d="M0 0 C0.66 0.33 1.32 0.66 2 1 C1 3 1 3 -1 4 C-1 3.34 -1 2.68 -1 2 C-2.65 2.33 -4.3 2.66 -6 3 C-6.33 2.01 -6.66 1.02 -7 0 C-4.30919898 -1.34540051 -2.86443593 -0.71610898 0 0 Z " fill="#4D8389" transform="translate(71,47)"/>
<path d="M0 0 C0.33 1.32 0.66 2.64 1 4 C2.65 3.67 4.3 3.34 6 3 C6.33 3.99 6.66 4.98 7 6 C4.69 6 2.38 6 0 6 C-1.24546405 3.50907189 -0.7767578 2.58919267 0 0 Z " fill="#E7486C" transform="translate(151,54)"/>
<path d="M0 0 C0.33 0 0.66 0 1 0 C1 2.97 1 5.94 1 9 C0.34 9 -0.32 9 -1 9 C-1.625 6.1875 -1.625 6.1875 -2 3 C-1.34 2.01 -0.68 1.02 0 0 Z " fill="#13456B" transform="translate(43,49)"/>
<path d="M0 0 C0.99 0.33 1.98 0.66 3 1 C3.6875 3.0625 3.6875 3.0625 4 5 C1.69 5 -0.62 5 -3 5 C-2.01 4.67 -1.02 4.34 0 4 C0 2.68 0 1.36 0 0 Z " fill="#6D3466" transform="translate(123,48)"/>
<path d="M0 0 C2.475 0.99 2.475 0.99 5 2 C4.67 4.97 4.34 7.94 4 11 C3.67 11 3.34 11 3 11 C2.87625 9.9275 2.7525 8.855 2.625 7.75 C2.10356064 4.62136385 1.59911746 2.66519576 0 0 Z " fill="#E34949" transform="translate(102,46)"/>
<path d="M0 0 C1.32 0.66 2.64 1.32 4 2 C2.02 2 0.04 2 -2 2 C-1.34 1.34 -0.68 0.68 0 0 Z " fill="#4C2D77" transform="translate(131,61)"/>
</svg>
