<?xml version="1.0" encoding="UTF-8"?>
<svg version="1.1" xmlns="http://www.w3.org/2000/svg" width="200" height="100">
<path d="M0 0 C2.5 0.25 2.5 0.25 4.5 2.25 C4.625 5.375 4.625 5.375 4.5 8.25 C5.59699219 8.20359375 6.69398437 8.1571875 7.82421875 8.109375 C9.2786185 8.0718421 10.73304783 8.03544357 12.1875 8 C13.2693457 7.94972656 13.2693457 7.94972656 14.37304688 7.8984375 C18.38194518 7.82521561 20.07169678 7.96409513 23.51953125 10.265625 C24.17308594 10.92046875 24.82664062 11.5753125 25.5 12.25 C25.83 11.775625 26.16 11.30125 26.5 10.8125 C28.5 9.25 28.5 9.25 32.4375 8.9375 C34.55445926 8.82537204 34.55445926 8.82537204 36.5 8.25 C38.92422186 5.36490087 38.92422186 5.36490087 40.5 2.25 C43.45664519 0.7716774 46.24229737 1.18967217 49.5 1.25 C49.995 3.23 49.995 3.23 50.5 5.25 C49.51 5.91 48.52 6.57 47.5 7.25 C50.14 7.58 52.78 7.91 55.5 8.25 C55.5 8.91 55.5 9.57 55.5 10.25 C56.16 9.92 56.82 9.59 57.5 9.25 C61.49229629 7.91923457 64.2846968 7.91545213 68.5 8.25 C71.73613354 9.99253345 72.32395315 10.72185944 73.5 14.25 C73.62781786 16.92394964 73.54391871 19.57095857 73.5 22.25 C75.48 21.92 77.46 21.59 79.5 21.25 C79.5825 20.0125 79.665 18.775 79.75 17.5 C80.12989037 14.63815918 80.47151966 13.29442932 82.0625 10.8125 C88.85222512 6.4601121 97.89699541 8.49665351 105.5 9.25 C105.5 6.94 105.5 4.63 105.5 2.25 C108.8 2.25 112.1 2.25 115.5 2.25 C115.5 3.9 115.5 5.55 115.5 7.25 C114.18 7.58 112.86 7.91 111.5 8.25 C112.42683594 8.29898438 113.35367188 8.34796875 114.30859375 8.3984375 C115.50613281 8.47320312 116.70367187 8.54796875 117.9375 8.625 C119.72994141 8.72941406 119.72994141 8.72941406 121.55859375 8.8359375 C122.52925781 8.97257812 123.49992188 9.10921875 124.5 9.25 C124.83 9.91 125.16 10.57 125.5 11.25 C126.16 10.59 126.82 9.93 127.5 9.25 C131.57156034 8.71898844 135.66388942 8.63906694 139.76635742 8.50708008 C141.79534233 8.43808345 143.82184087 8.34206352 145.84960938 8.24414062 C147.13287109 8.19837891 148.41613281 8.15261719 149.73828125 8.10546875 C150.91430908 8.06059326 152.09033691 8.01571777 153.30200195 7.96948242 C156.8743313 8.28283508 158.70311802 9.03130404 161.5 11.25 C162.06640625 14.2109375 162.06640625 14.2109375 162.0625 17.625 C162.0686751 22.99733495 162.85343334 25.27849176 166.5 29.25 C166.5 29.58 166.5 29.91 166.5 30.25 C153.5 30.25 140.5 30.25 127.5 30.25 C126.71625 30.353125 125.9325 30.45625 125.125 30.5625 C122.5 30.25 122.5 30.25 120.1875 27.75 C119.630625 26.925 119.07375 26.1 118.5 25.25 C117.654375 26.075 116.80875 26.9 115.9375 27.75 C113.29537975 29.95488995 112.49624257 30.25045348 108.875 30.6875 C105.87141378 30.29814623 104.02077296 29.86329469 101.5 28.25 C101.31824219 28.80429687 101.13648437 29.35859375 100.94921875 29.9296875 C100.69785156 30.65414062 100.44648437 31.37859375 100.1875 32.125 C99.94386719 32.84429687 99.70023437 33.56359375 99.44921875 34.3046875 C98.5 36.25 98.5 36.25 95.5 38.25 C92.10810054 38.7961533 88.892718 38.79024172 85.5 38.25 C82.375 35.9375 82.375 35.9375 80.5 33.25 C80.5 32.26 80.5 31.27 80.5 30.25 C79.9097554 30.26474869 79.3195108 30.27949738 78.71138 30.29469299 C72.563349 30.44722126 66.41516939 30.59195358 60.2668457 30.73217773 C57.97285308 30.78551886 55.67890563 30.84084188 53.38500977 30.89819336 C50.08619936 30.98032438 46.78729168 31.05530679 43.48828125 31.12890625 C42.46414627 31.15594131 41.44001129 31.18297638 40.38484192 31.21083069 C39.42422348 31.23092697 38.46360504 31.25102325 37.47387695 31.27172852 C36.63226517 31.29171402 35.79065338 31.31169952 34.92353821 31.33229065 C32.35019904 31.24491354 30.01546648 30.78079238 27.5 30.25 C25.15088585 30.16971054 22.79968331 30.14234177 20.44921875 30.15234375 C19.46100883 30.15446617 19.46100883 30.15446617 18.45283508 30.15663147 C16.36434238 30.162195 14.27595989 30.17474053 12.1875 30.1875 C10.76497551 30.19251972 9.34244934 30.1970818 7.91992188 30.20117188 C4.44657923 30.21215243 0.97330039 30.22939165 -2.5 30.25 C-3.88226016 27.48547967 -3.59525387 25.2038637 -3.5625 22.125 C-3.55347656 21.02929688 -3.54445313 19.93359375 -3.53515625 18.8046875 C-3.52355469 17.96164063 -3.51195312 17.11859375 -3.5 16.25 C-4.16 16.25 -4.82 16.25 -5.5 16.25 C-5.59765625 10.09765625 -5.59765625 10.09765625 -5.5 8.25 C-5.17 7.92 -4.84 7.59 -4.5 7.25 C-4.520625 6.445625 -4.54125 5.64125 -4.5625 4.8125 C-4.47526798 1.23598722 -3.54090091 0.35409009 0 0 Z M107.5 3.25 C108.5 6.25 108.5 6.25 108.5 6.25 Z M112.5 3.25 C112.83 4.24 113.16 5.23 113.5 6.25 C113.5 5.26 113.5 4.27 113.5 3.25 C113.17 3.25 112.84 3.25 112.5 3.25 Z M55.5 12.25 C55.5 13.9 55.5 15.55 55.5 17.25 C56.16 16.92 56.82 16.59 57.5 16.25 C56.84 14.93 56.18 13.61 55.5 12.25 Z M133.5 14.25 C132.015 17.715 132.015 17.715 130.5 21.25 C132.15 21.25 133.8 21.25 135.5 21.25 C135.5 18.94 135.5 16.63 135.5 14.25 C134.84 14.25 134.18 14.25 133.5 14.25 Z M15.5 16.25 C14.20366379 17.31645115 14.20366379 17.31645115 14.4375 19.8125 C14.458125 20.616875 14.47875 21.42125 14.5 22.25 C15.16 22.25 15.82 22.25 16.5 22.25 C16.5 20.27 16.5 18.29 16.5 16.25 C16.17 16.25 15.84 16.25 15.5 16.25 Z M45.5 16.25 C45.5 18.23 45.5 20.21 45.5 22.25 C46.16 22.25 46.82 22.25 47.5 22.25 C47.5 20.27 47.5 18.29 47.5 16.25 C46.84 16.25 46.18 16.25 45.5 16.25 Z M89.5 16.25 C88.39163577 18.13316159 88.39163577 18.13316159 87.5 20.25 C87.83 20.91 88.16 21.57 88.5 22.25 C89.82 21.92 91.14 21.59 92.5 21.25 C92.15213292 19.27463255 92.15213292 19.27463255 91.5 17.25 C90.84 16.92 90.18 16.59 89.5 16.25 Z M107.5 16.25 C107.17 17.9 106.84 19.55 106.5 21.25 C107.82 21.58 109.14 21.91 110.5 22.25 C110.83 20.93 111.16 19.61 111.5 18.25 C110.18 17.59 108.86 16.93 107.5 16.25 Z M152.5 17.25 C152.5 19.89 152.5 22.53 152.5 25.25 C152.83 25.25 153.16 25.25 153.5 25.25 C153.5 22.61 153.5 19.97 153.5 17.25 C153.17 17.25 152.84 17.25 152.5 17.25 Z M82.5 27.25 C82.83 28.24 83.16 29.23 83.5 30.25 C85.15 30.58 86.8 30.91 88.5 31.25 C87.10804085 28.4660817 85.34424221 28.27101003 82.5 27.25 Z " fill="#3C73B7" transform="translate(19.5,30.75)"/>
<path d="M0 0 C3.3 0 6.6 0 10 0 C10 1.65 10 3.3 10 5 C8.68 5.33 7.36 5.66 6 6 C6.92683594 6.04898438 7.85367188 6.09796875 8.80859375 6.1484375 C10.00613281 6.22320312 11.20367187 6.29796875 12.4375 6.375 C14.22994141 6.47941406 14.22994141 6.47941406 16.05859375 6.5859375 C17.51458984 6.79089844 17.51458984 6.79089844 19 7 C19.495 7.99 19.495 7.99 20 9 C20.66 8.34 21.32 7.68 22 7 C26.10753547 6.44734079 30.235761 6.3469579 34.3762207 6.20214844 C36.42756378 6.12537189 38.47561389 6.01658281 40.52539062 5.90625 C42.45995117 5.83277344 42.45995117 5.83277344 44.43359375 5.7578125 C45.62009521 5.7077002 46.80659668 5.65758789 48.02905273 5.60595703 C51 6 51 6 52.8828125 7.81958008 C54.39673512 10.77430973 54.44594788 13.25768358 54.5625 16.5625 C54.68824526 21.60541211 54.68824526 21.60541211 57 26 C54.625 26.125 54.625 26.125 52 26 C50 24 50 24 49.8046875 21.1796875 C49.82789063 20.08914062 49.85109375 18.99859375 49.875 17.875 C49.89304687 16.77929688 49.91109375 15.68359375 49.9296875 14.5546875 C49.95289063 13.71164063 49.97609375 12.86859375 50 12 C48.35 12.33 46.7 12.66 45 13 C45.14084796 14.79206547 45.28783701 16.58364917 45.4375 18.375 C45.51871094 19.37273438 45.59992188 20.37046875 45.68359375 21.3984375 C45.84965626 23.97927613 45.84965626 23.97927613 47 26 C44.625 26.125 44.625 26.125 42 26 C38.70798713 22.70798713 39.54032544 18.35792824 39.34375 13.87109375 C39.2303125 12.92363281 39.116875 11.97617187 39 11 C38.34 10.67 37.68 10.34 37 10 C36.97307516 12.29160319 36.95363876 14.58329546 36.9375 16.875 C36.92589844 18.15117188 36.91429687 19.42734375 36.90234375 20.7421875 C36.76823431 23.88664652 36.76823431 23.88664652 38 26 C36.02 26 34.04 26 32 26 C30.71553081 23.43106162 30.67022856 21.23423663 30.4375 18.375 C30.35371094 17.37210938 30.26992187 16.36921875 30.18359375 15.3359375 C30.12300781 14.56507812 30.06242187 13.79421875 30 13 C29.34 13 28.68 13 28 13 C26.70957237 15.26601865 26.70957237 15.26601865 26 18 C26.95298777 19.36733028 27.95374591 20.70264493 29 22 C28.6875 24.25 28.6875 24.25 28 26 C26.0625 25.6875 26.0625 25.6875 24 25 C23.505 23.515 23.505 23.515 23 22 C22.01 23.32 21.02 24.64 20 26 C18.1875 25.5 18.1875 25.5 16 24 C14.73847391 21.4136076 13.84356955 18.74799171 13 16 C12.38125 17.6396875 12.38125 17.6396875 11.75 19.3125 C10.35471462 22.51841154 9.24964035 24.42160326 6 26 C3 26.4375 3 26.4375 0 26 C-2.30275556 24.1329009 -3.67823871 22.64352259 -5 20 C-5.13415472 17.3276379 -5.04318541 14.67749512 -5 12 C-7.16772077 14.16772077 -6.30033973 19.84851902 -6.34179688 22.921875 C-6.48524845 26.55153333 -6.91133817 28.85190765 -8.7890625 31.98828125 C-11 34 -11 34 -13.03515625 34.55859375 C-16.79840226 34.33381412 -18.8090836 34.1272776 -22 32 C-22 31.34 -22 30.68 -22 30 C-20.906875 30.04125 -19.81375 30.0825 -18.6875 30.125 C-14.91107771 30.32074666 -14.91107771 30.32074666 -12 28 C-11.67 27.01 -11.34 26.02 -11 25 C-12.051875 25.2475 -13.10375 25.495 -14.1875 25.75 C-18 26 -18 26 -20.875 24.1875 C-23.35756589 21.63191747 -23.92065293 20.71412366 -24.3125 17.1875 C-24 14 -24 14 -22.625 11.125 C-19.15844127 8.31873817 -17.07160734 8.71908561 -12.75 8.95703125 C-8.36690347 9.02551713 -4.24466021 8.0114935 0 7 C0 4.69 0 2.38 0 0 Z M2 1 C3 4 3 4 3 4 Z M7 1 C7.33 1.99 7.66 2.98 8 4 C8 3.01 8 2.02 8 1 C7.67 1 7.34 1 7 1 Z M-16 14 C-17.10836423 15.88316159 -17.10836423 15.88316159 -18 18 C-17.67 18.66 -17.34 19.32 -17 20 C-15.68 19.67 -14.36 19.34 -13 19 C-13.34786708 17.02463255 -13.34786708 17.02463255 -14 15 C-14.66 14.67 -15.32 14.34 -16 14 Z M2 14 C1.67 15.65 1.34 17.3 1 19 C2.32 19.33 3.64 19.66 5 20 C5.33 18.68 5.66 17.36 6 16 C4.68 15.34 3.36 14.68 2 14 Z " fill="#D2D4D6" transform="translate(125,33)"/>
<path d="M0 0 C0.33 1.32 0.66 2.64 1 4 C0.01 4.66 -0.98 5.32 -2 6 C0.64 6.33 3.28 6.66 6 7 C6 7.66 6 8.32 6 9 C6.66 8.67 7.32 8.34 8 8 C11.99229629 6.66923457 14.7846968 6.66545213 19 7 C22.23613354 8.74253345 22.82395315 9.47185944 24 13 C24.12781786 15.67394964 24.04391871 18.32095857 24 21 C25.98 20.67 27.96 20.34 30 20 C30.0825 18.7625 30.165 17.525 30.25 16.25 C30.62989037 13.38815918 30.97151966 12.04442932 32.5625 9.5625 C38.68320827 5.63896906 46.14941586 7.08752465 53 8 C53 8.33 53 8.66 53 9 C48.47070423 10.17426187 44.32405961 11.13702935 39.625 10.875 C36.03994585 10.63359173 36.03994585 10.63359173 34 12.625 C32.6818554 15.75559341 32.44985097 17.6303372 33 21 C34.93692369 24.02033737 34.93692369 24.02033737 38 26 C41.71000718 26.41831404 41.71000718 26.41831404 45 26 C44.6875 27.875 44.6875 27.875 44 30 C40.1496895 32.56687367 38.41430237 31.83288724 34 31 C34.990755 32.66641006 34.990755 32.66641006 37 34 C39.73766929 34.49620256 42.29602884 34.69234745 45 34 C47.80566886 31.51953367 48.00620029 29.94169346 48.40625 26.1796875 C48.47421289 24.0088728 48.50043809 21.83963968 48.52734375 19.66796875 C48.58688917 17.77302335 48.78472921 15.88361945 49 14 C49.99 13.34 50.98 12.68 52 12 C51.98839844 12.60328125 51.97679688 13.2065625 51.96484375 13.828125 C51.95582031 14.62734375 51.94679688 15.4265625 51.9375 16.25 C51.92589844 17.03890625 51.91429688 17.8278125 51.90234375 18.640625 C51.99614694 20.90691002 52.36758937 22.8288895 53 25 C56.02754455 25.66619172 58.89452452 26.11964143 62 26 C65.33004147 23.64122063 66.68062941 22.10551357 67.8125 18.1875 C67.874375 17.465625 67.93625 16.74375 68 16 C70.70608417 17.35304209 70.96183047 18.80966544 72.125 21.5625 C72.47820312 22.38878906 72.83140625 23.21507813 73.1953125 24.06640625 C73.46085937 24.70449219 73.72640625 25.34257813 74 26 C76.24362573 26.2284549 76.24362573 26.2284549 78.125 24 C78.74375 23.34 79.3625 22.68 80 22 C80.495 23.98 80.495 23.98 81 26 C81.99 26 82.98 26 84 26 C83.505 23.03 83.505 23.03 83 20 C83.99 20 84.98 20 86 20 C86 18.02 86 16.04 86 14 C86.33 14 86.66 14 87 14 C87.495 20.435 87.495 20.435 88 27 C89.65 26.67 91.3 26.34 93 26 C92.67 25.67 92.34 25.34 92 25 C91.92686433 22.46950598 91.90752473 19.96695163 91.9375 17.4375 C91.94201172 16.72658203 91.94652344 16.01566406 91.95117188 15.28320312 C91.96299136 13.52209987 91.98092737 11.76103964 92 10 C93.953125 10.5859375 93.953125 10.5859375 96 12 C96.609375 15.0390625 96.609375 15.0390625 96.75 18.625 C96.80671875 19.81351563 96.8634375 21.00203125 96.921875 22.2265625 C96.94765625 23.14179687 96.9734375 24.05703125 97 25 C98.32 25 99.64 25 101 25 C101 21.37 101 17.74 101 14 C103.475 13.505 103.475 13.505 106 13 C106.495 18.94 106.495 18.94 107 25 C108.32 25 109.64 25 111 25 C110.67 24.67 110.34 24.34 110 24 C109.78964095 21.87887958 109.63149899 19.75246581 109.5 17.625 C109.28419953 14.14907092 109.1024508 11.3073524 108 8 C109.96875 8.60546875 109.96875 8.60546875 112 10 C112.46875 12.86328125 112.46875 12.86328125 112.5 16.3125 C112.5490775 21.69262044 113.34953786 24.02360374 117 28 C117 28.33 117 28.66 117 29 C104 29 91 29 78 29 C77.21625 29.103125 76.4325 29.20625 75.625 29.3125 C73 29 73 29 70.6875 26.5 C70.130625 25.675 69.57375 24.85 69 24 C68.154375 24.825 67.30875 25.65 66.4375 26.5 C63.79537975 28.70488995 62.99624257 29.00045348 59.375 29.4375 C56.37141378 29.04814623 54.52077296 28.61329469 52 27 C51.81824219 27.55429687 51.63648437 28.10859375 51.44921875 28.6796875 C51.19785156 29.40414062 50.94648437 30.12859375 50.6875 30.875 C50.44386719 31.59429687 50.20023437 32.31359375 49.94921875 33.0546875 C49 35 49 35 46 37 C42.60810054 37.5461533 39.392718 37.54024172 36 37 C32.875 34.6875 32.875 34.6875 31 32 C31 31.01 31 30.02 31 29 C30.01 28.67 29.02 28.34 28 28 C28.66 27.67 29.32 27.34 30 27 C30 25.68 30 24.36 30 23 C29.01 23.33 28.02 23.66 27 24 C27 24.99 27 25.98 27 27 C26.34 27 25.68 27 25 27 C25 25.68 25 24.36 25 23 C24.01 23 23.02 23 22 23 C21.94392578 21.96939453 21.94392578 21.96939453 21.88671875 20.91796875 C21.82097656 20.01691406 21.75523438 19.11585937 21.6875 18.1875 C21.62949219 17.29417969 21.57148437 16.40085937 21.51171875 15.48046875 C20.92061301 12.61518519 20.41145054 11.63634144 18 10 C15.71669899 9.63853543 15.71669899 9.63853543 13.3125 9.8125 C12.10013672 9.85310547 12.10013672 9.85310547 10.86328125 9.89453125 C10.24839844 9.92933594 9.63351563 9.96414062 9 10 C9 10.99 9 11.98 9 13 C11.64 13 14.28 13 17 13 C17 13.99 17 14.98 17 16 C16.37351563 16.08636719 15.74703125 16.17273438 15.1015625 16.26171875 C12.63217125 16.68626709 10.35643158 17.14272416 8 18 C6.32386813 20.47014472 6.32386813 20.47014472 6 23 C5.34 23 4.68 23 4 23 C4 18.71 4 14.42 4 10 C1.69 10 -0.62 10 -3 10 C-3 11.32 -3 12.64 -3 14 C-2.34 14 -1.68 14 -1 14 C-1 18.29 -1 22.58 -1 27 C-1.33 26.01 -1.66 25.02 -2 24 C-3.32 24 -4.64 24 -6 24 C-6.08086376 21.06195004 -6.1404283 18.12611925 -6.1875 15.1875 C-6.21263672 14.35412109 -6.23777344 13.52074219 -6.26367188 12.66210938 C-6.27333984 11.85966797 -6.28300781 11.05722656 -6.29296875 10.23046875 C-6.31653442 9.12288208 -6.31653442 9.12288208 -6.34057617 7.99291992 C-5.91074167 5.47769478 -4.92536938 4.60558484 -3 3 C-4.65 3.33 -6.3 3.66 -8 4 C-8.66 6.31 -9.32 8.62 -10 11 C-10.66 10.67 -11.32 10.34 -12 10 C-14.3329866 9.95977609 -16.66706666 9.95679753 -19 10 C-18.67 9.01 -18.34 8.02 -18 7 C-17.2575 7.12375 -16.515 7.2475 -15.75 7.375 C-14.38875 7.189375 -14.38875 7.189375 -13 7 C-10.76915523 4.11211359 -10.76915523 4.11211359 -9 1 C-6.04335481 -0.4783226 -3.25770263 -0.06032783 0 0 Z M6 11 C6 12.65 6 14.3 6 16 C6.66 15.67 7.32 15.34 8 15 C7.34 13.68 6.68 12.36 6 11 Z M-4 15 C-4 16.98 -4 18.96 -4 21 C-3.34 21 -2.68 21 -2 21 C-2 19.02 -2 17.04 -2 15 C-2.66 15 -3.32 15 -4 15 Z M103 16 C103 18.64 103 21.28 103 24 C103.33 24 103.66 24 104 24 C104 21.36 104 18.72 104 16 C103.67 16 103.34 16 103 16 Z M33 26 C33.33 26.99 33.66 27.98 34 29 C35.65 29.33 37.3 29.66 39 30 C37.60804085 27.2160817 35.84424221 27.02101003 33 26 Z " fill="#E2E5E7" transform="translate(69,32)"/>
<path d="M0 0 C2.5 0.25 2.5 0.25 4.5 2.25 C4.625 5.375 4.625 5.375 4.5 8.25 C5.59699219 8.20359375 6.69398437 8.1571875 7.82421875 8.109375 C9.2786185 8.0718421 10.73304783 8.03544357 12.1875 8 C13.2693457 7.94972656 13.2693457 7.94972656 14.37304688 7.8984375 C18.38194518 7.82521561 20.07169678 7.96409513 23.51953125 10.265625 C24.17308594 10.92046875 24.82664062 11.5753125 25.5 12.25 C26.180625 11.5075 26.180625 11.5075 26.875 10.75 C28.5 9.25 28.5 9.25 30.5 9.25 C29.34826645 11.71800047 28.45216435 13.29783565 26.5 15.25 C25.93570046 20.16746739 25.73365959 22.16810765 28.625 26.25 C31.95829619 28.56881474 33.52642355 28.77981019 37.5 28.25 C38.16 27.92 38.82 27.59 39.5 27.25 C39.5 27.91 39.5 28.57 39.5 29.25 C41.81 29.25 44.12 29.25 46.5 29.25 C46.5 29.58 46.5 29.91 46.5 30.25 C44.27156512 30.44600577 42.04220107 30.63146569 39.8125 30.8125 C38.57113281 30.91691406 37.32976563 31.02132812 36.05078125 31.12890625 C32.5 31.25 32.5 31.25 30.21875 30.76367188 C26.91539066 30.13954579 23.81100012 30.1380383 20.44921875 30.15234375 C19.46100883 30.15446617 19.46100883 30.15446617 18.45283508 30.15663147 C16.36434238 30.162195 14.27595989 30.17474053 12.1875 30.1875 C10.76497551 30.19251972 9.34244934 30.1970818 7.91992188 30.20117188 C4.44657923 30.21215243 0.97330039 30.22939165 -2.5 30.25 C-3.88226016 27.48547967 -3.59525387 25.2038637 -3.5625 22.125 C-3.55347656 21.02929688 -3.54445313 19.93359375 -3.53515625 18.8046875 C-3.52355469 17.96164063 -3.51195312 17.11859375 -3.5 16.25 C-4.16 16.25 -4.82 16.25 -5.5 16.25 C-5.59765625 10.09765625 -5.59765625 10.09765625 -5.5 8.25 C-5.17 7.92 -4.84 7.59 -4.5 7.25 C-4.520625 6.445625 -4.54125 5.64125 -4.5625 4.8125 C-4.47526798 1.23598722 -3.54090091 0.35409009 0 0 Z M15.5 16.25 C14.20366379 17.31645115 14.20366379 17.31645115 14.4375 19.8125 C14.458125 20.616875 14.47875 21.42125 14.5 22.25 C15.16 22.25 15.82 22.25 16.5 22.25 C16.5 20.27 16.5 18.29 16.5 16.25 C16.17 16.25 15.84 16.25 15.5 16.25 Z " fill="#DAD2D7" transform="translate(19.5,30.75)"/>
<path d="M0 0 C0.68191406 0.04189453 1.36382812 0.08378906 2.06640625 0.12695312 C2.76378906 0.14951172 3.46117188 0.17207031 4.1796875 0.1953125 C5.8928556 0.25398264 7.60491248 0.34366056 9.31640625 0.43945312 C8.98640625 1.09945312 8.65640625 1.75945313 8.31640625 2.43945312 C8.14963701 6.1936141 8.01959166 9.94169836 7.97460938 13.69921875 C7.83422255 17.68555176 7.58455529 19.98278008 5.52734375 23.48632812 C3.15007536 25.58638854 2.35622705 26.06225552 -0.74609375 25.87695312 C-4.68359375 25.43945312 -4.68359375 25.43945312 -7.68359375 23.43945312 C-7.68359375 22.77945313 -7.68359375 22.11945312 -7.68359375 21.43945312 C-6.59046875 21.48070313 -5.49734375 21.52195312 -4.37109375 21.56445312 C-0.59467146 21.76019978 -0.59467146 21.76019978 2.31640625 19.43945312 C2.64640625 18.44945313 2.97640625 17.45945312 3.31640625 16.43945312 C2.26453125 16.68695313 1.21265625 16.93445313 0.12890625 17.18945312 C-3.68359375 17.43945312 -3.68359375 17.43945312 -6.55859375 15.62695312 C-9.04115964 13.07137059 -9.60424668 12.15357679 -9.99609375 8.62695312 C-9.37532764 2.29513876 -6.29865794 -0.15288005 0 0 Z M-1.68359375 5.43945312 C-2.79195798 7.32261471 -2.79195798 7.32261471 -3.68359375 9.43945312 C-3.35359375 10.09945312 -3.02359375 10.75945313 -2.68359375 11.43945312 C-1.36359375 11.10945313 -0.04359375 10.77945313 1.31640625 10.43945312 C0.96853917 8.46408568 0.96853917 8.46408568 0.31640625 6.43945312 C-0.34359375 6.10945313 -1.00359375 5.77945313 -1.68359375 5.43945312 Z " fill="#3F4550" transform="translate(110.68359375,41.560546875)"/>
<path d="M0 0 C2.4375 1.375 2.4375 1.375 4 4 C4.32131194 7.36060684 4.23114045 10.63562234 4 14 C4.99 14 5.98 14 7 14 C7 15.32 7 16.64 7 18 C7.99 16.35 8.98 14.7 10 13 C10.99 13.33 11.98 13.66 13 14 C12.67 15.65 12.34 17.3 12 19 C7.17155455 20.05715964 3.13473535 19.85842709 -1.75 19.1875 C-2.42160156 19.10435547 -3.09320313 19.02121094 -3.78515625 18.93554688 C-8.74536331 18.25463669 -8.74536331 18.25463669 -11 16 C-11.3125 12.5 -11.3125 12.5 -11 9 C-7.3558226 6.5705484 -5.28758728 6.83820425 -1 7 C-1 6.01 -1 5.02 -1 4 C-3.64 4 -6.28 4 -9 4 C-9 3.01 -9 2.02 -9 1 C-5.90826248 -0.54586876 -3.40570448 -0.29359521 0 0 Z " fill="#8A68AD" transform="translate(87,41)"/>
<path d="M0 0 C0 4.62 0 9.24 0 14 C2.31 14 4.62 14 7 14 C7 13.34 7 12.68 7 12 C9.16874252 12.50603992 10.99967627 12.99983813 13 14 C17.14503661 14.24787017 17.14503661 14.24787017 21 13 C21 13.66 21 14.32 21 15 C23.31 15 25.62 15 28 15 C28 15.33 28 15.66 28 16 C25.77156512 16.19600577 23.54220107 16.38146569 21.3125 16.5625 C20.07113281 16.66691406 18.82976563 16.77132812 17.55078125 16.87890625 C14 17 14 17 11.71875 16.51367188 C8.41539066 15.88954579 5.31100012 15.8880383 1.94921875 15.90234375 C0.96100883 15.90446617 0.96100883 15.90446617 -0.04716492 15.90663147 C-2.13565762 15.912195 -4.22404011 15.92474053 -6.3125 15.9375 C-7.73502449 15.94251972 -9.15755066 15.9470818 -10.58007812 15.95117188 C-14.05342077 15.96215243 -17.52669961 15.97939165 -21 16 C-22.38226016 13.23547967 -22.09525387 10.9538637 -22.0625 7.875 C-22.05347656 6.77929688 -22.04445313 5.68359375 -22.03515625 4.5546875 C-22.02355469 3.71164063 -22.01195312 2.86859375 -22 2 C-22.66 1.67 -23.32 1.34 -24 1 C-22.68 1 -21.36 1 -20 1 C-20 5.62 -20 10.24 -20 15 C-17.36 15 -14.72 15 -12 15 C-12 13.35 -12 11.7 -12 10 C-12.99 10 -13.98 10 -15 10 C-15 7.03 -15 4.06 -15 1 C-13.68 1 -12.36 1 -11 1 C-11 5.29 -11 9.58 -11 14 C-8.69 14 -6.38 14 -4 14 C-4 13.01 -4 12.02 -4 11 C-4.66 11 -5.32 11 -6 11 C-6 7.7 -6 4.4 -6 1 C-4 0 -4 0 0 0 Z M-3 2 C-4.29633621 3.06645115 -4.29633621 3.06645115 -4.0625 5.5625 C-4.041875 6.366875 -4.02125 7.17125 -4 8 C-3.34 8 -2.68 8 -2 8 C-2 6.02 -2 4.04 -2 2 C-2.33 2 -2.66 2 -3 2 Z " fill="#DDE7E1" transform="translate(38,45)"/>
<path d="M0 0 C3.33219018 2.13601934 3.89315459 3.6327189 5 7.4375 C5 11 5 11 3.1875 13.875 C0.60374666 16.38493182 -0.30341195 16.92428391 -3.875 17.3125 C-7 17 -7 17 -9.3125 15.125 C-12.29718609 11.36650641 -12.41306401 8.79154246 -12 4 C-9.10584527 -0.70300143 -5.08870113 -1.01356059 0 0 Z M-5 5 C-5.33 6.65 -5.66 8.3 -6 10 C-4.68 10.33 -3.36 10.66 -2 11 C-1.67 9.68 -1.34 8.36 -1 7 C-2.32 6.34 -3.64 5.68 -5 5 Z " fill="#414752" transform="translate(132,42)"/>
<path d="M0 0 C0.29296875 2.8203125 0.29296875 2.8203125 0.1875 6.125 C0.16042969 7.22070312 0.13335937 8.31640625 0.10546875 9.4453125 C0.07066406 10.28835937 0.03585938 11.13140625 0 12 C0.99 12 1.98 12 3 12 C3 13.32 3 14.64 3 16 C0.69 16 -1.62 16 -4 16 C-4 11.38 -4 6.76 -4 2 C-5.98 2.33 -7.96 2.66 -10 3 C-10 6.3 -10 9.6 -10 13 C-9.34 13 -8.68 13 -8 13 C-8 13.99 -8 14.98 -8 16 C-9.98 16 -11.96 16 -14 16 C-14 11.38 -14 6.76 -14 2 C-14.99 2 -15.98 2 -17 2 C-17 1.01 -17 0.02 -17 -1 C-4.15714286 -2.77142857 -4.15714286 -2.77142857 0 0 Z " fill="#3CB64F" transform="translate(42,43)"/>
<path d="M0 0 C2.47923801 -0.02685095 4.9581884 -0.04676547 7.4375 -0.0625 C8.14455078 -0.07087891 8.85160156 -0.07925781 9.58007812 -0.08789062 C11.38693559 -0.09653588 13.19387603 -0.05220011 15 0 C17.29763477 2.29763477 16.45908859 7.78931715 16.62109375 10.8984375 C16.78399964 14.16318346 16.78399964 14.16318346 19 17 C16.625 17.125 16.625 17.125 14 17 C12 15 12 15 11.8046875 12.1796875 C11.82789063 11.08914062 11.85109375 9.99859375 11.875 8.875 C11.89304688 7.77929688 11.91109375 6.68359375 11.9296875 5.5546875 C11.95289063 4.71164063 11.97609375 3.86859375 12 3 C10.35 3.33 8.7 3.66 7 4 C7.14084796 5.79206547 7.28783701 7.58364917 7.4375 9.375 C7.51871094 10.37273438 7.59992188 11.37046875 7.68359375 12.3984375 C7.84965626 14.97927613 7.84965626 14.97927613 9 17 C6.625 17.125 6.625 17.125 4 17 C1.24455169 14.24455169 1.63720145 12.34106623 1.4375 8.5 C1.33592729 4.09066238 1.33592729 4.09066238 0 0 Z " fill="#484E59" transform="translate(163,42)"/>
<path d="M0 0 C2.31 0 4.62 0 7 0 C7 4.29 7 8.58 7 13 C7.66 13 8.32 13 9 13 C9.33 12.01 9.66 11.02 10 10 C10.66 11.98 11.32 13.96 12 16 C19.425 16.99 19.425 16.99 27 18 C27 18.33 27 18.66 27 19 C22.64584756 19.02918634 18.29172052 19.04686145 13.9375 19.0625 C12.70837891 19.07087891 11.47925781 19.07925781 10.21289062 19.08789062 C4.37213863 19.10363389 -1.25197017 19.08469508 -7 18 C-7 17.67 -7 17.34 -7 17 C-4.69 17 -2.38 17 0 17 C0.66 12.71 1.32 8.42 2 4 C1.34 4 0.68 4 0 4 C0 2.68 0 1.36 0 0 Z " fill="#DADDE3" transform="translate(66,42)"/>
<path d="M0 0 C0.66 0 1.32 0 2 0 C2 2.31 2 4.62 2 7 C-0.97 7 -3.94 7 -7 7 C-7 6.01 -7 5.02 -7 4 C-7.66 4 -8.32 4 -9 4 C-9 4.99 -9 5.98 -9 7 C-16.59 7 -24.18 7 -32 7 C-32 5.35 -32 3.7 -32 2 C-21.53680693 0.79839656 -11.47349744 1.23594014 -1 2 C-0.67 1.34 -0.34 0.68 0 0 Z M-19 3 C-18 6 -18 6 -18 6 Z M-14 3 C-13.67 3.99 -13.34 4.98 -13 6 C-13 5.01 -13 4.02 -13 3 C-13.33 3 -13.66 3 -14 3 Z " fill="#1D2A78" transform="translate(120,31)"/>
<path d="M0 0 C1.98 0 3.96 0 6 0 C6.144375 1.134375 6.28875 2.26875 6.4375 3.4375 C6.61171478 6.80777201 6.61171478 6.80777201 8 8 C9.32 5.36 10.64 2.72 12 0 C13.32 0.33 14.64 0.66 16 1 C14.02 5.95 12.04 10.9 10 16 C8.68 16 7.36 16 6 16 C5.18395001 14.0848421 4.37229368 12.16781166 3.5625 10.25 C3.11003906 9.18265625 2.65757812 8.1153125 2.19140625 7.015625 C1.26020447 4.6586159 0.5215928 2.47007165 0 0 Z " fill="#3F4550" transform="translate(136,42)"/>
<path d="M0 0 C3.875 0.875 3.875 0.875 5 2 C6.32 2 7.64 2 9 2 C9 3.65 9 5.3 9 7 C2.4 7 -4.2 7 -11 7 C-11 5.35 -11 3.7 -11 2 C-7.37 2 -3.74 2 0 2 C0 1.34 0 0.68 0 0 Z M-2 4 C-1.34 4.66 -0.68 5.32 0 6 C0 5.34 0 4.68 0 4 C-0.66 4 -1.32 4 -2 4 Z " fill="#1D2A78" transform="translate(174,31)"/>
<path d="M0 0 C1.32 0 2.64 0 4 0 C4 4.62 4 9.24 4 14 C6.64 14 9.28 14 12 14 C12 12.35 12 10.7 12 9 C11.01 9 10.02 9 9 9 C9 6.03 9 3.06 9 0 C10.32 0 11.64 0 13 0 C13.33 4.29 13.66 8.58 14 13 C16.97 13.495 16.97 13.495 20 14 C20 14.33 20 14.66 20 15 C14.39 15 8.78 15 3 15 C1.61773984 12.23547967 1.90474613 9.9538637 1.9375 6.875 C1.94652344 5.77929688 1.95554687 4.68359375 1.96484375 3.5546875 C1.97644531 2.71164063 1.98804688 1.86859375 2 1 C1.34 0.67 0.68 0.34 0 0 Z " fill="#EAEBEC" transform="translate(14,46)"/>
<path d="M0 0 C2 2 2 2 2.3125 4.4375 C2 7 2 7 0.8125 8.875 C-1 10 -1 10 -3.5625 9.8125 C-6 9 -6 9 -8 7 C-7.75 3.4375 -7.75 3.4375 -7 0 C-4.29393021 -1.35303489 -2.8671629 -0.7884698 0 0 Z " fill="#E2E4E1" transform="translate(57,46)"/>
<path d="M0 0 C2.31 0 4.62 0 7 0 C7 4.62 7 9.24 7 14 C7.66 14 8.32 14 9 14 C9 14.99 9 15.98 9 17 C7.02 17 5.04 17 3 17 C3 12.38 3 7.76 3 3 C2.01 3 1.02 3 0 3 C0 2.01 0 1.02 0 0 Z " fill="#1CA98B" transform="translate(66,42)"/>
<path d="M0 0 C1.98 0 3.96 0 6 0 C6.06058594 1.05960938 6.12117187 2.11921875 6.18359375 3.2109375 C6.26800127 4.59897221 6.35264917 5.98699232 6.4375 7.375 C6.47681641 8.07367188 6.51613281 8.77234375 6.55664062 9.4921875 C6.74280134 13.37360492 6.74280134 13.37360492 8 17 C6.02 17 4.04 17 2 17 C1.93941406 15.94039062 1.87882813 14.88078125 1.81640625 13.7890625 C1.73199873 12.40102779 1.64735083 11.01300768 1.5625 9.625 C1.52318359 8.92632812 1.48386719 8.22765625 1.44335938 7.5078125 C1.25719866 3.62639508 1.25719866 3.62639508 0 0 Z " fill="#414752" transform="translate(155,42)"/>
<path d="M0 0 C1.98 0 3.96 0 6 0 C6 4.62 6 9.24 6 14 C6.99 14 7.98 14 9 14 C9 14.99 9 15.98 9 17 C7.02 17 5.04 17 3 17 C3 12.38 3 7.76 3 3 C2.01 3 1.02 3 0 3 C0 2.01 0 1.02 0 0 Z " fill="#DA4598" transform="translate(16,42)"/>
<path d="M0 0 C0.66 0 1.32 0 2 0 C2 2.31 2 4.62 2 7 C-2.29 7 -6.58 7 -11 7 C-11 5.35 -11 3.7 -11 2 C-7.01803543 0.94595055 -4.01804691 1.15901344 0 2 C0 1.34 0 0.68 0 0 Z M-6 3 C-5.67 3.99 -5.34 4.98 -5 6 C-4.67 5.01 -4.34 4.02 -4 3 C-4.66 3 -5.32 3 -6 3 Z " fill="#1D2A78" transform="translate(147,31)"/>
<path d="M0 0 C2.64 0 5.28 0 8 0 C8 0.66 8 1.32 8 2 C10.64 2 13.28 2 16 2 C16.33 2.99 16.66 3.98 17 5 C16.67 5.66 16.34 6.32 16 7 C12.7 7 9.4 7 6 7 C6 5.02 6 3.04 6 1 C5.34 1 4.68 1 4 1 C4 2.98 4 4.96 4 7 C3.67 7 3.34 7 3 7 C3 5.02 3 3.04 3 1 C2.01 0.67 1.02 0.34 0 0 Z " fill="#1D2A78" transform="translate(69,31)"/>
<path d="M0 0 C1 1 1 1 1.1875 3.9375 C1 7 1 7 -1 9 C-3.5 9.25 -3.5 9.25 -6 9 C-6.66 8.34 -7.32 7.68 -8 7 C-7.75 3.4375 -7.75 3.4375 -7 0 C-4.31633121 -1.3418344 -2.84719317 -0.73004953 0 0 Z M-4 1 C-5.10836423 2.88316159 -5.10836423 2.88316159 -6 5 C-5.67 5.66 -5.34 6.32 -5 7 C-3.68 6.67 -2.36 6.34 -1 6 C-1.34786708 4.02463255 -1.34786708 4.02463255 -2 2 C-2.66 1.67 -3.32 1.34 -4 1 Z " fill="#DBDDDF" transform="translate(113,46)"/>
<path d="M0 0 C3.29714793 0.32971479 4.6226839 0.6226839 7 3 C7.25 5.5 7.25 5.5 7 8 C5 10 5 10 2.5 10.25 C0 10 0 10 -2 8 C-2.25 5 -2.25 5 -2 2 C-1.34 1.34 -0.68 0.68 0 0 Z M1 2 C0.67 3.65 0.34 5.3 0 7 C1.32 7.33 2.64 7.66 4 8 C4.33 6.68 4.66 5.36 5 4 C3.68 3.34 2.36 2.68 1 2 Z " fill="#DBDCDE" transform="translate(126,45)"/>
<path d="M0 0 C1 3 1 3 1 6 C1.99 7.485 1.99 7.485 3 9 C2.625 11.1875 2.625 11.1875 2 13 C0.125 12.8125 0.125 12.8125 -2 12 C-3.375 9.8125 -3.375 9.8125 -4 7 C-3.25 3.75 -3.25 3.75 -2 1 C-1.34 0.67 -0.68 0.34 0 0 Z " fill="#DCDEE0" transform="translate(151,46)"/>
<path d="M0 0 C3.3 0 6.6 0 10 0 C10 1.65 10 3.3 10 5 C8.72125 5.144375 7.4425 5.28875 6.125 5.4375 C3.74307106 5.70642746 2.15547309 5.92226346 0 7 C0 4.69 0 2.38 0 0 Z M2 1 C3 4 3 4 3 4 Z M7 1 C7.33 1.99 7.66 2.98 8 4 C8 3.01 8 2.02 8 1 C7.67 1 7.34 1 7 1 Z " fill="#1D2A78" transform="translate(125,33)"/>
<path d="M0 0 C2.16874252 0.50603992 3.99967627 0.99983813 6 2 C10.14503661 2.24787017 10.14503661 2.24787017 14 1 C14 1.66 14 2.32 14 3 C16.31 3 18.62 3 21 3 C21 3.33 21 3.66 21 4 C18.77156512 4.19600577 16.54220107 4.38146569 14.3125 4.5625 C12.45044922 4.71912109 12.45044922 4.71912109 10.55078125 4.87890625 C7.40648607 4.98613744 5.03281643 4.6967281 2 4 C0.56371543 3.93733488 -0.8750555 3.91313653 -2.3125 3.9375 C-3.529375 3.958125 -4.74625 3.97875 -6 4 C-6 3.67 -6 3.34 -6 3 C-4.02 3 -2.04 3 0 3 C0 2.01 0 1.02 0 0 Z " fill="#E8EAEC" transform="translate(45,57)"/>
<path d="M0 0 C0.99 0.33 1.98 0.66 3 1 C2.67 2.65 2.34 4.3 2 6 C-2.62921525 7.0161692 -6.34462607 6.83796731 -11 6 C-11 5.67 -11 5.34 -11 5 C-8.69 5 -6.38 5 -4 5 C-4 4.01 -4 3.02 -4 2 C-4.66 1.67 -5.32 1.34 -6 1 C-5.01 1 -4.02 1 -3 1 C-3 2.32 -3 3.64 -3 5 C-2.01 3.35 -1.02 1.7 0 0 Z " fill="#D6D1DE" transform="translate(97,54)"/>
<path d="M0 0 C3.96 0 7.92 0 12 0 C12 0.33 12 0.66 12 1 C10.35 1.33 8.7 1.66 7 2 C7.33 2.33 7.66 2.66 8 3 C8.07258946 5.18639453 8.08373783 7.37500389 8.0625 9.5625 C8.05347656 10.76003906 8.04445312 11.95757812 8.03515625 13.19140625 C8.02355469 14.11824219 8.01195312 15.04507813 8 16 C7.67 16 7.34 16 7 16 C6.67 12.37 6.34 8.74 6 5 C4.35 5.33 2.7 5.66 1 6 C1.20625 5.38125 1.4125 4.7625 1.625 4.125 C1.74875 3.42375 1.8725 2.7225 2 2 C1.34 1.34 0.68 0.68 0 0 Z " fill="#CACBCF" transform="translate(149,41)"/>
<path d="M0 0 C0.99 0.33 1.98 0.66 3 1 C2.67 2.98 2.34 4.96 2 7 C-0.64 7 -3.28 7 -6 7 C-6 5.35 -6 3.7 -6 2 C-4.02 2 -2.04 2 0 2 C0 1.34 0 0.68 0 0 Z M-4 3 C-3.67 3.99 -3.34 4.98 -3 6 C-3 5.01 -3 4.02 -3 3 C-3.33 3 -3.66 3 -4 3 Z " fill="#1D2A78" transform="translate(158,31)"/>
<path d="M0 0 C0.99 0 1.98 0 3 0 C3 4.62 3 9.24 3 14 C4.98 14 6.96 14 9 14 C9 14.33 9 14.66 9 15 C3.39436958 15.82622671 -1.42289352 16.06795656 -7 15 C-7 14.67 -7 14.34 -7 14 C-4.69 14 -2.38 14 0 14 C0.66 9.71 1.32 5.42 2 1 C1.34 0.67 0.68 0.34 0 0 Z " fill="#BDD8D9" transform="translate(66,45)"/>
<path d="M0 0 C0 0.33 0 0.66 0 1 C-1.051875 1.103125 -2.10375 1.20625 -3.1875 1.3125 C-6.87430754 1.97733415 -8.96638599 2.88566296 -12 5 C-12 4.01 -12 3.02 -12 2 C-12.66 1.34 -13.32 0.68 -14 0 C-4.58997722 -2.66514806 -4.58997722 -2.66514806 0 0 Z " fill="#C9CBCF" transform="translate(131,41)"/>
<path d="M0 0 C0.33 0.99 0.66 1.98 1 3 C4.465 2.505 4.465 2.505 8 2 C7.67 3.32 7.34 4.64 7 6 C4.6875 6.6875 4.6875 6.6875 2 7 C0.125 5.8125 0.125 5.8125 -1 4 C-0.6875 1.8125 -0.6875 1.8125 0 0 Z " fill="#E0E4E6" transform="translate(50,49)"/>
<path d="M0 0 C2.70108504 0.090916 5.36930311 0.23740766 8.0625 0.4375 C9.20041992 0.51581055 9.20041992 0.51581055 10.36132812 0.59570312 C12.24121722 0.72575835 14.12065685 0.86228038 16 1 C16 1.33 16 1.66 16 2 C13.03 2 10.06 2 7 2 C7 2.66 7 3.32 7 4 C4.07120629 3.37240135 1.63904371 2.41377341 -1 1 C-0.67 0.67 -0.34 0.34 0 0 Z " fill="#E7E8E9" transform="translate(128,39)"/>
<path d="M0 0 C-0.875 3.875 -0.875 3.875 -2 5 C-3.66617115 5.04063832 -5.33388095 5.042721 -7 5 C-7 3.68 -7 2.36 -7 1 C-2.25 0 -2.25 0 0 0 Z " fill="#E5E6E7" transform="translate(114,58)"/>
<path d="M0 0 C0.33 0 0.66 0 1 0 C1 4.29 1 8.58 1 13 C-3 9 -3 9 -3.390625 6.859375 C-3.26041667 4.90625 -3.13020833 2.953125 -3 1 C-2.67 1 -2.34 1 -2 1 C-2 2.98 -2 4.96 -2 7 C-1.34 7 -0.68 7 0 7 C0 4.69 0 2.38 0 0 Z " fill="#EAEBEC" transform="translate(67,46)"/>
<path d="M0 0 C1.98 0.495 1.98 0.495 4 1 C3.67 2.32 3.34 3.64 3 5 C1.68 4.67 0.36 4.34 -1 4 C-0.67 2.68 -0.34 1.36 0 0 Z " fill="#3A404B" transform="translate(150,54)"/>
<path d="M0 0 C1.98 0 3.96 0 6 0 C6 0.99 6 1.98 6 3 C4.35 3.33 2.7 3.66 1 4 C0.67 2.68 0.34 1.36 0 0 Z " fill="#E2E0E7" transform="translate(80,52)"/>
<path d="M0 0 C1.98 0.495 1.98 0.495 4 1 C3.67 2.32 3.34 3.64 3 5 C1.68 4.67 0.36 4.34 -1 4 C-0.67 2.68 -0.34 1.36 0 0 Z " fill="#8662AA" transform="translate(18,33)"/>
<path d="M0 0 C0.99 0.33 1.98 0.66 3 1 C3 2.32 3 3.64 3 5 C1.35 4.67 -0.3 4.34 -2 4 C-1.34 2.68 -0.68 1.36 0 0 Z " fill="#434954" transform="translate(97,54)"/>
<path d="M0 0 C4.62 0 9.24 0 14 0 C14 0.33 14 0.66 14 1 C12.06263299 1.16820551 10.12510094 1.33451095 8.1875 1.5 C6.56908203 1.63921875 6.56908203 1.63921875 4.91796875 1.78125 C2 2 2 2 -1 2 C-0.67 1.34 -0.34 0.68 0 0 Z " fill="#E7E8E9" transform="translate(147,40)"/>
<path d="M0 0 C1.65 0.33 3.3 0.66 5 1 C5.33 1.99 5.66 2.98 6 4 C5.34 4.66 4.68 5.32 4 6 C3.67 5.01 3.34 4.02 3 3 C1.68 3 0.36 3 -1 3 C-0.67 2.01 -0.34 1.02 0 0 Z " fill="#E5E4E9" transform="translate(18,31)"/>
<path d="M0 0 C1.32 0.33 2.64 0.66 4 1 C3.67 2.32 3.34 3.64 3 5 C2.01 4.67 1.02 4.34 0 4 C0 2.68 0 1.36 0 0 Z " fill="#F8D01E" transform="translate(52,48)"/>
<path d="M0 0 C2 1 2 1 2 1 Z " fill="#1D2A78" transform="translate(163,31)"/>
<path d="M0 0 C2 1 2 1 2 1 Z " fill="#1D2A78" transform="translate(102,31)"/>
</svg>
