<?xml version="1.0" encoding="UTF-8"?>
<svg version="1.1" xmlns="http://www.w3.org/2000/svg" width="200" height="100">
<path d="M0 0 C2.13920312 1.73906441 3.70565522 3.4777167 4.94140625 5.94921875 C5.60140625 5.94921875 6.26140625 5.94921875 6.94140625 5.94921875 C7.19535156 6.63628906 7.44929688 7.32335938 7.7109375 8.03125 C8.05511719 8.93230469 8.39929688 9.83335938 8.75390625 10.76171875 C9.09035156 11.65503906 9.42679688 12.54835938 9.7734375 13.46875 C10.78205559 15.97509929 10.78205559 15.97509929 12.578125 17.58203125 C13.94140625 18.94921875 13.94140625 18.94921875 13.94140625 22.01171875 C12.94140625 24.94921875 12.94140625 24.94921875 10.37890625 26.32421875 C9.57453125 26.53046875 8.77015625 26.73671875 7.94140625 26.94921875 C8.43640625 27.93921875 8.43640625 27.93921875 8.94140625 28.94921875 C8.94140625 31.38671875 8.94140625 31.38671875 7.94140625 33.94921875 C4.44140625 35.63671875 4.44140625 35.63671875 0.94140625 36.94921875 C0.44640625 37.93921875 0.44640625 37.93921875 -0.05859375 38.94921875 C-1.37859375 38.28921875 -2.69859375 37.62921875 -4.05859375 36.94921875 C-4.71859375 37.93921875 -5.37859375 38.92921875 -6.05859375 39.94921875 C-7.04859375 39.94921875 -8.03859375 39.94921875 -9.05859375 39.94921875 C-9.05859375 40.60921875 -9.05859375 41.26921875 -9.05859375 41.94921875 C-9.71859375 41.94921875 -10.37859375 41.94921875 -11.05859375 41.94921875 C-10.85363281 42.49191406 -10.64867187 43.03460938 -10.4375 43.59375 C-10.16808594 44.30917969 -9.89867187 45.02460937 -9.62109375 45.76171875 C-9.35425781 46.46941406 -9.08742188 47.17710938 -8.8125 47.90625 C-8.19634189 49.57594271 -7.6214014 51.26079579 -7.05859375 52.94921875 C-5.04351017 53.68245671 -5.04351017 53.68245671 -3.05859375 53.94921875 C-2.67640608 55.60536532 -2.34464273 57.27378899 -2.05859375 58.94921875 C-3.61809926 60.50872426 -5.14736506 60.23118573 -7.30859375 60.32421875 C-10.85214121 60.26823854 -11.80285651 60.13953484 -14.74609375 57.94921875 C-15.89078125 56.46421875 -15.89078125 56.46421875 -17.05859375 54.94921875 C-17.58582031 54.27503906 -18.11304688 53.60085937 -18.65625 52.90625 C-22.71200284 47.64240057 -22.71200284 47.64240057 -24.05859375 44.94921875 C-26.16875329 43.82215169 -26.16875329 43.82215169 -28.62109375 42.82421875 C-29.44738281 42.47101562 -30.27367188 42.1178125 -31.125 41.75390625 C-31.76308594 41.48835938 -32.40117188 41.2228125 -33.05859375 40.94921875 C-33.46078125 42.03203125 -33.46078125 42.03203125 -33.87109375 43.13671875 C-35.05859375 45.94921875 -35.05859375 45.94921875 -36.68359375 48.57421875 C-38.30911189 50.92454651 -38.30911189 50.92454651 -38.05859375 53.94921875 C-36.57359375 54.93921875 -36.57359375 54.93921875 -35.05859375 55.94921875 C-35.38859375 57.26921875 -35.71859375 58.58921875 -36.05859375 59.94921875 C-37.6827812 60.03012846 -39.3081112 60.0883687 -40.93359375 60.13671875 C-41.83851562 60.17152344 -42.7434375 60.20632812 -43.67578125 60.2421875 C-44.85527344 60.09716797 -44.85527344 60.09716797 -46.05859375 59.94921875 C-48.43321736 56.38728333 -48.56556921 54.05645473 -48.05859375 49.94921875 C-47.1948015 46.23940577 -46.16563325 42.59322377 -45.05859375 38.94921875 C-46.88390625 39.01109375 -46.88390625 39.01109375 -48.74609375 39.07421875 C-52.31061912 39.08681425 -54.79390223 38.44164916 -58.05859375 36.94921875 C-59.04859375 36.94921875 -60.03859375 36.94921875 -61.05859375 36.94921875 C-62.57455192 40.88043231 -63.97048884 44.59827679 -64.24609375 48.82421875 C-62.76812841 51.46899883 -61.86462347 51.55958299 -59.05859375 52.51171875 C-58.33671875 52.69863281 -57.61484375 52.88554688 -56.87109375 53.078125 C-55.05859375 53.94921875 -55.05859375 53.94921875 -54.30859375 56.0390625 C-54.22609375 56.66941406 -54.14359375 57.29976562 -54.05859375 57.94921875 C-61.91252633 60.56719628 -61.91252633 60.56719628 -66.05859375 58.94921875 C-68.8586925 57.10457776 -71.49288989 55.10698643 -74.05859375 52.94921875 C-74.62964844 52.49675781 -75.20070312 52.04429688 -75.7890625 51.578125 C-77.58174206 49.27797922 -77.3580102 47.63424107 -77.24609375 44.76171875 C-77.20548828 43.41013672 -77.20548828 43.41013672 -77.1640625 42.03125 C-77.12925781 41.34417969 -77.09445313 40.65710937 -77.05859375 39.94921875 C-82.10028538 41.9041604 -87.17346366 44.0750636 -91.05859375 47.94921875 C-91.78734726 50.03210758 -91.78734726 50.03210758 -92.05859375 51.94921875 C-91.25421875 52.38234375 -90.44984375 52.81546875 -89.62109375 53.26171875 C-87.05859375 54.94921875 -87.05859375 54.94921875 -86.05859375 57.94921875 C-88.05859375 59.94921875 -88.05859375 59.94921875 -90.44140625 60.14453125 C-91.79878906 60.10972656 -91.79878906 60.10972656 -93.18359375 60.07421875 C-94.09367187 60.05617187 -95.00375 60.038125 -95.94140625 60.01953125 C-96.64007813 59.99632812 -97.33875 59.973125 -98.05859375 59.94921875 C-101.09761227 54.12443324 -101.41268565 49.46713267 -101.05859375 42.94921875 C-102.38890625 43.28953125 -102.38890625 43.28953125 -103.74609375 43.63671875 C-107.77606552 44.01690477 -108.89177505 43.38523313 -112.05859375 40.94921875 C-118.77672078 34.69979826 -118.77672078 34.69979826 -119.4296875 30.64453125 C-119.60809462 23.73912625 -119.60809462 23.73912625 -117.05859375 20.07421875 C-110.60798004 15.50503404 -105.06127395 13.3969312 -97.18359375 12.88671875 C-92.37193951 12.54662801 -88.09603421 12.03569246 -83.53125 10.421875 C-76.34642625 8.12853592 -68.83778339 8.48680961 -61.37109375 8.44921875 C-41.42453239 8.94651529 -41.42453239 8.94651529 -24.05859375 0.94921875 C-17.38918487 -1.50123997 -6.49303835 -3.31428333 0 0 Z M-113.05859375 22.94921875 C-114.58351373 25.99905871 -114.29421923 28.59155565 -114.05859375 31.94921875 C-112.36441724 34.83928456 -110.89446406 34.99398139 -107.62109375 35.88671875 C-103.87375243 37.00434686 -102.60938395 38.11500742 -100.05859375 40.94921875 C-99.39859375 40.94921875 -98.73859375 40.94921875 -98.05859375 40.94921875 C-97.66027344 39.92441406 -97.26195313 38.89960937 -96.8515625 37.84375 C-96.31663958 36.48298117 -95.78147026 35.12230918 -95.24609375 33.76171875 C-94.98505859 33.08818359 -94.72402344 32.41464844 -94.45507812 31.72070312 C-92.94027338 27.88693802 -91.20779517 24.47958865 -89.05859375 20.94921875 C-89.05859375 20.28921875 -89.05859375 19.62921875 -89.05859375 18.94921875 C-91.74720306 18.84034368 -94.43132533 18.76151281 -97.12109375 18.69921875 C-97.87326172 18.66570313 -98.62542969 18.6321875 -99.40039062 18.59765625 C-105.11880115 18.49863615 -108.36376588 19.65246056 -113.05859375 22.94921875 Z " fill="#292827" transform="translate(153.05859375,21.05078125)"/>
<path d="M0 0 C2.25 2.0625 2.25 2.0625 3.25 4.0625 C3.91 4.0625 4.57 4.0625 5.25 4.0625 C5.50394531 4.74957031 5.75789063 5.43664063 6.01953125 6.14453125 C6.36371094 7.04558594 6.70789063 7.94664063 7.0625 8.875 C7.39894531 9.76832031 7.73539063 10.66164063 8.08203125 11.58203125 C9.09064934 14.08838054 9.09064934 14.08838054 10.88671875 15.6953125 C12.25 17.0625 12.25 17.0625 12.25 20.125 C11.25 23.0625 11.25 23.0625 8.6875 24.4375 C7.883125 24.64375 7.07875 24.85 6.25 25.0625 C6.745 26.0525 6.745 26.0525 7.25 27.0625 C7.25 29.5 7.25 29.5 6.25 32.0625 C2.75 33.75 2.75 33.75 -0.75 35.0625 C-1.245 36.0525 -1.245 36.0525 -1.75 37.0625 C-3.07 36.4025 -4.39 35.7425 -5.75 35.0625 C-6.41 36.0525 -7.07 37.0425 -7.75 38.0625 C-8.74 38.0625 -9.73 38.0625 -10.75 38.0625 C-10.75 38.7225 -10.75 39.3825 -10.75 40.0625 C-11.41 40.0625 -12.07 40.0625 -12.75 40.0625 C-12.54503906 40.60519531 -12.34007812 41.14789063 -12.12890625 41.70703125 C-11.85949219 42.42246094 -11.59007812 43.13789062 -11.3125 43.875 C-11.04566406 44.58269531 -10.77882812 45.29039063 -10.50390625 46.01953125 C-9.88774814 47.68922396 -9.31280765 49.37407704 -8.75 51.0625 C-6.73491642 51.79573796 -6.73491642 51.79573796 -4.75 52.0625 C-4.36781233 53.71864657 -4.03604898 55.38707024 -3.75 57.0625 C-5.30950551 58.62200551 -6.83877131 58.34446698 -9 58.4375 C-12.54354746 58.38151979 -13.49426276 58.25281609 -16.4375 56.0625 C-17.5821875 54.5775 -17.5821875 54.5775 -18.75 53.0625 C-19.27722656 52.38832031 -19.80445313 51.71414062 -20.34765625 51.01953125 C-24.40340909 45.75568182 -24.40340909 45.75568182 -25.75 43.0625 C-27.86015954 41.93543294 -27.86015954 41.93543294 -30.3125 40.9375 C-31.13878906 40.58429687 -31.96507813 40.23109375 -32.81640625 39.8671875 C-33.45449219 39.60164063 -34.09257813 39.33609375 -34.75 39.0625 C-35.1521875 40.1453125 -35.1521875 40.1453125 -35.5625 41.25 C-36.75 44.0625 -36.75 44.0625 -38.375 46.6875 C-40.00051814 49.03782776 -40.00051814 49.03782776 -39.75 52.0625 C-38.76 52.7225 -37.77 53.3825 -36.75 54.0625 C-37.08 55.3825 -37.41 56.7025 -37.75 58.0625 C-39.37418745 58.14340971 -40.99951745 58.20164995 -42.625 58.25 C-43.52992187 58.28480469 -44.43484375 58.31960937 -45.3671875 58.35546875 C-46.54667969 58.21044922 -46.54667969 58.21044922 -47.75 58.0625 C-50.27826571 54.27010144 -50.11444901 52.58166778 -49.75 48.0625 C-48.907415 44.9989973 -47.88074848 42.03071475 -46.75 39.0625 C-45.43 39.3925 -44.11 39.7225 -42.75 40.0625 C-42.75 39.0725 -42.75 38.0825 -42.75 37.0625 C-39.78 36.5675 -39.78 36.5675 -36.75 36.0625 C-36.42 33.0925 -36.09 30.1225 -35.75 27.0625 C-34.43 28.0525 -33.11 29.0425 -31.75 30.0625 C-32.08 26.4325 -32.41 22.8025 -32.75 19.0625 C-33.41 20.0525 -34.07 21.0425 -34.75 22.0625 C-36.3141708 19.51043185 -36.86480919 17.73203084 -36.35546875 14.76171875 C-34.97649864 10.13811308 -34.97649864 10.13811308 -33.75 8.0625 C-31.7578125 7.359375 -31.7578125 7.359375 -29.75 7.0625 C-29.09 6.7325 -28.43 6.4025 -27.75 6.0625 C-27.09 6.3925 -26.43 6.7225 -25.75 7.0625 C-26.41666667 8.39583333 -27.08333333 9.72916667 -27.75 11.0625 C-28.41 11.0625 -29.07 11.0625 -29.75 11.0625 C-29.564375 11.68125 -29.37875 12.3 -29.1875 12.9375 C-28.75 15.0625 -28.75 15.0625 -29.75 17.0625 C-28.76 17.3925 -27.77 17.7225 -26.75 18.0625 C-28.07 18.0625 -29.39 18.0625 -30.75 18.0625 C-30.75 22.0225 -30.75 25.9825 -30.75 30.0625 C-27.12 30.0625 -23.49 30.0625 -19.75 30.0625 C-19.75 28.7425 -19.75 27.4225 -19.75 26.0625 C-19.09 26.0625 -18.43 26.0625 -17.75 26.0625 C-17.75 27.3825 -17.75 28.7025 -17.75 30.0625 C-17.09 30.0625 -16.43 30.0625 -15.75 30.0625 C-15.75 26.4325 -15.75 22.8025 -15.75 19.0625 C-15.09 19.0625 -14.43 19.0625 -13.75 19.0625 C-15.6754644 16.8388932 -15.6754644 16.8388932 -18.75 16.0625 C-19.5625 14.1875 -19.5625 14.1875 -19.75 12.0625 C-19.09 11.0725 -18.43 10.0825 -17.75 9.0625 C-17.09 9.0625 -16.43 9.0625 -15.75 9.0625 C-15.75 8.0725 -15.75 7.0825 -15.75 6.0625 C-15.09 6.0625 -14.43 6.0625 -13.75 6.0625 C-13.255 7.0525 -13.255 7.0525 -12.75 8.0625 C-12.75 7.0725 -12.75 6.0825 -12.75 5.0625 C-12.42 4.7325 -12.09 4.4025 -11.75 4.0625 C-14.225 3.5675 -14.225 3.5675 -16.75 3.0625 C-16.75 1.7425 -16.75 0.4225 -16.75 -0.9375 C-5.52911318 -3.89551156 -5.52911318 -3.89551156 0 0 Z " fill="#4D4C4A" transform="translate(154.75,22.9375)"/>
<path d="M0 0 C0 0.33 0 0.66 0 1 C-4.455 1.495 -4.455 1.495 -9 2 C-9 3.32 -9 4.64 -9 6 C-8.01 5.67 -7.02 5.34 -6 5 C-6 5.66 -6 6.32 -6 7 C-4.68 6.67 -3.36 6.34 -2 6 C-2.66 7.98 -3.32 9.96 -4 12 C-4.99 11.505 -4.99 11.505 -6 11 C-6 10.34 -6 9.68 -6 9 C-6.66 9 -7.32 9 -8 9 C-8 9.99 -8 10.98 -8 12 C-8.515625 12.474375 -9.03125 12.94875 -9.5625 13.4375 C-10.036875 13.953125 -10.51125 14.46875 -11 15 C-10.92393164 17.13803054 -10.92393164 17.13803054 -10 19 C-9.34 19.33 -8.68 19.66 -8 20 C-7.67 19.34 -7.34 18.68 -7 18 C-6.505 19.98 -6.505 19.98 -6 22 C-6.66 22 -7.32 22 -8 22 C-8 25.63 -8 29.26 -8 33 C-8.66 33 -9.32 33 -10 33 C-10 31.68 -10 30.36 -10 29 C-10.66 29 -11.32 29 -12 29 C-12 30.32 -12 31.64 -12 33 C-15.63 33 -19.26 33 -23 33 C-23.02721176 31.10424749 -23.04649136 29.20838021 -23.0625 27.3125 C-23.07410156 26.25675781 -23.08570313 25.20101562 -23.09765625 24.11328125 C-23.00848615 21.27053846 -22.61536166 18.76670477 -22 16 C-22 15.34 -22 14.68 -22 14 C-21.34 14 -20.68 14 -20 14 C-20.495 12.515 -20.495 12.515 -21 11 C-20.67 10.67 -20.34 10.34 -20 10 C-20.61875 10.350625 -21.2375 10.70125 -21.875 11.0625 C-22.57625 11.371875 -23.2775 11.68125 -24 12 C-24.66 11.67 -25.32 11.34 -26 11 C-26.144375 11.9075 -26.28875 12.815 -26.4375 13.75 C-27 17 -27 17 -27.625 19.25 C-28.2114853 21.0976086 -28.2114853 21.0976086 -27 23 C-26.34 22.34 -25.68 21.68 -25 21 C-24 22 -24 22 -23.90234375 24.50390625 C-23.91394531 25.51324219 -23.92554688 26.52257812 -23.9375 27.5625 C-23.94652344 28.57441406 -23.95554688 29.58632813 -23.96484375 30.62890625 C-23.97644531 31.41136719 -23.98804688 32.19382813 -24 33 C-24.99 32.67 -25.98 32.34 -27 32 C-27.33 32.99 -27.66 33.98 -28 35 C-27.01 35.495 -27.01 35.495 -26 36 C-26.99 36 -27.98 36 -29 36 C-29 36.99 -29 37.98 -29 39 C-31.97 39.495 -31.97 39.495 -35 40 C-35 40.99 -35 41.98 -35 43 C-36.32 42.67 -37.64 42.34 -39 42 C-39 41.34 -39 40.68 -39 40 C-40.8253125 40.061875 -40.8253125 40.061875 -42.6875 40.125 C-46.21894127 40.13754508 -48.80003566 39.59998217 -52 38 C-51.505 37.54625 -51.01 37.0925 -50.5 36.625 C-48.77390663 35.12364481 -48.77390663 35.12364481 -49 33 C-50.65 33 -52.3 33 -54 33 C-54 29.04 -54 25.08 -54 21 C-52.02 21 -50.04 21 -48 21 C-47.67 22.65 -47.34 24.3 -47 26 C-46.34 26 -45.68 26 -45 26 C-45 24.35 -45 22.7 -45 21 C-43.02 21 -41.04 21 -39 21 C-39 20.34 -39 19.68 -39 19 C-41.31 18.34 -43.62 17.68 -46 17 C-46.66 17.99 -47.32 18.98 -48 20 C-48.5775 19.814375 -49.155 19.62875 -49.75 19.4375 C-51.96319375 18.82930802 -51.96319375 18.82930802 -53.9375 19.5625 C-56.81956049 20.17384616 -58.42567209 19.32195217 -61 18 C-61.33 17.34 -61.66 16.68 -62 16 C-64.3140622 15.26924352 -66.64828869 14.59861742 -69 14 C-68.67 13.34 -68.34 12.68 -68 12 C-70.31 12 -72.62 12 -75 12 C-71.26690239 9.51126826 -69.25753188 9.73327622 -64.796875 9.69140625 C-63.32551784 9.66618991 -61.85416376 9.64079296 -60.3828125 9.61523438 C-58.0862762 9.58685512 -55.78979597 9.56283149 -53.49316406 9.54370117 C-34.4951245 9.80393264 -34.4951245 9.80393264 -18 2 C-12.17352286 -0.01502961 -6.10801366 -0.22622273 0 0 Z " fill="#4F4D49" transform="translate(147,20)"/>
<path d="M0 0 C2.25 2.0625 2.25 2.0625 3.25 4.0625 C3.91 4.0625 4.57 4.0625 5.25 4.0625 C5.50394531 4.74957031 5.75789063 5.43664063 6.01953125 6.14453125 C6.36371094 7.04558594 6.70789063 7.94664063 7.0625 8.875 C7.39894531 9.76832031 7.73539063 10.66164063 8.08203125 11.58203125 C9.09064934 14.08838054 9.09064934 14.08838054 10.88671875 15.6953125 C12.25 17.0625 12.25 17.0625 12.25 20.125 C11.25 23.0625 11.25 23.0625 8.6875 24.4375 C7.883125 24.64375 7.07875 24.85 6.25 25.0625 C6.58 25.7225 6.91 26.3825 7.25 27.0625 C7.25 29.5 7.25 29.5 6.25 32.0625 C2.75 33.75 2.75 33.75 -0.75 35.0625 C-1.08 35.7225 -1.41 36.3825 -1.75 37.0625 C-2.6471875 36.5365625 -2.6471875 36.5365625 -3.5625 36 C-5.85813214 34.72945302 -5.85813214 34.72945302 -8.75 36.0625 C-9.08 34.0825 -9.41 32.1025 -9.75 30.0625 C-10.41 30.7225 -11.07 31.3825 -11.75 32.0625 C-14.875 32.1875 -14.875 32.1875 -17.75 32.0625 C-18.08 31.4025 -18.41 30.7425 -18.75 30.0625 C-17.76 30.0625 -16.77 30.0625 -15.75 30.0625 C-15.75 26.4325 -15.75 22.8025 -15.75 19.0625 C-15.09 19.0625 -14.43 19.0625 -13.75 19.0625 C-15.6754644 16.8388932 -15.6754644 16.8388932 -18.75 16.0625 C-19.5625 14.1875 -19.5625 14.1875 -19.75 12.0625 C-19.09 11.0725 -18.43 10.0825 -17.75 9.0625 C-17.09 9.0625 -16.43 9.0625 -15.75 9.0625 C-15.75 8.0725 -15.75 7.0825 -15.75 6.0625 C-15.09 6.0625 -14.43 6.0625 -13.75 6.0625 C-13.42 6.7225 -13.09 7.3825 -12.75 8.0625 C-12.75 7.0725 -12.75 6.0825 -12.75 5.0625 C-12.42 4.7325 -12.09 4.4025 -11.75 4.0625 C-13.4 3.7325 -15.05 3.4025 -16.75 3.0625 C-16.75 1.7425 -16.75 0.4225 -16.75 -0.9375 C-5.52911318 -3.89551156 -5.52911318 -3.89551156 0 0 Z " fill="#363432" transform="translate(154.75,22.9375)"/>
<path d="M0 0 C0.99 0.33 1.98 0.66 3 1 C3 1.66 3 2.32 3 3 C3.66 3 4.32 3 5 3 C5.33 2.01 5.66 1.02 6 0 C10.95 0 15.9 0 21 0 C20.93489583 3.28776042 20.86979167 6.57552083 20.8046875 9.86328125 C20.74679382 13.16393661 20.74679382 13.16393661 23 16 C22.54625 16.350625 22.0925 16.70125 21.625 17.0625 C18.76007855 20.47836788 18.07394063 24.37330608 17.875 28.75 C19.28056066 31.56112133 20.09944125 31.59044895 23 32.5625 C24.0828125 32.84287109 24.0828125 32.84287109 25.1875 33.12890625 C27 34 27 34 27.75 36.08984375 C27.8325 36.72019531 27.915 37.35054687 28 38 C20.14606742 40.61797753 20.14606742 40.61797753 16 39 C13.19990125 37.15535901 10.56570386 35.15776768 8 33 C7.42894531 32.54753906 6.85789062 32.09507813 6.26953125 31.62890625 C4.47685169 29.32876047 4.70058355 27.68502232 4.8125 24.8125 C4.85310547 23.46091797 4.85310547 23.46091797 4.89453125 22.08203125 C4.92933594 21.39496094 4.96414062 20.70789063 5 20 C3.02 20.33 1.04 20.66 -1 21 C0 19 0 19 3 18 C5.3293081 15.75503458 5.3293081 15.75503458 7 13 C6.87436418 10.73575649 6.87436418 10.73575649 6 9 C5.01 9 4.02 9 3 9 C2.67 9.99 2.34 10.98 2 12 C1.34 12 0.68 12 0 12 C0 8.04 0 4.08 0 0 Z " fill="#767473" transform="translate(71,41)"/>
<path d="M0 0 C0 0.33 0 0.66 0 1 C-4.455 1.495 -4.455 1.495 -9 2 C-9 3.32 -9 4.64 -9 6 C-8.01 5.67 -7.02 5.34 -6 5 C-6 5.66 -6 6.32 -6 7 C-4.68 6.67 -3.36 6.34 -2 6 C-2.66 7.98 -3.32 9.96 -4 12 C-4.66 11.67 -5.32 11.34 -6 11 C-6 10.34 -6 9.68 -6 9 C-6.66 9 -7.32 9 -8 9 C-8 9.99 -8 10.98 -8 12 C-8.515625 12.474375 -9.03125 12.94875 -9.5625 13.4375 C-10.036875 13.953125 -10.51125 14.46875 -11 15 C-10.92393164 17.13803054 -10.92393164 17.13803054 -10 19 C-9.34 19.33 -8.68 19.66 -8 20 C-7.67 19.34 -7.34 18.68 -7 18 C-6.67 19.32 -6.34 20.64 -6 22 C-6.66 22 -7.32 22 -8 22 C-8 25.63 -8 29.26 -8 33 C-8.66 33 -9.32 33 -10 33 C-10 31.68 -10 30.36 -10 29 C-10.66 29 -11.32 29 -12 29 C-12 30.32 -12 31.64 -12 33 C-15.63 33 -19.26 33 -23 33 C-23.02721176 31.10424749 -23.04649136 29.20838021 -23.0625 27.3125 C-23.07410156 26.25675781 -23.08570312 25.20101562 -23.09765625 24.11328125 C-23.00848615 21.27053846 -22.61536166 18.76670477 -22 16 C-22 15.34 -22 14.68 -22 14 C-21.34 14 -20.68 14 -20 14 C-20.33 13.01 -20.66 12.02 -21 11 C-20.67 10.67 -20.34 10.34 -20 10 C-20.61875 10.350625 -21.2375 10.70125 -21.875 11.0625 C-22.57625 11.371875 -23.2775 11.68125 -24 12 C-24.66 11.67 -25.32 11.34 -26 11 C-26.144375 11.9075 -26.28875 12.815 -26.4375 13.75 C-27 17 -27 17 -27.625 19.25 C-28.2114853 21.0976086 -28.2114853 21.0976086 -27 23 C-26.34 22.34 -25.68 21.68 -25 21 C-24 22 -24 22 -23.90234375 24.50390625 C-23.91394531 25.51324219 -23.92554687 26.52257812 -23.9375 27.5625 C-23.94652344 28.57441406 -23.95554687 29.58632813 -23.96484375 30.62890625 C-23.97644531 31.41136719 -23.98804687 32.19382813 -24 33 C-27 33 -30 33 -33 33 C-33.08107583 31.06318839 -33.13922475 29.1254066 -33.1875 27.1875 C-33.23970703 25.56908203 -33.23970703 25.56908203 -33.29296875 23.91796875 C-33 21 -33 21 -31.48828125 19.11328125 C-30.99714844 18.74589844 -30.50601563 18.37851562 -30 18 C-30.66 18 -31.32 18 -32 18 C-32 17.34 -32 16.68 -32 16 C-31.01 16 -30.02 16 -29 16 C-28.67 14.68 -28.34 13.36 -28 12 C-28.66 12 -29.32 12 -30 12 C-30.33 12.66 -30.66 13.32 -31 14 C-33.475 13.01 -33.475 13.01 -36 12 C-32.40356103 9.60237402 -28.64789585 8.03357657 -24.69140625 6.31640625 C-22.00687396 5.11563189 -22.00687396 5.11563189 -19.94921875 3.4140625 C-14.50785418 -0.53338034 -6.46290273 -0.23936677 0 0 Z " fill="#42413E" transform="translate(147,20)"/>
<path d="M0 0 C-0.33 0.33 -0.66 0.66 -1 1 C0.7015625 1.680625 0.7015625 1.680625 2.4375 2.375 C6 4 6 4 7 6 C9.3140622 6.73075648 11.64828869 7.40138258 14 8 C14.33 7.34 14.66 6.68 15 6 C15.639375 6.185625 16.27875 6.37125 16.9375 6.5625 C17.9584375 6.7790625 17.9584375 6.7790625 19 7 C19.33 6.67 19.66 6.34 20 6 C19.34 5.34 18.68 4.68 18 4 C22.05606165 4.46800711 25.46588679 4.87953208 29 7 C28.67 7.99 28.34 8.98 28 10 C27.01 9.67 26.02 9.34 25 9 C25 11.64 25 14.28 25 17 C24.67 17 24.34 17 24 17 C24 14.36 24 11.72 24 9 C23.34 9 22.68 9 22 9 C22 10.65 22 12.3 22 14 C21.34 14 20.68 14 20 14 C19.505 11.525 19.505 11.525 19 9 C17.02 9 15.04 9 13 9 C13 12.96 13 16.92 13 21 C14.65 21 16.3 21 18 21 C18.495 22.485 18.495 22.485 19 24 C17.35 24.33 15.7 24.66 14 25 C11.25851539 21.89779373 10.6270016 19.99544625 10.75 15.875 C10.76546875 15.00617187 10.7809375 14.13734375 10.796875 13.2421875 C11 11 11 11 12 9 C9.51979503 9.11341491 7.04155031 9.24014686 4.5625 9.375 C3.85544922 9.4059375 3.14839844 9.436875 2.41992188 9.46875 C0.60760812 9.57280629 -1.19817988 9.77919892 -3 10 C-3.33 10.66 -3.66 11.32 -4 12 C-4.66 12 -5.32 12 -6 12 C-6.99 11.01 -7.98 10.02 -9 9 C-9 12.96 -9 16.92 -9 21 C-8.34 21 -7.68 21 -7 21 C-6.67 19.68 -6.34 18.36 -6 17 C-5.01 17.33 -4.02 17.66 -3 18 C-3 18.99 -3 19.98 -3 21 C-2.34 21.33 -1.68 21.66 -1 22 C-4.33562767 26.51290803 -6.33289301 28.68206814 -12 30 C-14.52259061 28.02579865 -14.9929808 27.03254358 -15.6875 23.8125 C-15.790625 22.884375 -15.89375 21.95625 -16 21 C-16.99 21.33 -17.98 21.66 -19 22 C-20.125 18.25 -20.125 18.25 -19 16 C-18.34 16 -17.68 16 -17 16 C-17 14.02 -17 12.04 -17 10 C-16.34 10 -15.68 10 -15 10 C-14.67 8.68 -14.34 7.36 -14 6 C-14.99 5.67 -15.98 5.34 -17 5 C-17 4.34 -17 3.68 -17 3 C-15.35 3.33 -13.7 3.66 -12 4 C-11.67 3.01 -11.34 2.02 -11 1 C-7.08609399 -0.47694566 -4.00565371 -1.60226148 0 0 Z " fill="#3D3C39" transform="translate(80,32)"/>
<path d="M0 0 C0.99 0.33 1.98 0.66 3 1 C2.33333333 2.33333333 1.66666667 3.66666667 1 5 C0.34 5 -0.32 5 -1 5 C-0.814375 5.61875 -0.62875 6.2375 -0.4375 6.875 C0 9 0 9 -1 11 C-0.01 11.33 0.98 11.66 2 12 C0.68 12 -0.64 12 -2 12 C-2 15.96 -2 19.92 -2 24 C0.97 24 3.94 24 7 24 C6.25 26.4375 6.25 26.4375 5 29 C2.875 29.8125 2.875 29.8125 1 30 C0.67 29.34 0.34 28.68 0 28 C-4.2262879 30.81752526 -6.07251708 33.59055914 -8.10546875 38.09765625 C-9 40 -9 40 -11 43 C-11 43.99 -11 44.98 -11 46 C-10.01 46.66 -9.02 47.32 -8 48 C-8.33 49.32 -8.66 50.64 -9 52 C-10.62418745 52.08090971 -12.24951745 52.13914995 -13.875 52.1875 C-14.77992187 52.22230469 -15.68484375 52.25710937 -16.6171875 52.29296875 C-17.79667969 52.14794922 -17.79667969 52.14794922 -19 52 C-21.52826571 48.20760144 -21.36444901 46.51916778 -21 42 C-20.157415 38.9364973 -19.13074848 35.96821475 -18 33 C-16.68 33.33 -15.36 33.66 -14 34 C-14 33.01 -14 32.02 -14 31 C-12.02 30.67 -10.04 30.34 -8 30 C-7.505 25.545 -7.505 25.545 -7 21 C-5.68 21.99 -4.36 22.98 -3 24 C-3.33 20.37 -3.66 16.74 -4 13 C-4.99 14.485 -4.99 14.485 -6 16 C-7.5641708 13.44793185 -8.11480919 11.66953084 -7.60546875 8.69921875 C-6.22649864 4.07561308 -6.22649864 4.07561308 -5 2 C-2.9453125 1.296875 -2.9453125 1.296875 -1 1 C-0.67 0.67 -0.34 0.34 0 0 Z " fill="#403E3C" transform="translate(126,29)"/>
<path d="M0 0 C-0.66 0 -1.32 0 -2 0 C-2.33 1.32 -2.66 2.64 -3 4 C-4.65 3.34 -6.3 2.68 -8 2 C-7.01 2.99 -6.02 3.98 -5 5 C-5.66 6.32 -6.32 7.64 -7 9 C-7 8.34 -7 7.68 -7 7 C-9.70979124 7.08750996 -12.41650748 7.19444893 -15.125 7.3125 C-16.26582031 7.34633789 -16.26582031 7.34633789 -17.4296875 7.38085938 C-22.28361499 7.61100249 -25.78767086 8.34268956 -30 11 C-31.50662097 14.01324195 -31.17770373 16.68286377 -31 20 C-29.02833247 22.30505045 -29.02833247 22.30505045 -25.5 22.9375 C-22 24 -22 24 -20 27 C-20.99 27 -21.98 27 -23 27 C-23.33 26.67 -23.66 26.34 -24 26 C-24.66 27.32 -25.32 28.64 -26 30 C-23.36 30 -20.72 30 -18 30 C-17.67 33.96 -17.34 37.92 -17 42 C-17.66 41.67 -18.32 41.34 -19 41 C-19 37.7 -19 34.4 -19 31 C-20.3303125 31.3403125 -20.3303125 31.3403125 -21.6875 31.6875 C-25.71747177 32.06768602 -26.8331813 31.43601438 -30 29 C-36.71812703 22.75057951 -36.71812703 22.75057951 -37.37109375 18.6953125 C-37.54950087 11.7899075 -37.54950087 11.7899075 -35 8.125 C-28.41851023 3.46311141 -22.71900176 1.40471513 -14.6875 0.8125 C-1.09082157 -0.36360719 -1.09082157 -0.36360719 0 0 Z " fill="#676765" transform="translate(71,33)"/>
<path d="M0 0 C0.45375 0.495 0.9075 0.99 1.375 1.5 C2.87635519 3.22609337 2.87635519 3.22609337 5 3 C5.25394531 3.68707031 5.50789062 4.37414062 5.76953125 5.08203125 C6.11371094 5.98308594 6.45789063 6.88414063 6.8125 7.8125 C7.14894531 8.70582031 7.48539063 9.59914063 7.83203125 10.51953125 C8.84064934 13.02588054 8.84064934 13.02588054 10.63671875 14.6328125 C12 16 12 16 12 19.0625 C11 22 11 22 8.4375 23.375 C7.633125 23.58125 6.82875 23.7875 6 24 C6.33 24.66 6.66 25.32 7 26 C7 28.4375 7 28.4375 6 31 C2.5 32.6875 2.5 32.6875 -1 34 C-1.33 34.66 -1.66 35.32 -2 36 C-4.4375 35.1875 -4.4375 35.1875 -7 34 C-7.495 32.515 -7.495 32.515 -8 31 C-7.34 30.34 -6.68 29.68 -6 29 C-6 29.66 -6 30.32 -6 31 C-5.34 31 -4.68 31 -4 31 C-4 30.34 -4 29.68 -4 29 C-3.34 28.34 -2.68 27.68 -2 27 C-2.5053125 26.44570313 -3.010625 25.89140625 -3.53125 25.3203125 C-4.1809375 24.59585938 -4.830625 23.87140625 -5.5 23.125 C-6.1496875 22.40570313 -6.799375 21.68640625 -7.46875 20.9453125 C-9 19 -9 19 -9 17 C-7.35 16.34 -5.7 15.68 -4 15 C-3.01 16.485 -3.01 16.485 -2 18 C-1.01 17.67 -0.02 17.34 1 17 C1 16.01 1 15.02 1 14 C1.66 14 2.32 14 3 14 C3 12.02 3 10.04 3 8 C-1.455 9.485 -1.455 9.485 -6 11 C-5.67 10.01 -5.34 9.02 -5 8 C-2.9375 7.3125 -2.9375 7.3125 -1 7 C-0.67 4.69 -0.34 2.38 0 0 Z " fill="#403E3C" transform="translate(155,24)"/>
<path d="M0 0 C0.99 0.33 1.98 0.66 3 1 C3 1.66 3 2.32 3 3 C3.66 3 4.32 3 5 3 C5.33 2.01 5.66 1.02 6 0 C8.97 0 11.94 0 15 0 C15 3.96 15 7.92 15 12 C16.32 12.33 17.64 12.66 19 13 C19.33 13.66 19.66 14.32 20 15 C19.01 15.495 19.01 15.495 18 16 C18 18.31 18 20.62 18 23 C16.68 22.67 15.36 22.34 14 22 C14 21.34 14 20.68 14 20 C9.93975679 22.03802135 9.93975679 22.03802135 8 26 C7.34 25.34 6.68 24.68 6 24 C6 22.68 6 21.36 6 20 C3.69 20.33 1.38 20.66 -1 21 C0 19 0 19 3 18 C5.3293081 15.75503458 5.3293081 15.75503458 7 13 C6.87436418 10.73575649 6.87436418 10.73575649 6 9 C5.01 9 4.02 9 3 9 C2.67 9.99 2.34 10.98 2 12 C1.34 12 0.68 12 0 12 C0 8.04 0 4.08 0 0 Z " fill="#72726F" transform="translate(71,41)"/>
<path d="M0 0 C1.98 0 3.96 0 6 0 C6.33 1.65 6.66 3.3 7 5 C7.66 5 8.32 5 9 5 C9 3.35 9 1.7 9 0 C11.97 0 14.94 0 18 0 C17.98839844 1.25296875 17.97679688 2.5059375 17.96484375 3.796875 C17.95546284 5.44791517 17.94636296 7.09895696 17.9375 8.75 C17.92912109 9.575 17.92074219 10.4 17.91210938 11.25 C17.90888672 12.04921875 17.90566406 12.8484375 17.90234375 13.671875 C17.89710693 14.4050293 17.89187012 15.13818359 17.88647461 15.89355469 C18.0024891 18.0461849 18.40926729 19.9314135 19 22 C17.68 21.67 16.36 21.34 15 21 C15 20.34 15 19.68 15 19 C13.783125 19.04125 12.56625 19.0825 11.3125 19.125 C7.78105873 19.13754508 5.19996434 18.59998217 2 17 C2.7425 16.319375 2.7425 16.319375 3.5 15.625 C5.22609337 14.12364481 5.22609337 14.12364481 5 12 C3.35 12 1.7 12 0 12 C0 8.04 0 4.08 0 0 Z " fill="#82817F" transform="translate(93,41)"/>
<path d="M0 0 C0.66 0 1.32 0 2 0 C2 1.65 2 3.3 2 5 C4.91652174 5.16681109 4.91652174 5.16681109 8 5 C8.66 4.34 9.32 3.68 10 3 C12 8.625 12 8.625 12 12 C11.01 12 10.02 12 9 12 C9 12.66 9 13.32 9 14 C8.34 14 7.68 14 7 14 C7.33 15.98 7.66 17.96 8 20 C6.02 20.33 4.04 20.66 2 21 C1.87625 20.236875 1.7525 19.47375 1.625 18.6875 C1.11897208 15.79732864 1.11897208 15.79732864 -1 13 C0.65 13.33 2.3 13.66 4 14 C3.67 11.69 3.34 9.38 3 7 C2.01 7 1.02 7 0 7 C0 7.66 0 8.32 0 9 C0.66 9.33 1.32 9.66 2 10 C-0.64 10.33 -3.28 10.66 -6 11 C-5.67 12.98 -5.34 14.96 -5 17 C-9.95 15.02 -9.95 15.02 -15 13 C-10.25 8.125 -10.25 8.125 -8 7 C-7.67 7.66 -7.34 8.32 -7 9 C-6.01 9 -5.02 9 -4 9 C-3.34 7.35 -2.68 5.7 -2 4 C-1.34 4 -0.68 4 0 4 C0 2.68 0 1.36 0 0 Z " fill="#5B5957" transform="translate(135,49)"/>
<path d="M0 0 C1.32 0.66 2.64 1.32 4 2 C3.67 2.66 3.34 3.32 3 4 C3.99 4 4.98 4 6 4 C6 3.01 6 2.02 6 1 C7.98 0.67 9.96 0.34 12 0 C10.98339559 2.73701187 9.91603244 5.13563991 8.375 7.625 C6.74948186 9.97532776 6.74948186 9.97532776 7 13 C7.99 13.66 8.98 14.32 10 15 C9.67 16.32 9.34 17.64 9 19 C7.37581255 19.08090971 5.75048255 19.13914995 4.125 19.1875 C3.22007813 19.22230469 2.31515625 19.25710937 1.3828125 19.29296875 C0.20332031 19.14794922 0.20332031 19.14794922 -1 19 C-3.52826571 15.20760144 -3.36444901 13.51916778 -3 9 C-2.157415 5.9364973 -1.13074848 2.96821475 0 0 Z " fill="#52514F" transform="translate(108,62)"/>
<path d="M0 0 C1.45945288 0.08708669 2.91765868 0.19526907 4.375 0.3125 C5.59316406 0.39951172 5.59316406 0.39951172 6.8359375 0.48828125 C9 1 9 1 11 4 C14.55672179 5.2188121 14.55672179 5.2188121 18 6 C18.33 5.34 18.66 4.68 19 4 C19.639375 4.185625 20.27875 4.37125 20.9375 4.5625 C21.9584375 4.7790625 21.9584375 4.7790625 23 5 C23.33 4.67 23.66 4.34 24 4 C23.34 3.34 22.68 2.68 22 2 C26.05606165 2.46800711 29.46588679 2.87953208 33 5 C32.67 5.99 32.34 6.98 32 8 C31.01 7.67 30.02 7.34 29 7 C29 9.64 29 12.28 29 15 C28.67 15 28.34 15 28 15 C28 12.36 28 9.72 28 7 C27.34 7 26.68 7 26 7 C26 8.65 26 10.3 26 12 C25.34 12 24.68 12 24 12 C23.67 10.35 23.34 8.7 23 7 C21.02 7 19.04 7 17 7 C17 10.96 17 14.92 17 19 C18.65 19 20.3 19 22 19 C22.33 19.99 22.66 20.98 23 22 C21.35 22.33 19.7 22.66 18 23 C15.25851539 19.89779373 14.6270016 17.99544625 14.75 13.875 C14.76546875 13.00617187 14.7809375 12.13734375 14.796875 11.2421875 C15 9 15 9 16 7 C15.09636719 7.05800781 14.19273438 7.11601563 13.26171875 7.17578125 C12.08222656 7.22089844 10.90273437 7.26601563 9.6875 7.3125 C8.51574219 7.37050781 7.34398438 7.42851563 6.13671875 7.48828125 C3 7 3 7 1.08203125 4.60546875 C0 2 0 2 0 0 Z " fill="#242321" transform="translate(76,34)"/>
<path d="M0 0 C0.33 1.32 0.66 2.64 1 4 C0.34 4 -0.32 4 -1 4 C-1 5.65 -1 7.3 -1 9 C-0.01 9 0.98 9 2 9 C2.33 9.66 2.66 10.32 3 11 C3.99 11.66 4.98 12.32 6 13 C5.01 13 4.02 13 3 13 C3 13.66 3 14.32 3 15 C3.99 15.33 4.98 15.66 6 16 C6 16.66 6 17.32 6 18 C6.66 18.33 7.32 18.66 8 19 C5.38485683 21.12038635 2.80362384 23.13091744 0 25 C-0.72382467 27.05925139 -0.72382467 27.05925139 -1 29 C-0.01 29.66 0.98 30.32 2 31 C1.01 31.33 0.02 31.66 -1 32 C-1 32.99 -1 33.98 -1 35 C-1.66 34.67 -2.32 34.34 -3 34 C-3 33.01 -3 32.02 -3 31 C-4.32 30.34 -5.64 29.68 -7 29 C-7 28.34 -7 27.68 -7 27 C-6.01 26.67 -5.02 26.34 -4 26 C-1.77068176 24.18739868 -1.77068176 24.18739868 0 22 C0 21.01 0 20.02 0 19 C-2.31 18.67 -4.62 18.34 -7 18 C-6.44380331 13.3110507 -5.11817327 9.80075733 -2.9375 5.625 C-2.38964844 4.56539062 -1.84179688 3.50578125 -1.27734375 2.4140625 C-0.85582031 1.61742187 -0.43429688 0.82078125 0 0 Z " fill="#4A4947" transform="translate(62,44)"/>
<path d="M0 0 C-0.33 0.66 -0.66 1.32 -1 2 C-0.34 2.33 0.32 2.66 1 3 C0.01 3.495 0.01 3.495 -1 4 C-1.66 3.67 -2.32 3.34 -3 3 C-3.2165625 4.36125 -3.2165625 4.36125 -3.4375 5.75 C-4 9 -4 9 -4.625 11.25 C-5.2114853 13.0976086 -5.2114853 13.0976086 -4 15 C-3.34 14.34 -2.68 13.68 -2 13 C-1 14 -1 14 -0.90234375 16.50390625 C-0.91394531 17.51324219 -0.92554687 18.52257812 -0.9375 19.5625 C-0.94652344 20.57441406 -0.95554687 21.58632813 -0.96484375 22.62890625 C-0.97644531 23.41136719 -0.98804687 24.19382812 -1 25 C-4 25 -7 25 -10 25 C-10.08107583 23.06318839 -10.13922475 21.1254066 -10.1875 19.1875 C-10.23970703 17.56908203 -10.23970703 17.56908203 -10.29296875 15.91796875 C-10 13 -10 13 -8.48828125 11.11328125 C-7.99714844 10.74589844 -7.50601563 10.37851562 -7 10 C-7.66 10 -8.32 10 -9 10 C-9 9.34 -9 8.68 -9 8 C-8.01 8 -7.02 8 -6 8 C-5.67 6.68 -5.34 5.36 -5 4 C-5.66 4 -6.32 4 -7 4 C-7.33 4.66 -7.66 5.32 -8 6 C-10.475 5.01 -10.475 5.01 -13 4 C-4.66666667 -1.55555556 -4.66666667 -1.55555556 0 0 Z " fill="#8B8A88" transform="translate(124,28)"/>
<path d="M0 0 C0.66 0 1.32 0 2 0 C1.67 1.32 1.34 2.64 1 4 C0.01 4 -0.98 4 -2 4 C-2 4.66 -2 5.32 -2 6 C-1.34 6 -0.68 6 0 6 C-0.33 6.99 -0.66 7.98 -1 9 C-1.66 9 -2.32 9 -3 9 C-3 12.96 -3 16.92 -3 21 C-2.34 21 -1.68 21 -1 21 C-1 17.37 -1 13.74 -1 10 C-0.67 10 -0.34 10 0 10 C0 13.63 0 17.26 0 21 C0.66 21 1.32 21 2 21 C2 21.66 2 22.32 2 23 C2.66 23.33 3.32 23.66 4 24 C3.01 24 2.02 24 1 24 C1 24.99 1 25.98 1 27 C-1.31 27.66 -3.62 28.32 -6 29 C-7.15810527 26.68378946 -7.11539372 25.36345162 -7.09765625 22.7890625 C-7.09443359 21.95632812 -7.09121094 21.12359375 -7.08789062 20.265625 C-7.07951172 19.39421875 -7.07113281 18.5228125 -7.0625 17.625 C-7.05798828 16.76132812 -7.05347656 15.89765625 -7.04882812 15.0078125 C-7.0401117 13.39402911 -7.02934265 11.78025459 -7.01586914 10.16650391 C-7.00081342 8.11105094 -7 6.05550811 -7 4 C-7.66 3.67 -8.32 3.34 -9 3 C-5.8035914 1.93453047 -3.34252724 1.92572162 0 2 C0 1.34 0 0.68 0 0 Z " fill="#444240" transform="translate(117,32)"/>
<path d="M0 0 C3.08919284 0.34324365 4.61414697 0.6008417 6.8125 2.875 C9.45780139 5.44472135 11.79638076 6.10769921 15.29296875 7.09375 C17 8 17 8 17.73828125 10.09375 C17.82464844 10.7228125 17.91101563 11.351875 18 12 C10.14606742 14.61797753 10.14606742 14.61797753 6 13 C2.40721316 10.61177154 -0.94804769 8.05195231 -4 5 C-4 4.01 -4 3.02 -4 2 C-3.34 2 -2.68 2 -2 2 C-2 2.66 -2 3.32 -2 4 C-1.01 4 -0.02 4 1 4 C0.67 2.68 0.34 1.36 0 0 Z " fill="#676563" transform="translate(81,67)"/>
<path d="M0 0 C3.26008643 3.16952847 6.22237877 6.39937989 9 10 C8.01 10.33 7.02 10.66 6 11 C6 11.66 6 12.32 6 13 C5.01 13 4.02 13 3 13 C2.67 14.32 2.34 15.64 2 17 C1.67 17 1.34 17 1 17 C0.67 15.02 0.34 13.04 0 11 C-0.66 11.66 -1.32 12.32 -2 13 C-5.125 13.125 -5.125 13.125 -8 13 C-8.33 12.34 -8.66 11.68 -9 11 C-8.01 11 -7.02 11 -6 11 C-6 9.02 -6 7.04 -6 5 C-5.34 5 -4.68 5 -4 5 C-4.33 3.68 -4.66 2.36 -5 1 C-3.68 1 -2.36 1 -1 1 C-0.67 0.67 -0.34 0.34 0 0 Z " fill="#43423F" transform="translate(145,42)"/>
<path d="M0 0 C1.98 0 3.96 0 6 0 C6.33 1.65 6.66 3.3 7 5 C7.66 5 8.32 5 9 5 C9 7.31 9 9.62 9 12 C9.66 12 10.32 12 11 12 C11 13.98 11 15.96 11 18 C8.03 17.67 5.06 17.34 2 17 C2.99 16.01 3.98 15.02 5 14 C5 13.34 5 12.68 5 12 C3.35 12 1.7 12 0 12 C0 8.04 0 4.08 0 0 Z " fill="#2F2E2D" transform="translate(93,41)"/>
<path d="M0 0 C4.71974522 2.29936306 4.71974522 2.29936306 6 5.5 C6 8 6 8 4.75 9.75 C3 11 3 11 0 12 C0 12.99 0 13.98 0 15 C-0.66 15 -1.32 15 -2 15 C-2 15.66 -2 16.32 -2 17 C-3.32 17 -4.64 17 -6 17 C-7.60337726 14.74339496 -8.76582217 12.46835565 -10 10 C-6.91190305 8.23537317 -5.76687864 8 -2 8 C-1.34 7.67 -0.68 7.34 0 7 C0 6.01 0 5.02 0 4 C-0.66 3.67 -1.32 3.34 -2 3 C-1.34 2.01 -0.68 1.02 0 0 Z " fill="#4F4F4D" transform="translate(161,36)"/>
<path d="M0 0 C0.33 0 0.66 0 1 0 C1 1.98 1 3.96 1 6 C1.66 6 2.32 6 3 6 C3.33 4.68 3.66 3.36 4 2 C4.99 2.33 5.98 2.66 7 3 C7 3.99 7 4.98 7 6 C7.66 6.33 8.32 6.66 9 7 C5.66437233 11.51290803 3.66710699 13.68206814 -2 15 C-4.52259061 13.02579865 -4.9929808 12.03254358 -5.6875 8.8125 C-5.790625 7.884375 -5.89375 6.95625 -6 6 C-3.525 6.99 -3.525 6.99 -1 8 C-2.32 6.35 -3.64 4.7 -5 3 C-4.01 3 -3.02 3 -2 3 C-1.34 2.01 -0.68 1.02 0 0 Z " fill="#272624" transform="translate(70,47)"/>
<path d="M0 0 C0.33 0 0.66 0 1 0 C1.12375 1.11375 1.2475 2.2275 1.375 3.375 C1.6465813 7.03103677 1.6465813 7.03103677 4 9 C5.155 9.309375 6.31 9.61875 7.5 9.9375 C11 11 11 11 13 14 C12.01 14 11.02 14 10 14 C9.67 13.67 9.34 13.34 9 13 C8.34 14.32 7.68 15.64 7 17 C9.64 17 12.28 17 15 17 C15.33 20.96 15.66 24.92 16 29 C15.34 28.67 14.68 28.34 14 28 C14 24.7 14 21.4 14 18 C12.6696875 18.3403125 12.6696875 18.3403125 11.3125 18.6875 C7.28252823 19.06768602 6.1668187 18.43601438 3 16 C-1.68085106 11.63829787 -1.68085106 11.63829787 -3 9 C-2.34 8.67 -1.68 8.34 -1 8 C-1.020625 7.05125 -1.04125 6.1025 -1.0625 5.125 C-1 2 -1 2 0 0 Z " fill="#6E6D6B" transform="translate(38,46)"/>
<path d="M0 0 C-0.66 0 -1.32 0 -2 0 C-2.33 1.32 -2.66 2.64 -3 4 C-4.65 3.34 -6.3 2.68 -8 2 C-7.01 2.99 -6.02 3.98 -5 5 C-5.66 6.32 -6.32 7.64 -7 9 C-7 8.34 -7 7.68 -7 7 C-11.62 7 -16.24 7 -21 7 C-17.77208445 4.8480563 -16.71599191 4.79913557 -13 5 C-13 4.34 -13 3.68 -13 3 C-13.55171875 3.16371094 -14.1034375 3.32742187 -14.671875 3.49609375 C-17.26614007 4.05760414 -19.59835411 4.09739008 -22.25 4.0625 C-23.14203125 4.05347656 -24.0340625 4.04445313 -24.953125 4.03515625 C-25.62859375 4.02355469 -26.3040625 4.01195312 -27 4 C-24.07782591 2.05188394 -23.17895468 1.7098691 -19.875 1.40234375 C-19.08609375 1.32306641 -18.2971875 1.24378906 -17.484375 1.16210938 C-16.66453125 1.08798828 -15.8446875 1.01386719 -15 0.9375 C-13.37471709 0.78289369 -11.74970044 0.62545548 -10.125 0.46484375 C-9.40570313 0.399021 -8.68640625 0.33319824 -7.9453125 0.26538086 C-1.74245258 -0.58081753 -1.74245258 -0.58081753 0 0 Z " fill="#797976" transform="translate(71,33)"/>
<path d="M0 0 C1 2 1 2 0.75 4.25 C1.11993308 8.31926384 3.2073199 10.14237385 6 13 C6.99 13.33 7.98 13.66 9 14 C9 13.34 9 12.68 9 12 C9.66 12 10.32 12 11 12 C11 13.32 11 14.64 11 16 C9.2984375 16.680625 9.2984375 16.680625 7.5625 17.375 C3.95278308 18.57095806 3.95278308 18.57095806 3 21 C0.5625 20.1875 0.5625 20.1875 -2 19 C-2.33 18.01 -2.66 17.02 -3 16 C-2.34 15.34 -1.68 14.68 -1 14 C-1 14.66 -1 15.32 -1 16 C-0.34 16 0.32 16 1 16 C1 15.34 1 14.68 1 14 C1.66 13.34 2.32 12.68 3 12 C2.4946875 11.44570313 1.989375 10.89140625 1.46875 10.3203125 C0.8190625 9.59585938 0.169375 8.87140625 -0.5 8.125 C-1.1496875 7.40570313 -1.799375 6.68640625 -2.46875 5.9453125 C-4 4 -4 4 -4 2 C-2.68 1.34 -1.36 0.68 0 0 Z " fill="#5C5A58" transform="translate(150,39)"/>
<path d="M0 0 C4 0 4 0 9 1 C9 4.63 9 8.26 9 12 C8.34 12 7.68 12 7 12 C7 10.68 7 9.36 7 8 C6.34 8 5.68 8 5 8 C5 9.32 5 10.64 5 12 C3.35 12 1.7 12 0 12 C0 8.04 0 4.08 0 0 Z " fill="#D9D9D8" transform="translate(130,41)"/>
<path d="M0 0 C1.40668945 0.00966797 1.40668945 0.00966797 2.84179688 0.01953125 C4.30649414 0.04466797 4.30649414 0.04466797 5.80078125 0.0703125 C6.78884766 0.07933594 7.77691406 0.08835937 8.79492188 0.09765625 C11.2346189 0.1212282 13.67382822 0.15413228 16.11328125 0.1953125 C16.11328125 0.8553125 16.11328125 1.5153125 16.11328125 2.1953125 C15.12328125 2.1953125 14.13328125 2.1953125 13.11328125 2.1953125 C13.11328125 2.8553125 13.11328125 3.5153125 13.11328125 4.1953125 C11.13328125 4.1953125 9.15328125 4.1953125 7.11328125 4.1953125 C7.11328125 5.1853125 7.11328125 6.1753125 7.11328125 7.1953125 C8.76328125 6.5353125 10.41328125 5.8753125 12.11328125 5.1953125 C12.11328125 6.1853125 12.11328125 7.1753125 12.11328125 8.1953125 C10.46328125 8.5253125 8.81328125 8.8553125 7.11328125 9.1953125 C6.45328125 8.2053125 5.79328125 7.2153125 5.11328125 6.1953125 C1.55655946 4.9765004 1.55655946 4.9765004 -1.88671875 4.1953125 C-1.55671875 3.5353125 -1.22671875 2.8753125 -0.88671875 2.1953125 C-3.19671875 2.1953125 -5.50671875 2.1953125 -7.88671875 2.1953125 C-4.63281887 0.02604591 -3.75275918 -0.04548799 0 0 Z " fill="#454442" transform="translate(79.88671875,29.8046875)"/>
<path d="M0 0 C1.32 0.66 2.64 1.32 4 2 C3.67 2.66 3.34 3.32 3 4 C3.99 4 4.98 4 6 4 C6 3.01 6 2.02 6 1 C7.98 0.67 9.96 0.34 12 0 C10.6302836 3.99500618 8.74277578 6.80009492 6 10 C6 9.01 6 8.02 6 7 C5.01 7 4.02 7 3 7 C3 7.66 3 8.32 3 9 C2.38125 9.268125 1.7625 9.53625 1.125 9.8125 C-1.2995233 10.95556848 -1.2995233 10.95556848 -3 14 C-2.40380045 9.13103697 -1.43023178 4.67209049 0 0 Z " fill="#322F2C" transform="translate(108,62)"/>
<path d="M0 0 C-1.98 0.99 -1.98 0.99 -4 2 C-3.505 2.78375 -3.01 3.5675 -2.5 4.375 C-1 7 -1 7 -1 9 C-2.375 10.625 -2.375 10.625 -4 12 C-6 12 -6 12 -7.5 10.75 C-10.36916509 7.40264072 -11 5.48492164 -11 1 C-3.57142857 -1.42857143 -3.57142857 -1.42857143 0 0 Z " fill="#393835" transform="translate(80,32)"/>
<path d="M0 0 C0.33 0 0.66 0 1 0 C1 3.63 1 7.26 1 11 C1.66 11 2.32 11 3 11 C3 11.66 3 12.32 3 13 C3.66 13.33 4.32 13.66 5 14 C4.01 14 3.02 14 2 14 C2 14.99 2 15.98 2 17 C-0.31 17.66 -2.62 18.32 -5 19 C-6.36952673 16.26094655 -6.12621361 14.02912668 -6 11 C-5.67 10.34 -5.34 9.68 -5 9 C-4.01 9 -3.02 9 -2 9 C-2 9.66 -2 10.32 -2 11 C-1.34 11 -0.68 11 0 11 C0 7.37 0 3.74 0 0 Z " fill="#403E3C" transform="translate(116,42)"/>
<path d="M0 0 C0.99 0.33 1.98 0.66 3 1 C3 1.66 3 2.32 3 3 C3.66 3 4.32 3 5 3 C5.33 2.01 5.66 1.02 6 0 C6.66 0 7.32 0 8 0 C8 3.96 8 7.92 8 12 C7.34 12 6.68 12 6 12 C6 11.01 6 10.02 6 9 C5.01 9 4.02 9 3 9 C2.67 9.99 2.34 10.98 2 12 C1.34 12 0.68 12 0 12 C0 8.04 0 4.08 0 0 Z " fill="#E3E3E3" transform="translate(71,41)"/>
<path d="M0 0 C0.66 1.32 1.32 2.64 2 4 C3.65 4 5.3 4 7 4 C7.28875 4.804375 7.5775 5.60875 7.875 6.4375 C8.73262568 9.1326468 8.73262568 9.1326468 11 10 C9.7934375 10.61875 9.7934375 10.61875 8.5625 11.25 C5.85890282 12.73452331 5.85890282 12.73452331 5.1875 15.1875 C5.125625 15.785625 5.06375 16.38375 5 17 C5.99 17.66 6.98 18.32 8 19 C7.01 19.33 6.02 19.66 5 20 C5 20.99 5 21.98 5 23 C4.34 22.67 3.68 22.34 3 22 C3 21.01 3 20.02 3 19 C1.68 18.34 0.36 17.68 -1 17 C-1 16.34 -1 15.68 -1 15 C-0.01 14.67 0.98 14.34 2 14 C4.22931824 12.18739868 4.22931824 12.18739868 6 10 C6 9.01 6 8.02 6 7 C3.69 6.67 1.38 6.34 -1 6 C-0.67 4.02 -0.34 2.04 0 0 Z " fill="#858382" transform="translate(56,56)"/>
<path d="M0 0 C0.99 0.33 1.98 0.66 3 1 C2.33333333 2.33333333 1.66666667 3.66666667 1 5 C0.34 5 -0.32 5 -1 5 C-0.7215625 5.928125 -0.7215625 5.928125 -0.4375 6.875 C0 9 0 9 -1 11 C-0.01 11.33 0.98 11.66 2 12 C-0.31 12 -2.62 12 -5 12 C-5.33 13.32 -5.66 14.64 -6 16 C-7.5641708 13.44793185 -8.11480919 11.66953084 -7.60546875 8.69921875 C-6.22649864 4.07561308 -6.22649864 4.07561308 -5 2 C-2.9453125 1.296875 -2.9453125 1.296875 -1 1 C-0.67 0.67 -0.34 0.34 0 0 Z " fill="#2E2D2C" transform="translate(126,29)"/>
<path d="M0 0 C1.98 0 3.96 0 6 0 C6 3.96 6 7.92 6 12 C4.02 12 2.04 12 0 12 C0 8.04 0 4.08 0 0 Z " fill="#DCDCDB" transform="translate(105,41)"/>
<path d="M0 0 C-1.98 0.99 -3.96 1.98 -6 3 C-4.68 3.66 -3.36 4.32 -2 5 C-2.804375 5.144375 -3.60875 5.28875 -4.4375 5.4375 C-6.92103706 5.74135249 -6.92103706 5.74135249 -8 7 C-8 7.66 -8 8.32 -8 9 C-7.34 9.33 -6.68 9.66 -6 10 C-6.99 10.66 -7.98 11.32 -9 12 C-9.33 11.34 -9.66 10.68 -10 10 C-10.99 9.34 -11.98 8.68 -13 8 C-12.34 8 -11.68 8 -11 8 C-11.33 7.01 -11.66 6.02 -12 5 C-11.34 5 -10.68 5 -10 5 C-10.33 4.34 -10.66 3.68 -11 3 C-13.12576782 2.53348793 -13.12576782 2.53348793 -15.5625 2.375 C-16.38878906 2.30023437 -17.21507813 2.22546875 -18.06640625 2.1484375 C-18.70449219 2.09945313 -19.34257813 2.05046875 -20 2 C-20 1.67 -20 1.34 -20 1 C-17.04239121 0.63851448 -14.08419774 0.28550884 -11.125 -0.0625 C-9.86236328 -0.2181543 -9.86236328 -0.2181543 -8.57421875 -0.37695312 C-7.36572266 -0.51713867 -7.36572266 -0.51713867 -6.1328125 -0.66015625 C-5.01737061 -0.79369507 -5.01737061 -0.79369507 -3.87939453 -0.92993164 C-2 -1 -2 -1 0 0 Z " fill="#6E6C6B" transform="translate(118,29)"/>
<path d="M0 0 C0.99 0 1.98 0 3 0 C3.33 2.31 3.66 4.62 4 7 C2.68 7 1.36 7 0 7 C0.66 8.32 1.32 9.64 2 11 C1.34 11 0.68 11 0 11 C0 10.34 0 9.68 0 9 C-0.99 9 -1.98 9 -3 9 C-3.33 9.66 -3.66 10.32 -4 11 C-6 8 -6 8 -6 4 C-4.02 3.34 -2.04 2.68 0 2 C0 1.34 0 0.68 0 0 Z " fill="#151413" transform="translate(135,56)"/>
<path d="M0 0 C0.66 0 1.32 0 2 0 C2.33 0.66 2.66 1.32 3 2 C3.66 1.34 4.32 0.68 5 0 C6 1 6 1 6.09765625 3.50390625 C6.08605469 4.51324219 6.07445313 5.52257813 6.0625 6.5625 C6.05347656 7.57441406 6.04445313 8.58632813 6.03515625 9.62890625 C6.02355469 10.41136719 6.01195313 11.19382812 6 12 C4 12 2 12 0 12 C0 8.04 0 4.08 0 0 Z " fill="#E1E0E0" transform="translate(117,41)"/>
<path d="M0 0 C1.65 0 3.3 0 5 0 C5 3.96 5 7.92 5 12 C3.35 12 1.7 12 0 12 C0 8.04 0 4.08 0 0 Z " fill="#D8D8D7" transform="translate(124,41)"/>
<path d="M0 0 C0.66 0 1.32 0 2 0 C2 0.66 2 1.32 2 2 C6.62730711 3.0448758 11.28853878 3.51756279 16 4 C15.01 4.495 15.01 4.495 14 5 C14 5.66 14 6.32 14 7 C12.03852126 8.38938077 10.03833424 9.7260411 8 11 C7.67 9.02 7.34 7.04 7 5 C4.36 5 1.72 5 -1 5 C-0.67 3.35 -0.34 1.7 0 0 Z " fill="#212020" transform="translate(46,58)"/>
<path d="M0 0 C1.98 0.495 1.98 0.495 4 1 C4 2.65 4 4.3 4 6 C4.99 6.33 5.98 6.66 7 7 C6.67 7.99 6.34 8.98 6 10 C5.34 10 4.68 10 4 10 C4 13.96 4 17.92 4 22 C3.67 22 3.34 22 3 22 C2.67 18.04 2.34 14.08 2 10 C1.01 9.67 0.02 9.34 -1 9 C-1 7.02 -1 5.04 -1 3 C-0.34 3 0.32 3 1 3 C0.67 2.01 0.34 1.02 0 0 Z " fill="#64625F" transform="translate(126,31)"/>
<path d="M0 0 C1.98 0 3.96 0 6 0 C6 3.96 6 7.92 6 12 C5.34 12 4.68 12 4 12 C3.67 11.34 3.34 10.68 3 10 C2.67 10.66 2.34 11.32 2 12 C1.34 12 0.68 12 0 12 C0 8.04 0 4.08 0 0 Z " fill="#B8B8B6" transform="translate(86,41)"/>
<path d="M0 0 C2.31 0 4.62 0 7 0 C5.88809524 3.33571429 5.53679327 3.58417079 2.625 5.1875 C1.71621094 5.70376953 1.71621094 5.70376953 0.7890625 6.23046875 C-1 7 -1 7 -4 7 C-4 7.99 -4 8.98 -4 10 C-4.99 10 -5.98 10 -7 10 C-6.67 8.02 -6.34 6.04 -6 4 C-4.02 3.67 -2.04 3.34 0 3 C0 2.01 0 1.02 0 0 Z " fill="#1E1C1A" transform="translate(118,56)"/>
<path d="M0 0 C1.65 0 3.3 0 5 0 C5 3.96 5 7.92 5 12 C3.35 12 1.7 12 0 12 C0 8.04 0 4.08 0 0 Z " fill="#EFEFEF" transform="translate(80,41)"/>
<path d="M0 0 C0.33 0.66 0.66 1.32 1 2 C3.02463255 2.65213292 3.02463255 2.65213292 5 3 C5 4.65 5 6.3 5 8 C3.68 7.67 2.36 7.34 1 7 C1 6.34 1 5.68 1 5 C-3.06024321 7.03802135 -3.06024321 7.03802135 -5 11 C-7.5654594 8.4345406 -7.54046087 6.52313332 -8 3 C-6.576875 3.0928125 -6.576875 3.0928125 -5.125 3.1875 C-3.578125 3.0946875 -3.578125 3.0946875 -2 3 C-1.34 2.01 -0.68 1.02 0 0 Z " fill="#2B2A28" transform="translate(84,56)"/>
<path d="M0 0 C1.32 0.33 2.64 0.66 4 1 C4.625 3.3125 4.625 3.3125 5 6 C2.59563974 9.60654039 1.05320393 9.85452932 -3 11 C-3.66 10.34 -4.32 9.68 -5 9 C-5 8.01 -5 7.02 -5 6 C-2.03 6.495 -2.03 6.495 1 7 C0.34 6.34 -0.32 5.68 -1 5 C-2 4 -3 3 -4 2 C-2.68 1.67 -1.36 1.34 0 1 C0 0.67 0 0.34 0 0 Z " fill="#1A1918" transform="translate(151,23)"/>
<path d="M0 0 C0.66 0 1.32 0 2 0 C3.19287411 3.87684087 4 6.91621923 4 11 C2.02 11.33 0.04 11.66 -2 12 C-2.12375 11.236875 -2.2475 10.47375 -2.375 9.6875 C-2.88102792 6.79732864 -2.88102792 6.79732864 -5 4 C-2.525 4.495 -2.525 4.495 0 5 C0 3.35 0 1.7 0 0 Z " fill="#63625F" transform="translate(139,58)"/>
<path d="M0 0 C2.375 0.1875 2.375 0.1875 5 1 C6.3125 3.5625 6.3125 3.5625 7 6 C4.53606281 7.55136786 3.31910854 8.03039129 0.375 7.75 C-2 7 -2 7 -4 5 C-4 4.01 -4 3.02 -4 2 C-3.34 2 -2.68 2 -2 2 C-2 2.66 -2 3.32 -2 4 C-1.01 4 -0.02 4 1 4 C0.67 2.68 0.34 1.36 0 0 Z " fill="#30302F" transform="translate(81,67)"/>
<path d="M0 0 C1.98 1.65 3.96 3.3 6 5 C5.67 5.66 5.34 6.32 5 7 C4.34 7 3.68 7 3 7 C3 7.66 3 8.32 3 9 C2.01 9 1.02 9 0 9 C-0.33 10.32 -0.66 11.64 -1 13 C-1.33 13 -1.66 13 -2 13 C-2.66 10.03 -3.32 7.06 -4 4 C-1.03 4.495 -1.03 4.495 2 5 C2 4.34 2 3.68 2 3 C0.68 3 -0.64 3 -2 3 C-2 2.34 -2 1.68 -2 1 C-1.34 0.67 -0.68 0.34 0 0 Z " fill="#1E1E1D" transform="translate(148,46)"/>
<path d="M0 0 C0 0.33 0 0.66 0 1 C-4.455 1.495 -4.455 1.495 -9 2 C-9 3.32 -9 4.64 -9 6 C-8.01 5.67 -7.02 5.34 -6 5 C-6 5.99 -6 6.98 -6 8 C-8.31 8 -10.62 8 -13 8 C-12.67 6.35 -12.34 4.7 -12 3 C-14.64 3.33 -17.28 3.66 -20 4 C-15.23177517 -0.76822483 -6.37720529 -0.23619279 0 0 Z " fill="#626160" transform="translate(147,20)"/>
<path d="M0 0 C0.33 0 0.66 0 1 0 C1 3.96 1 7.92 1 12 C2.32 12.33 3.64 12.66 5 13 C5.33 13.66 5.66 14.32 6 15 C4.68 15.99 3.36 16.98 2 18 C0.02 16.35 -1.96 14.7 -4 13 C-3.34 11.68 -2.68 10.36 -2 9 C-2 9.99 -2 10.98 -2 12 C-1.34 12 -0.68 12 0 12 C0 8.04 0 4.08 0 0 Z " fill="#585554" transform="translate(85,41)"/>
<path d="M0 0 C-0.66 1.32 -1.32 2.64 -2 4 C-2.66 4 -3.32 4 -4 4 C-4 4.66 -4 5.32 -4 6 C-7.01031744 6.93423645 -7.86650268 7.04449911 -11 6 C-11 4.68 -11 3.36 -11 2 C-9.5422647 1.664061 -8.08378894 1.33133376 -6.625 1 C-5.40683594 0.7215625 -5.40683594 0.7215625 -4.1640625 0.4375 C-2 0 -2 0 0 0 Z " fill="#131211" transform="translate(149,20)"/>
<path d="M0 0 C1.65 0 3.3 0 5 0 C5 0.66 5 1.32 5 2 C4.01 2 3.02 2 2 2 C2 2.99 2 3.98 2 5 C2.99 5 3.98 5 5 5 C5 5.66 5 6.32 5 7 C4.01 7 3.02 7 2 7 C2 7.99 2 8.98 2 10 C3.32 10 4.64 10 6 10 C6 10.66 6 11.32 6 12 C4.02 12 2.04 12 0 12 C0 8.04 0 4.08 0 0 Z " fill="#EEEEEE" transform="translate(93,41)"/>
<path d="M0 0 C1.65 0.33 3.3 0.66 5 1 C5 4.63 5 8.26 5 12 C4.34 12 3.68 12 3 12 C2.04975021 8.30458414 2.04975021 5.69541586 3 2 C2.34 2 1.68 2 1 2 C0.67 4.64 0.34 7.28 0 10 C-0.33 10 -0.66 10 -1 10 C-1.02689216 8.52093108 -1.04634621 7.04172517 -1.0625 5.5625 C-1.07410156 4.73878906 -1.08570313 3.91507813 -1.09765625 3.06640625 C-1 1 -1 1 0 0 Z " fill="#E5E5E4" transform="translate(134,41)"/>
<path d="M0 0 C2.72869407 0.03287583 5.2966618 0.56397771 8 1 C7.360625 1.28875 6.72125 1.5775 6.0625 1.875 C3.84793921 2.82823451 3.84793921 2.82823451 3 5 C4.98 5 6.96 5 9 5 C8.67 5.66 8.34 6.32 8 7 C7.34 7 6.68 7 6 7 C6 7.66 6 8.32 6 9 C4.68 9 3.36 9 2 9 C0.39662274 6.74339496 -0.76582217 4.46835565 -2 2 C-1.34 1.34 -0.68 0.68 0 0 Z " fill="#1F1E1D" transform="translate(153,44)"/>
<path d="M0 0 C0.99 0 1.98 0 3 0 C2.125 4.75 2.125 4.75 1 7 C0.01 7.33 -0.98 7.66 -2 8 C-2.66 8.66 -3.32 9.32 -4 10 C-4.625 7.125 -4.625 7.125 -5 4 C-4.34 3.34 -3.68 2.68 -3 2 C-2.01 2 -1.02 2 0 2 C0 1.34 0 0.68 0 0 Z " fill="#232120" transform="translate(111,69)"/>
<path d="M0 0 C3 1 3 1 4 3 C3.071875 3.4021875 3.071875 3.4021875 2.125 3.8125 C-0.2995233 4.95556848 -0.2995233 4.95556848 -2 8 C-4.625 9.1875 -4.625 9.1875 -7 10 C-7 7.69 -7 5.38 -7 3 C-6.34 3.66 -5.68 4.32 -5 5 C-4.34 4.01 -3.68 3.02 -3 2 C-2.01 2 -1.02 2 0 2 C0 1.34 0 0.68 0 0 Z " fill="#43403D" transform="translate(60,63)"/>
<path d="M0 0 C0.45375 0.495 0.9075 0.99 1.375 1.5 C2.87635519 3.22609337 2.87635519 3.22609337 5 3 C5.33 4.98 5.66 6.96 6 9 C5.01 9.33 4.02 9.66 3 10 C3 9.34 3 8.68 3 8 C-1.455 9.485 -1.455 9.485 -6 11 C-5.67 10.01 -5.34 9.02 -5 8 C-2.9375 7.3125 -2.9375 7.3125 -1 7 C-0.67 4.69 -0.34 2.38 0 0 Z " fill="#7C7B78" transform="translate(155,24)"/>
<path d="M0 0 C0.89203125 0.00902344 1.7840625 0.01804688 2.703125 0.02734375 C3.37859375 0.03894531 4.0540625 0.05054688 4.75 0.0625 C4.75 0.7225 4.75 1.3825 4.75 2.0625 C-3.67857143 4.34821429 -3.67857143 4.34821429 -8.25 4.0625 C-8.58 3.0725 -8.91 2.0825 -9.25 1.0625 C-6.09493858 0.12630187 -3.28413498 -0.0432123 0 0 Z " fill="#272625" transform="translate(53.25,35.9375)"/>
<path d="M0 0 C0.33 0 0.66 0 1 0 C0.938125 0.94875 0.87625 1.8975 0.8125 2.875 C0.874375 3.90625 0.93625 4.9375 1 6 C1.99 6.66 2.98 7.32 4 8 C3.01 8.33 2.02 8.66 1 9 C1 9.99 1 10.98 1 12 C0.34 11.67 -0.32 11.34 -1 11 C-1 10.01 -1 9.02 -1 8 C-2.32 7.34 -3.64 6.68 -5 6 C-5 5.34 -5 4.68 -5 4 C-4.01 3.67 -3.02 3.34 -2 3 C-1.34 2.01 -0.68 1.02 0 0 Z " fill="#706E6C" transform="translate(60,67)"/>
<path d="M0 0 C0.33 0 0.66 0 1 0 C1.12375 1.11375 1.2475 2.2275 1.375 3.375 C1.6465813 7.03103677 1.6465813 7.03103677 4 9 C6.57061311 9.64767793 6.57061311 9.64767793 9 10 C9 10.33 9 10.66 9 11 C7.88625 10.95875 6.7725 10.9175 5.625 10.875 C1.95633975 10.58878141 1.95633975 10.58878141 0 13 C-0.99 11.68 -1.98 10.36 -3 9 C-2.34 8.67 -1.68 8.34 -1 8 C-1.020625 7.05125 -1.04125 6.1025 -1.0625 5.125 C-1 2 -1 2 0 0 Z " fill="#7D7D7B" transform="translate(38,46)"/>
<path d="M0 0 C3 0 3 0 4.6875 1.5 C5.120625 1.995 5.55375 2.49 6 3 C6.33 2.34 6.66 1.68 7 1 C7.33 2.32 7.66 3.64 8 5 C5.69 5 3.38 5 1 5 C0.67 7.97 0.34 10.94 0 14 C-0.33 14 -0.66 14 -1 14 C-1.02694851 12.04174127 -1.04637218 10.08337774 -1.0625 8.125 C-1.07410156 7.03445312 -1.08570313 5.94390625 -1.09765625 4.8203125 C-1 2 -1 2 0 0 Z " fill="#43413F" transform="translate(133,37)"/>
<path d="M0 0 C0.99 0 1.98 0 3 0 C3.66 0.66 4.32 1.32 5 2 C5.99 2.33 6.98 2.66 8 3 C6.515 5.475 6.515 5.475 5 8 C4.67 7.34 4.34 6.68 4 6 C3.34 6 2.68 6 2 6 C2.33 7.32 2.66 8.64 3 10 C2.34 10 1.68 10 1 10 C1 8.35 1 6.7 1 5 C1.66 5 2.32 5 3 5 C2.34 4.34 1.68 3.68 1 3 C0.34 3 -0.32 3 -1 3 C-0.67 2.01 -0.34 1.02 0 0 Z " fill="#1A1A19" transform="translate(138,37)"/>
<path d="M0 0 C0.66 0 1.32 0 2 0 C1.67 1.32 1.34 2.64 1 4 C0.01 4 -0.98 4 -2 4 C-2 4.66 -2 5.32 -2 6 C-1.34 6 -0.68 6 0 6 C0 6.66 0 7.32 0 8 C-0.99 8 -1.98 8 -3 8 C-3.66 7.34 -4.32 6.68 -5 6 C-5.66 6 -6.32 6 -7 6 C-7 5.34 -7 4.68 -7 4 C-7.66 3.67 -8.32 3.34 -9 3 C-5.8035914 1.93453047 -3.34252724 1.92572162 0 2 C0 1.34 0 0.68 0 0 Z " fill="#211F1D" transform="translate(117,32)"/>
<path d="M0 0 C0.33 0.66 0.66 1.32 1 2 C1.66 2 2.32 2 3 2 C3 2.66 3 3.32 3 4 C-0.98060777 5.17076699 -4.91621717 6.25749403 -9 7 C-9 6.01 -9 5.02 -9 4 C-8.01 4 -7.02 4 -6 4 C-5.67 3.34 -5.34 2.68 -5 2 C-5 2.66 -5 3.32 -5 4 C-4.34 4 -3.68 4 -3 4 C-3 3.34 -3 2.68 -3 2 C-2.01 2 -1.02 2 0 2 C0 1.34 0 0.68 0 0 Z " fill="#1A1A1A" transform="translate(96,30)"/>
<path d="M0 0 C1.98 0.495 1.98 0.495 4 1 C4 1.66 4 2.32 4 3 C3.34 3 2.68 3 2 3 C2 5.64 2 8.28 2 11 C1.01 11.33 0.02 11.66 -1 12 C-1.02698189 10.37509046 -1.04638757 8.75005367 -1.0625 7.125 C-1.07410156 6.22007813 -1.08570313 5.31515625 -1.09765625 4.3828125 C-1 2 -1 2 0 0 Z " fill="#383735" transform="translate(36,43)"/>
<path d="M0 0 C0.99 0.33 1.98 0.66 3 1 C2.33333333 2.33333333 1.66666667 3.66666667 1 5 C0.01 5 -0.98 5 -2 5 C-2.33 5.99 -2.66 6.98 -3 8 C-3.99 8 -4.98 8 -6 8 C-5.67 6.02 -5.34 4.04 -5 2 C-4.360625 1.855625 -3.72125 1.71125 -3.0625 1.5625 C-1.02454854 1.18992819 -1.02454854 1.18992819 0 0 Z " fill="#131313" transform="translate(126,29)"/>
<path d="M0 0 C0.66 1.32 1.32 2.64 2 4 C4.0335948 5.26804566 4.0335948 5.26804566 6 6 C5.67 6.99 5.34 7.98 5 9 C5.99 9.33 6.98 9.66 8 10 C7.01 10.33 6.02 10.66 5 11 C4.34 10.67 3.68 10.34 3 10 C3 9.34 3 8.68 3 8 C2.34 8 1.68 8 1 8 C0.67 8.66 0.34 9.32 0 10 C0 6.7 0 3.4 0 0 Z " fill="#6F6D6B" transform="translate(76,61)"/>
<path d="M0 0 C-0.33 0.99 -0.66 1.98 -1 3 C-2.65 3 -4.3 3 -6 3 C-6 3.66 -6 4.32 -6 5 C-7.98 5.33 -9.96 5.66 -12 6 C-11 4 -11 4 -8 3 C-7.34 2.01 -6.68 1.02 -6 0 C-3 -1 -3 -1 0 0 Z " fill="#535352" transform="translate(82,56)"/>
<path d="M0 0 C0.33 1.32 0.66 2.64 1 4 C0.34 4 -0.32 4 -1 4 C-1 5.65 -1 7.3 -1 9 C-0.34 9.33 0.32 9.66 1 10 C1 10.66 1 11.32 1 12 C-0.98 12 -2.96 12 -5 12 C-4.54738642 10.56068883 -4.08767021 9.12361001 -3.625 7.6875 C-3.24214844 6.48673828 -3.24214844 6.48673828 -2.8515625 5.26171875 C-2 3 -2 3 0 0 Z " fill="#949492" transform="translate(62,44)"/>
<path d="M0 0 C1.65 1.32 3.3 2.64 5 4 C4.67 4.99 4.34 5.98 4 7 C2.02 7 0.04 7 -2 7 C-2.33 6.34 -2.66 5.68 -3 5 C-2.01 5 -1.02 5 0 5 C0 3.35 0 1.7 0 0 Z " fill="#22201E" transform="translate(139,48)"/>
<path d="M0 0 C1 2 1 2 0.8125 4.375 C0.74938442 7.17651869 0.74938442 7.17651869 3 9.3125 C3.66 9.869375 4.32 10.42625 5 11 C4.67 11.66 4.34 12.32 4 13 C2.66072279 11.54712339 1.32873153 10.08752741 0 8.625 C-0.7425 7.81289063 -1.485 7.00078125 -2.25 6.1640625 C-4 4 -4 4 -4 2 C-2.68 1.34 -1.36 0.68 0 0 Z " fill="#7B7B77" transform="translate(150,39)"/>
<path d="M0 0 C-0.33 1.65 -0.66 3.3 -1 5 C-3.31 4.34 -5.62 3.68 -8 3 C-8 2.34 -8 1.68 -8 1 C-5.07175348 0.02391783 -3.04386724 -0.08226668 0 0 Z " fill="#141312" transform="translate(135,23)"/>
<path d="M0 0 C0.99 0.495 0.99 0.495 2 1 C2 1.66 2 2.32 2 3 C3.32 3.33 4.64 3.66 6 4 C6.33 5.65 6.66 7.3 7 9 C6.01 9.495 6.01 9.495 5 10 C5 9.34 5 8.68 5 8 C4.01 8 3.02 8 2 8 C2.33 6.68 2.66 5.36 3 4 C2.34 4 1.68 4 1 4 C0.67 2.68 0.34 1.36 0 0 Z " fill="#91918F" transform="translate(144,71)"/>
<path d="M0 0 C-0.33 1.32 -0.66 2.64 -1 4 C-1.99 4 -2.98 4 -4 4 C-3.01 4.66 -2.02 5.32 -1 6 C-1 6.66 -1 7.32 -1 8 C-3.475 7.01 -3.475 7.01 -6 6 C-6 4.35 -6 2.7 -6 1 C-4 0 -4 0 0 0 Z " fill="#413F3C" transform="translate(70,47)"/>
<path d="M0 0 C0.66 0 1.32 0 2 0 C2 0.66 2 1.32 2 2 C3.175625 2.185625 3.175625 2.185625 4.375 2.375 C7 3 7 3 9 5 C5.7 5 2.4 5 -1 5 C-0.67 3.35 -0.34 1.7 0 0 Z " fill="#3C3A39" transform="translate(46,58)"/>
<path d="M0 0 C0.33 0.66 0.66 1.32 1 2 C3.02463255 2.65213292 3.02463255 2.65213292 5 3 C5 4.65 5 6.3 5 8 C3.125 7.8125 3.125 7.8125 1 7 C-0.3125 4.5625 -0.3125 4.5625 -1 2 C-0.67 1.34 -0.34 0.68 0 0 Z " fill="#141413" transform="translate(84,56)"/>
<path d="M0 0 C0.33 0.99 0.66 1.98 1 3 C1.66 3 2.32 3 3 3 C3.66 5.64 4.32 8.28 5 11 C4.34 11 3.68 11 3 11 C2.67 10.34 2.34 9.68 2 9 C1.34 9.66 0.68 10.32 0 11 C0 7.37 0 3.74 0 0 Z " fill="#F5F4F5" transform="translate(87,42)"/>
<path d="M0 0 C1.98 0 3.96 0 6 0 C6 1.32 6 2.64 6 4 C5.01 3.67 4.02 3.34 3 3 C3 5.64 3 8.28 3 11 C2.67 11 2.34 11 2 11 C1.93941406 10.37351562 1.87882812 9.74703125 1.81640625 9.1015625 C1.73261719 8.28429688 1.64882812 7.46703125 1.5625 6.625 C1.48128906 5.81289063 1.40007812 5.00078125 1.31640625 4.1640625 C1.10909886 1.95727195 1.10909886 1.95727195 0 0 Z " fill="#323231" transform="translate(102,38)"/>
<path d="M0 0 C3 1 3 1 4.1875 3.0625 C4.455625 3.701875 4.72375 4.34125 5 5 C4.01 6.485 4.01 6.485 3 8 C2.34 8 1.68 8 1 8 C-0.42944945 5.64561267 -1.08661261 4.51967567 -0.625 1.75 C-0.41875 1.1725 -0.2125 0.595 0 0 Z " fill="#111111" transform="translate(73,36)"/>
<path d="M0 0 C3.63 0 7.26 0 11 0 C11 0.66 11 1.32 11 2 C10.01 2 9.02 2 8 2 C8 2.66 8 3.32 8 4 C6.35 4 4.7 4 3 4 C3 3.34 3 2.68 3 2 C2.01 1.34 1.02 0.68 0 0 Z " fill="#706E6B" transform="translate(85,30)"/>
<path d="M0 0 C3.69287153 0.90270193 5.55368289 1.40491051 7.875 4.5 C9 7 9 7 9 9 C8.01 9 7.02 9 6 9 C5.67 7.02 5.34 5.04 5 3 C3.02 3 1.04 3 -1 3 C-0.67 2.01 -0.34 1.02 0 0 Z " fill="#353331" transform="translate(124,27)"/>
<path d="M0 0 C1.98 0.495 1.98 0.495 4 1 C4 1.99 4 2.98 4 4 C4.66 4.33 5.32 4.66 6 5 C5 6 5 6 2.4375 6.0625 C1.2309375 6.0315625 1.2309375 6.0315625 0 6 C-1.24546405 3.50907189 -0.7767578 2.58919267 0 0 Z " fill="#474745" transform="translate(73,49)"/>
<path d="M0 0 C1.65 0 3.3 0 5 0 C5 1.65 5 3.3 5 5 C3.35 5.33 1.7 5.66 0 6 C0 4.02 0 2.04 0 0 Z " fill="#CCCCCB" transform="translate(80,41)"/>
<path d="M0 0 C-0.33 1.65 -0.66 3.3 -1 5 C-1.66 5 -2.32 5 -3 5 C-3 4.34 -3 3.68 -3 3 C-4.65 2.67 -6.3 2.34 -8 2 C-8 1.34 -8 0.68 -8 0 C-4.71303767 -0.79953138 -3.28976808 -1.09658936 0 0 Z " fill="#232120" transform="translate(108,32)"/>
<path d="M0 0 C4.875 1.75 4.875 1.75 6 4 C5.01 4 4.02 4 3 4 C2.67 4.66 2.34 5.32 2 6 C0 6 -2 6 -4 6 C-4 4 -4 4 -2 1.875 C-1.34 1.25625 -0.68 0.6375 0 0 Z " fill="#4D4D4A" transform="translate(149,20)"/>
<path d="M0 0 C0.99 0.99 1.98 1.98 3 3 C2.01 4.485 2.01 4.485 1 6 C-1.3828125 6.29296875 -1.3828125 6.29296875 -4.125 6.1875 C-5.03507812 6.16042969 -5.94515625 6.13335937 -6.8828125 6.10546875 C-7.58148438 6.07066406 -8.28015625 6.03585938 -9 6 C-9.33 4.35 -9.66 2.7 -10 1 C-9.01 2.485 -9.01 2.485 -8 4 C-6.03638136 4.57748803 -6.03638136 4.57748803 -3.875 4.6875 C-1.956875 4.8421875 -1.956875 4.8421875 0 5 C0 3.35 0 1.7 0 0 Z " fill="#868584" transform="translate(64,75)"/>
<path d="M0 0 C2.31 0.33 4.62 0.66 7 1 C7 1.99 7 2.98 7 4 C6.4225 3.835 5.845 3.67 5.25 3.5 C2.73335631 2.85537969 2.73335631 2.85537969 -1 3 C-0.67 2.01 -0.34 1.02 0 0 Z " fill="#262524" transform="translate(86,74)"/>
<path d="M0 0 C0.66 0.33 1.32 0.66 2 1 C2 1.66 2 2.32 2 3 C2.66 3.33 3.32 3.66 4 4 C3.34 4.66 2.68 5.32 2 6 C1.01 6 0.02 6 -1 6 C-1.66 4.35 -2.32 2.7 -3 1 C-2.01 0.67 -1.02 0.34 0 0 Z " fill="#41403F" transform="translate(66,59)"/>
<path d="M0 0 C0 0.66 0 1.32 0 2 C-0.66 2 -1.32 2 -2 2 C-2 2.99 -2 3.98 -2 5 C-3.98 5.99 -3.98 5.99 -6 7 C-6.6875 5.1875 -6.6875 5.1875 -7 3 C-4.8243318 -0.20624788 -4.07796486 0 0 0 Z " fill="#1D1C1B" transform="translate(158,36)"/>
<path d="M0 0 C0.66 0 1.32 0 2 0 C5 4.38461538 5 4.38461538 5 7 C4.34 7 3.68 7 3 7 C3 6.01 3 5.02 3 4 C1.02 4.66 -0.96 5.32 -3 6 C-2.67 5.01 -2.34 4.02 -2 3 C-1.34 3 -0.68 3 0 3 C0 2.01 0 1.02 0 0 Z " fill="#22211F" transform="translate(139,29)"/>
<path d="M0 0 C0.28875 0.598125 0.5775 1.19625 0.875 1.8125 C2.04742026 4.19327792 2.04742026 4.19327792 4 7 C3.38125 7.268125 2.7625 7.53625 2.125 7.8125 C-0.2995233 8.95556848 -0.2995233 8.95556848 -2 12 C-1.44687265 7.97007218 -0.8441938 3.97977076 0 0 Z " fill="#8C8A89" transform="translate(107,64)"/>
<path d="M0 0 C0.99 0 1.98 0 3 0 C3 1.32 3 2.64 3 4 C2.34 4 1.68 4 1 4 C1 5.98 1 7.96 1 10 C-1 8 -1 8 -1.1875 5 C-1 2 -1 2 0 0 Z " fill="#716F6C" transform="translate(111,51)"/>
<path d="M0 0 C0 2.97 0 5.94 0 9 C-1.32 8.67 -2.64 8.34 -4 8 C-4 7.34 -4 6.68 -4 6 C-3.34 6 -2.68 6 -2 6 C-2 5.01 -2 4.02 -2 3 C-2.66 2.67 -3.32 2.34 -4 2 C-1 0 -1 0 0 0 Z " fill="#181717" transform="translate(71,35)"/>
<path d="M0 0 C3 1 3 1 4.1875 2.9375 C5 5 5 5 5 7 C3.125 7.625 3.125 7.625 1 8 C0.34 7.34 -0.32 6.68 -1 6 C-0.01 6 0.98 6 2 6 C1.34 5.01 0.68 4.02 0 3 C0 2.01 0 1.02 0 0 Z " fill="#504F4C" transform="translate(131,30)"/>
<path d="M0 0 C0.99 0 1.98 0 3 0 C2.67 2.31 2.34 4.62 2 7 C0.68 5.68 -0.64 4.36 -2 3 C-1 1 -1 1 0 0 Z " fill="#605F5C" transform="translate(132,65)"/>
<path d="M0 0 C2.125 0.9375 2.125 0.9375 4 2 C3.34 2 2.68 2 2 2 C2 2.66 2 3.32 2 4 C3.32 4 4.64 4 6 4 C6 4.66 6 5.32 6 6 C3.03 5.505 3.03 5.505 0 5 C0 4.01 0 3.02 0 2 C-0.66 1.67 -1.32 1.34 -2 1 C-1.34 0.67 -0.68 0.34 0 0 Z " fill="#575654" transform="translate(144,45)"/>
<path d="M0 0 C1.32 0.99 2.64 1.98 4 3 C3.67 4.98 3.34 6.96 3 9 C2.34 8.67 1.68 8.34 1 8 C1.33 7.34 1.66 6.68 2 6 C1.34 6 0.68 6 0 6 C0 4.02 0 2.04 0 0 Z " fill="#605F5D" transform="translate(163,37)"/>
<path d="M0 0 C0.66 0 1.32 0 2 0 C2 1.32 2 2.64 2 4 C0.02 4.33 -1.96 4.66 -4 5 C-3.67 3.68 -3.34 2.36 -3 1 C-2.01 1.33 -1.02 1.66 0 2 C0 1.34 0 0.68 0 0 Z " fill="#757473" transform="translate(159,51)"/>
<path d="M0 0 C0.6875 1.6875 0.6875 1.6875 1 4 C-0.4375 6.75 -0.4375 6.75 -2 9 C-2.33 8.34 -2.66 7.68 -3 7 C-2.67 6.34 -2.34 5.68 -2 5 C-2.66 5 -3.32 5 -4 5 C-4 4.34 -4 3.68 -4 3 C-3.01 3 -2.02 3 -1 3 C-0.67 2.01 -0.34 1.02 0 0 Z " fill="#646460" transform="translate(119,33)"/>
<path d="M0 0 C0.33 0.66 0.66 1.32 1 2 C3.3140622 2.73075648 5.64828869 3.40138258 8 4 C6.375 5.1875 6.375 5.1875 4 6 C0.75 4.625 0.75 4.625 -2 3 C-1.34 2.01 -0.68 1.02 0 0 Z " fill="#5B5A55" transform="translate(126,24)"/>
<path d="M0 0 C1.32 0.99 2.64 1.98 4 3 C3.67 3.66 3.34 4.32 3 5 C0.5625 4.625 0.5625 4.625 -2 4 C-2.33 3.34 -2.66 2.68 -3 2 C-2.01 1.34 -1.02 0.68 0 0 Z " fill="#555351" transform="translate(89,76)"/>
<path d="M0 0 C0.99 0 1.98 0 3 0 C3.33 0.99 3.66 1.98 4 3 C3.67 3.66 3.34 4.32 3 5 C1.02 5 -0.96 5 -3 5 C-2 3 -2 3 -1 2 C-0.67 1.34 -0.34 0.68 0 0 Z " fill="#363533" transform="translate(61,75)"/>
<path d="M0 0 C0.99 0.33 1.98 0.66 3 1 C2.67 2.65 2.34 4.3 2 6 C1.01 6 0.02 6 -1 6 C-1.042721 4.33388095 -1.04063832 2.66617115 -1 1 C-0.67 0.67 -0.34 0.34 0 0 Z " fill="#232322" transform="translate(141,69)"/>
<path d="M0 0 C2.64 0 5.28 0 8 0 C7.34 1.65 6.68 3.3 6 5 C5.67 4.01 5.34 3.02 5 2 C3.68 2.33 2.36 2.66 1 3 C0.67 2.01 0.34 1.02 0 0 Z " fill="#5E5C58" transform="translate(109,67)"/>
<path d="M0 0 C0.99 0.99 1.98 1.98 3 3 C2.67 3.66 2.34 4.32 2 5 C2.66 5.33 3.32 5.66 4 6 C2.35 6 0.7 6 -1 6 C-1 2 -1 2 0 0 Z " fill="#504C4B" transform="translate(133,53)"/>
<path d="M0 0 C2 3 2 3 2 5 C2.66 5.33 3.32 5.66 4 6 C1.69 5.67 -0.62 5.34 -3 5 C-3 4.01 -3 3.02 -3 2 C-2.01 2 -1.02 2 0 2 C0 1.34 0 0.68 0 0 Z " fill="#4A4846" transform="translate(98,41)"/>
<path d="M0 0 C2.86724686 0.57344937 3.8614515 0.8614515 6 3 C6 3.99 6 4.98 6 6 C5.01 6.33 4.02 6.66 3 7 C3 5.68 3 4.36 3 3 C2.01 2.67 1.02 2.34 0 2 C0 1.34 0 0.68 0 0 Z " fill="#2E2D2B" transform="translate(63,35)"/>
<path d="M0 0 C-0.66 0 -1.32 0 -2 0 C-2.33 1.32 -2.66 2.64 -3 4 C-5.64 3.34 -8.28 2.68 -11 2 C-11 1.67 -11 1.34 -11 1 C-3.375 -1.125 -3.375 -1.125 0 0 Z " fill="#6C6B6A" transform="translate(71,33)"/>
<path d="M0 0 C0.99 0 1.98 0 3 0 C3 1.65 3 3.3 3 5 C2.01 5.33 1.02 5.66 0 6 C-1.125 2.25 -1.125 2.25 0 0 Z " fill="#282725" transform="translate(61,48)"/>
<path d="M0 0 C0 0.66 0 1.32 0 2 C-0.99 2.33 -1.98 2.66 -3 3 C-3.66 3.66 -4.32 4.32 -5 5 C-5.33 3.35 -5.66 1.7 -6 0 C-3.50907189 -1.24546405 -2.58919267 -0.7767578 0 0 Z " fill="#100E0D" transform="translate(112,74)"/>
<path d="M0 0 C0.99 0 1.98 0 3 0 C3.33 2.31 3.66 4.62 4 7 C3.01 7 2.02 7 1 7 C1.33 5.35 1.66 3.7 2 2 C1.34 2 0.68 2 0 2 C0 1.34 0 0.68 0 0 Z " fill="#282625" transform="translate(135,56)"/>
<path d="M0 0 C1.98 0 3.96 0 6 0 C6 3 6 3 5 5 C3 5 3 5 1.375 3.625 C0 2 0 2 0 0 Z " fill="#1C1A1A" transform="translate(65,57)"/>
<path d="M0 0 C0.33 0.99 0.66 1.98 1 3 C-0.65 3.33 -2.3 3.66 -4 4 C-4.66 3.01 -5.32 2.02 -6 1 C-3.92446352 0.4465236 -2.15634036 0 0 0 Z " fill="#1A1A19" transform="translate(98,53)"/>
<path d="M0 0 C2.475 0.495 2.475 0.495 5 1 C5.33 1.99 5.66 2.98 6 4 C4.35 4.33 2.7 4.66 1 5 C0.67 3.35 0.34 1.7 0 0 Z " fill="#494645" transform="translate(81,67)"/>
<path d="M0 0 C-0.66 1.65 -1.32 3.3 -2 5 C-2.99 4.67 -3.98 4.34 -5 4 C-5.33 3.01 -5.66 2.02 -6 1 C-3 0 -3 0 0 0 Z " fill="#6E6B66" transform="translate(120,62)"/>
<path d="M0 0 C1.65 0 3.3 0 5 0 C4.01 0.33 3.02 0.66 2 1 C2 1.99 2 2.98 2 4 C0.68 4.33 -0.64 4.66 -2 5 C-2.33 4.34 -2.66 3.68 -3 3 C-2.34 3 -1.68 3 -1 3 C-0.67 2.01 -0.34 1.02 0 0 Z " fill="#524F4D" transform="translate(116,55)"/>
<path d="M0 0 C0.33 0 0.66 0 1 0 C1 1.98 1 3.96 1 6 C-0.65 5.67 -2.3 5.34 -4 5 C-4 4.01 -4 3.02 -4 2 C-3.01 2.33 -2.02 2.66 -1 3 C-0.67 2.01 -0.34 1.02 0 0 Z " fill="#141211" transform="translate(70,47)"/>
<path d="M0 0 C1.67542976 0.28604898 3.34385343 0.61781233 5 1 C5.33 1.99 5.66 2.98 6 4 C2 4 2 4 0.25 2.5 C-0.1625 2.005 -0.575 1.51 -1 1 C-0.67 0.67 -0.34 0.34 0 0 Z " fill="#484744" transform="translate(147,26)"/>
<path d="M0 0 C2 1 2 1 3 3 C2.34 3 1.68 3 1 3 C0.67 3.99 0.34 4.98 0 6 C-0.66 6 -1.32 6 -2 6 C-2.33 4.68 -2.66 3.36 -3 2 C-2.01 1.34 -1.02 0.68 0 0 Z " fill="#272624" transform="translate(145,26)"/>
</svg>
