<?xml version="1.0" encoding="UTF-8"?>
<svg version="1.1" xmlns="http://www.w3.org/2000/svg" width="200" height="100">
<path d="M0 0 C2.64 0 5.28 0 8 0 C8.495 6.93 8.495 6.93 9 14 C9.99 13.01 10.98 12.02 12 11 C11.01 11 10.02 11 9 11 C9 9.02 9 7.04 9 5 C11.78601223 4.07132926 13.61066089 3.83657783 16.5 3.8125 C17.2734375 3.79832031 18.046875 3.78414062 18.84375 3.76953125 C21 4 21 4 24 6 C24.515625 5.01 25.03125 4.02 25.5625 3 C26.366875 2.01 27.17125 1.02 28 0 C31.75 -0.375 31.75 -0.375 35 0 C35.495 0.99 35.495 0.99 36 2 C35.67 2.66 35.34 3.32 35 4 C37.475 4.495 37.475 4.495 40 5 C40 6.65 40 8.3 40 10 C38.35 10 36.7 10 35 10 C35.495 13.96 35.495 13.96 36 18 C36.99 18.33 37.98 18.66 39 19 C39.0825 18.236875 39.165 17.47375 39.25 16.6875 C40.14615794 13.47626739 41.21611025 12.70625501 44 11 C43.01 11 42.02 11 41 11 C41 9.02 41 7.04 41 5 C45.4405267 3.51982443 49.9160511 3.34191087 54.375 4.75 C56.99899248 6.76845575 57.84934794 9.1415675 58.4140625 12.359375 C58.51847656 13.54273438 58.51847656 13.54273438 58.625 14.75 C58.73714844 15.94882812 58.73714844 15.94882812 58.8515625 17.171875 C58.90054688 17.77515625 58.94953125 18.3784375 59 19 C60.65 18.67 62.3 18.34 64 18 C64.061875 16.948125 64.12375 15.89625 64.1875 14.8125 C65.16213367 10.23921892 66.2647211 8.76085832 70 6 C75.43359494 4.53710906 80.51579231 5.19167007 86 6 C86.495 7.98 86.495 7.98 87 10 C87.474375 9.360625 87.94875 8.72125 88.4375 8.0625 C92.04263798 5.16080358 95.42674372 4.755876 100 5 C103.0625 6.4375 103.0625 6.4375 105 8 C105.66 7.01 106.32 6.02 107 5 C110.375 5.5625 110.375 5.5625 114 7 C115.4375 10.625 115.4375 10.625 116 14 C116.99 11.36 117.98 8.72 119 6 C121.64 6 124.28 6 127 6 C126.41161801 10.84111765 124.92346884 14.96071195 122.9375 19.375 C122.65583984 20.01566406 122.37417969 20.65632813 122.08398438 21.31640625 C121.39540579 22.88029659 120.69855289 24.44053941 120 26 C117.36 26 114.72 26 112 26 C111.01 23.69 110.02 21.38 109 19 C107.8553125 20.175625 107.8553125 20.175625 106.6875 21.375 C103.33235317 24.65212016 101.29242191 26.29535116 96.625 26.375 C92.26509854 26.303876 90.08931131 25.18896651 87 22 C86.608125 23.2375 86.21625 24.475 85.8125 25.75 C84.27113075 29.75613943 82.92715004 31.95105216 79 34 C74.745637 34.51681522 71.0694409 34.3564803 67 33 C67 31.02 67 29.04 67 27 C70.06890187 25.46554906 72.70094266 26.45015711 76 27 C76 26.67 76 26.34 76 26 C74.906875 25.87625 73.81375 25.7525 72.6875 25.625 C69 25 69 25 66 23 C65.34 23.66 64.68 24.32 64 25 C62.32457024 24.71395102 60.65614657 24.38218767 59 24 C58.505 24.495 58.505 24.495 58 25 C55.53018231 25.1002074 53.09448776 25.13877038 50.625 25.125 C49.93921875 25.12886719 49.2534375 25.13273437 48.546875 25.13671875 C45.42777362 25.13065046 42.98024365 24.99341455 40 24 C39.505 24.495 39.505 24.495 39 25 C32.84440361 25.46457331 32.84440361 25.46457331 29.8203125 23.80078125 C27.49477863 21.50019946 27.39178025 20.16322763 27.1875 16.9375 C27.08501953 15.62072266 27.08501953 15.62072266 26.98046875 14.27734375 C27 12 27 12 28 10 C27.34 10 26.68 10 26 10 C26.08378906 10.99902344 26.16757812 11.99804688 26.25390625 13.02734375 C26.40666016 14.96287109 26.40666016 14.96287109 26.5625 16.9375 C26.71912109 18.86916016 26.71912109 18.86916016 26.87890625 20.83984375 C26.93884766 22.40412109 26.93884766 22.40412109 27 24 C26 25 26 25 23.0625 25.0625 C21.5465625 25.0315625 21.5465625 25.0315625 20 25 C18.16619324 25 16.33263836 25.05954863 14.5 25.125 C11 25 11 25 9 23 C8.34 23.66 7.68 24.32 7 25 C-6.8966212 26.5791615 -6.8966212 26.5791615 -11.9375 23.125 C-14.83340809 18.73726047 -15.00766899 15.11392013 -14 10 C-12.20353146 7.06576805 -11.0558929 5.52794645 -8 4 C-2.46153846 3.76923077 -2.46153846 3.76923077 0 5 C0 3.35 0 1.7 0 0 Z M-5 10 C-6.41577477 11.18424326 -6.41577477 11.18424326 -6.0625 14.5625 C-6.041875 15.696875 -6.02125 16.83125 -6 18 C-3.525 18.495 -3.525 18.495 -1 19 C-0.32326553 15.59679066 -0.32326553 15.59679066 0 12 C-0.66 11.34 -1.32 10.68 -2 10 C-2.99 10 -3.98 10 -5 10 Z M95 11 C93.79438816 11.98267859 93.79438816 11.98267859 93.90234375 13.84765625 C93.91394531 14.57855469 93.92554687 15.30945313 93.9375 16.0625 C93.958125 17.361875 93.97875 18.66125 94 20 C95.32 20.33 96.64 20.66 98 21 C100.36692966 18.15173402 100.36692966 18.15173402 99.625 14.8125 C99.41875 13.884375 99.2125 12.95625 99 12 C97.05396726 11.40929986 97.05396726 11.40929986 95 11 Z M75 11 C74.01 11.495 74.01 11.495 73 12 C73 14.31 73 16.62 73 19 C74.94603274 19.59070014 74.94603274 19.59070014 77 20 C78.41577477 18.81575674 78.41577477 18.81575674 78.0625 15.4375 C78.041875 14.303125 78.02125 13.16875 78 12 C77.01 11.67 76.02 11.34 75 11 Z M16 16 C15.67 17.32 15.34 18.64 15 20 C16.32 19.67 17.64 19.34 19 19 C19 18.01 19 17.02 19 16 C18.01 16 17.02 16 16 16 Z M46 17 C46.33 17.99 46.66 18.98 47 20 C47.99 19.67 48.98 19.34 50 19 C50 18.01 50 17.02 50 16 C47.9254644 15.8509288 47.9254644 15.8509288 46 17 Z " fill="#193176" transform="translate(24,29)"/>
<path d="M0 0 C0 0.66 0 1.32 0 2 C0.70125 2.185625 1.4025 2.37125 2.125 2.5625 C6.34850142 4.67425071 8.94756152 6.66632661 11 11 C12.15792389 17.49533637 12.62469923 23.94198215 9.44140625 29.93359375 C4.6497172 35.62197314 -0.06755992 38.57866713 -7.5 39.375 C-13.65258671 38.71579428 -18.5766141 36.30383493 -23 32 C-26.6662131 27.04999511 -28.51737489 22.13899912 -27.734375 15.875 C-26.25524146 9.78942199 -22.82209639 5.70831235 -18.1171875 1.6875 C-12.32880724 -1.44605924 -6.41708173 -0.69304483 0 0 Z M-20 10 C-20 15.61 -20 21.22 -20 27 C-18.35 27 -16.7 27 -15 27 C-15 21.39 -15 15.78 -15 10 C-16.65 10 -18.3 10 -20 10 Z M-11 10 C-11 15.61 -11 21.22 -11 27 C-9.68 27 -8.36 27 -7 27 C-6.67 22.71 -6.34 18.42 -6 14 C-3.69 14 -1.38 14 1 14 C1.33 18.29 1.66 22.58 2 27 C3.32 26.67 4.64 26.34 6 26 C5.88628503 23.70774565 5.75869036 21.41617612 5.625 19.125 C5.55539063 17.84882812 5.48578125 16.57265625 5.4140625 15.2578125 C5.32758894 11.91938301 5.32758894 11.91938301 3 10 C-1.14509433 9.71397838 -1.14509433 9.71397838 -5 11 C-5 11.66 -5 12.32 -5 13 C-5.99 13 -6.98 13 -8 13 C-7.67 12.01 -7.34 11.02 -7 10 C-8.32 10 -9.64 10 -11 10 Z " fill="#FFAE09" transform="translate(179,26)"/>
<path d="M0 0 C1.80404297 0.27457031 1.80404297 0.27457031 3.64453125 0.5546875 C5.92618863 0.92196642 8.19814752 1.35980912 10.44921875 1.8828125 C11.80466797 2.00269531 11.80466797 2.00269531 13.1875 2.125 C13.62980957 1.618479 14.07211914 1.11195801 14.52783203 0.59008789 C16.1875 -0.875 16.1875 -0.875 18.60229492 -0.73706055 C19.55209229 -0.51832275 20.50188965 -0.29958496 21.48046875 -0.07421875 C28.53776974 1.30792013 35.32767599 1.38549098 42.5 1.3125 C43.72267578 1.31185547 44.94535156 1.31121094 46.20507812 1.31054688 C51.96021821 1.28241202 57.52197109 1.17107255 63.1875 0.125 C64.01388376 3.01734315 64.1875 5.01242431 64.1875 8.125 C24.1875 8.125 24.1875 8.125 22.1875 7.5625 C20.16861809 6.95907906 20.16861809 6.95907906 18.125 7.6875 C17.485625 7.831875 16.84625 7.97625 16.1875 8.125 C15.1975 7.465 14.2075 6.805 13.1875 6.125 C12.8575 6.785 12.5275 7.445 12.1875 8.125 C8.52083333 8.125 4.85416667 8.125 1.1875 8.125 C0.4965625 8.14820312 -0.194375 8.17140625 -0.90625 8.1953125 C-1.7003125 8.21335937 -2.494375 8.23140625 -3.3125 8.25 C-4.1065625 8.27320312 -4.900625 8.29640625 -5.71875 8.3203125 C-7.8125 8.125 -7.8125 8.125 -9.8125 6.125 C-9.9375 3 -9.9375 3 -9.8125 0.125 C-6.1140924 -1.10780253 -3.84081517 -0.59718745 0 0 Z M-6.8125 2.125 C-5.8125 4.125 -5.8125 4.125 -5.8125 4.125 Z " fill="#5B5B5B" transform="translate(19.8125,66.875)"/>
<path d="M0 0 C2.76501119 0.13654376 4.55453545 -0.10170439 7.1640625 -0.84375 C7.4940625 -0.51375 7.8240625 -0.18375 8.1640625 0.15625 C10.49392373 0.36593751 12.82850286 0.52440389 15.1640625 0.65625 C22.05295139 1.04513889 22.05295139 1.04513889 23.1640625 2.15625 C23.1640625 4.13625 23.1640625 6.11625 23.1640625 8.15625 C18.2140625 8.15625 13.2640625 8.15625 8.1640625 8.15625 C8.1640625 7.49625 8.1640625 6.83625 8.1640625 6.15625 C7.5040625 6.15625 6.8440625 6.15625 6.1640625 6.15625 C6.1640625 6.81625 6.1640625 7.47625 6.1640625 8.15625 C2.2040625 8.15625 -1.7559375 8.15625 -5.8359375 8.15625 C-6.1659375 7.16625 -6.4959375 6.17625 -6.8359375 5.15625 C-7.4959375 5.15625 -8.1559375 5.15625 -8.8359375 5.15625 C-8.8359375 6.14625 -8.8359375 7.13625 -8.8359375 8.15625 C-9.8259375 7.82625 -10.8159375 7.49625 -11.8359375 7.15625 C-11.8359375 4.84625 -11.8359375 2.53625 -11.8359375 0.15625 C-8.21688343 -1.65327703 -3.93593551 -0.39092813 0 0 Z " fill="#5C5C5C" transform="translate(144.8359375,66.84375)"/>
<path d="M0 0 C6.625 -0.125 6.625 -0.125 10 1 C12.33595238 0.68554487 14.66905466 0.3496418 17 0 C19.33212027 -0.07522969 21.6685311 -0.09325876 24 0 C25 1 25 1 25.0625 4.5625 C25.041875 5.696875 25.02125 6.83125 25 8 C20.32798795 9.20568053 15.78503708 9.09382426 11 9 C11 8.34 11 7.68 11 7 C10.01 7 9.02 7 8 7 C8 7.66 8 8.32 8 9 C5.36 9 2.72 9 0 9 C0 6.03 0 3.06 0 0 Z M6 2 C7 5 7 5 7 5 Z M2 3 C3 6 3 6 3 6 Z M18 3 C19 5 19 5 19 5 Z " fill="#5B5B5B" transform="translate(107,66)"/>
<path d="M0 0 C0 2.31 0 4.62 0 7 C-3.14581423 7.02888514 -6.29159469 7.04675923 -9.4375 7.0625 C-10.78424805 7.07506836 -10.78424805 7.07506836 -12.15820312 7.08789062 C-13.43920898 7.09272461 -13.43920898 7.09272461 -14.74609375 7.09765625 C-15.53685303 7.10289307 -16.3276123 7.10812988 -17.14233398 7.11352539 C-19 7 -19 7 -20 6 C-20.04092937 3.66702567 -20.04241723 1.33294775 -20 -1 C-18.205625 -0.690625 -18.205625 -0.690625 -16.375 -0.375 C-13.25181948 0.03739179 -11.95986 -0.0136476 -8.875 -1.0625 C-5.23202482 -2.25042669 -3.45181272 -1.47934831 0 0 Z " fill="#5B5B5B" transform="translate(190,68)"/>
<path d="M0 0 C0.79792969 0.10054688 1.59585938 0.20109375 2.41796875 0.3046875 C3.20816406 0.41039063 3.99835938 0.51609375 4.8125 0.625 C5.50988281 0.71007812 6.20726563 0.79515625 6.92578125 0.8828125 C11.68067102 1.49317102 11.68067102 1.49317102 12.8125 2.625 C12.85313832 4.29117115 12.855221 5.95888095 12.8125 7.625 C9.07538077 8.45547094 5.65062815 9.15865011 1.875 8.0625 C-0.70539409 7.51514368 -2.63489763 8.07308597 -5.1875 8.625 C-6.1875 7.625 -6.1875 7.625 -6.25 4.0625 C-6.229375 2.928125 -6.20875 1.79375 -6.1875 0.625 C-3.75601667 -0.59074166 -2.66929468 -0.33997901 0 0 Z M-3.1875 2.625 C-2.1875 4.625 -2.1875 4.625 -2.1875 4.625 Z " fill="#5C5C5C" transform="translate(92.1875,66.375)"/>
</svg>
