<?xml version="1.0" encoding="UTF-8"?>
<svg version="1.1" xmlns="http://www.w3.org/2000/svg" width="80" height="81">
<path d="M0 0 C3.25 1.25 3.25 1.25 5.25 2.25 C6.62342831 2.3189472 8.00002102 2.33467708 9.375 2.3125 C11.293125 2.2815625 11.293125 2.2815625 13.25 2.25 C13.25 2.91 13.25 3.57 13.25 4.25 C13.91 4.25 14.57 4.25 15.25 4.25 C15.25 4.91 15.25 5.57 15.25 6.25 C15.91 6.25 16.57 6.25 17.25 6.25 C17.25 6.91 17.25 7.57 17.25 8.25 C21.705 9.24 21.705 9.24 26.25 10.25 C26.76355204 12.30420818 27.27223794 14.36118972 27.6875 16.4375 C27.873125 17.035625 28.05875 17.63375 28.25 18.25 C28.91 18.58 29.57 18.91 30.25 19.25 C30.25 19.91 30.25 20.57 30.25 21.25 C30.91 21.25 31.57 21.25 32.25 21.25 C32.25 21.91 32.25 22.57 32.25 23.25 C32.91 23.25 33.57 23.25 34.25 23.25 C34.375 31 34.375 31 33.25 33.25 C33.91 33.25 34.57 33.25 35.25 33.25 C37.28844169 37.32688338 37.32759755 39.84164639 36.25 44.25 C35.755 45.24 35.755 45.24 35.25 46.25 C34.59 46.25 33.93 46.25 33.25 46.25 C33.415 47.343125 33.58 48.43625 33.75 49.5625 C34.25 53.25 34.25 53.25 34.25 56.25 C33.59 56.25 32.93 56.25 32.25 56.25 C32.25 56.91 32.25 57.57 32.25 58.25 C31.63125 58.641875 31.0125 59.03375 30.375 59.4375 C27.90542086 61.18860329 27.90542086 61.18860329 27.375 64.75 C26.25 68.25 26.25 68.25 23.375 70.0625 C21.828125 70.6503125 21.828125 70.6503125 20.25 71.25 C17.03062955 72.60869934 17.03062955 72.60869934 15 75.375 C13.25 77.25 13.25 77.25 11.35546875 77.54296875 C8.41289509 77.56947842 5.91600924 77.58300462 3.25 76.25 C3.25 76.91 3.25 77.57 3.25 78.25 C-2.84326425 80.6126943 -2.84326425 80.6126943 -7.1875 78.875 C-8.363125 78.33875 -9.53875 77.8025 -10.75 77.25 C-12.80214053 77.22466345 -12.80214053 77.22466345 -14.875 77.4375 C-16.15375 77.375625 -17.4325 77.31375 -18.75 77.25 C-20.48223664 75.30651499 -22.14881603 73.30279996 -23.75 71.25 C-24.94625 70.92 -26.1425 70.59 -27.375 70.25 C-30.75 69.25 -30.75 69.25 -32.6875 66.3125 C-33.75 63.25 -33.75 63.25 -33.75 60.25 C-34.41 60.25 -35.07 60.25 -35.75 60.25 C-35.75 59.59 -35.75 58.93 -35.75 58.25 C-36.41 58.25 -37.07 58.25 -37.75 58.25 C-37.75 57.59 -37.75 56.93 -37.75 56.25 C-38.41 56.25 -39.07 56.25 -39.75 56.25 C-39.71519531 55.68152344 -39.68039063 55.11304688 -39.64453125 54.52734375 C-39.49414992 50.23789527 -39.5813104 47.62630757 -41.375 43.625 C-43.17874053 39.19763689 -42.43585442 37.59772983 -40.75 33.25 C-40.09 33.25 -39.43 33.25 -38.75 33.25 C-38.915 32.156875 -39.08 31.06375 -39.25 29.9375 C-39.75 26.25 -39.75 26.25 -39.75 23.25 C-39.09 23.25 -38.43 23.25 -37.75 23.25 C-37.75 22.59 -37.75 21.93 -37.75 21.25 C-37.09 21.25 -36.43 21.25 -35.75 21.25 C-35.75 20.59 -35.75 19.93 -35.75 19.25 C-35.09 18.92 -34.43 18.59 -33.75 18.25 C-33.37875 16.579375 -33.37875 16.579375 -33 14.875 C-31.75 11.25 -31.75 11.25 -28.8125 9.3125 C-25.75 8.25 -25.75 8.25 -22.75 8.25 C-22.75 7.59 -22.75 6.93 -22.75 6.25 C-22.09 6.25 -21.43 6.25 -20.75 6.25 C-20.75 5.59 -20.75 4.93 -20.75 4.25 C-20.09 4.25 -19.43 4.25 -18.75 4.25 C-18.75 3.59 -18.75 2.93 -18.75 2.25 C-18.16992188 2.28480469 -17.58984375 2.31960938 -16.9921875 2.35546875 C-12.87316792 2.49820705 -10.35631725 2.56528497 -6.625 0.625 C-3.75 -0.75 -3.75 -0.75 0 0 Z " fill="#FEEF00" transform="translate(42.75,0.75)"/>
<path d="M0 0 C3.25 1.25 3.25 1.25 5.25 2.25 C6.62342831 2.3189472 8.00002102 2.33467708 9.375 2.3125 C11.293125 2.2815625 11.293125 2.2815625 13.25 2.25 C13.25 2.91 13.25 3.57 13.25 4.25 C13.91 4.25 14.57 4.25 15.25 4.25 C15.25 4.91 15.25 5.57 15.25 6.25 C15.91 6.25 16.57 6.25 17.25 6.25 C17.25 6.91 17.25 7.57 17.25 8.25 C21.705 9.24 21.705 9.24 26.25 10.25 C26.76355204 12.30420818 27.27223794 14.36118972 27.6875 16.4375 C27.873125 17.035625 28.05875 17.63375 28.25 18.25 C28.91 18.58 29.57 18.91 30.25 19.25 C30.25 19.91 30.25 20.57 30.25 21.25 C30.91 21.25 31.57 21.25 32.25 21.25 C32.25 21.91 32.25 22.57 32.25 23.25 C32.91 23.25 33.57 23.25 34.25 23.25 C34.375 31 34.375 31 33.25 33.25 C33.91 33.25 34.57 33.25 35.25 33.25 C37.28844169 37.32688338 37.32759755 39.84164639 36.25 44.25 C35.755 45.24 35.755 45.24 35.25 46.25 C34.59 46.25 33.93 46.25 33.25 46.25 C33.415 47.343125 33.58 48.43625 33.75 49.5625 C34.25 53.25 34.25 53.25 34.25 56.25 C33.59 56.25 32.93 56.25 32.25 56.25 C32.25 56.91 32.25 57.57 32.25 58.25 C31.63125 58.641875 31.0125 59.03375 30.375 59.4375 C27.90542086 61.18860329 27.90542086 61.18860329 27.375 64.75 C26.25 68.25 26.25 68.25 23.375 70.0625 C21.828125 70.6503125 21.828125 70.6503125 20.25 71.25 C17.03062955 72.60869934 17.03062955 72.60869934 15 75.375 C13.25 77.25 13.25 77.25 11.35546875 77.54296875 C8.41289509 77.56947842 5.91600924 77.58300462 3.25 76.25 C3.25 76.91 3.25 77.57 3.25 78.25 C-2.84326425 80.6126943 -2.84326425 80.6126943 -7.1875 78.875 C-8.363125 78.33875 -9.53875 77.8025 -10.75 77.25 C-12.80214053 77.22466345 -12.80214053 77.22466345 -14.875 77.4375 C-16.15375 77.375625 -17.4325 77.31375 -18.75 77.25 C-20.48223664 75.30651499 -22.14881603 73.30279996 -23.75 71.25 C-24.94625 70.92 -26.1425 70.59 -27.375 70.25 C-30.75 69.25 -30.75 69.25 -32.6875 66.3125 C-33.75 63.25 -33.75 63.25 -33.75 60.25 C-34.41 60.25 -35.07 60.25 -35.75 60.25 C-35.75 59.59 -35.75 58.93 -35.75 58.25 C-36.41 58.25 -37.07 58.25 -37.75 58.25 C-37.75 57.59 -37.75 56.93 -37.75 56.25 C-38.41 56.25 -39.07 56.25 -39.75 56.25 C-39.71519531 55.68152344 -39.68039063 55.11304688 -39.64453125 54.52734375 C-39.49414992 50.23789527 -39.5813104 47.62630757 -41.375 43.625 C-43.17874053 39.19763689 -42.43585442 37.59772983 -40.75 33.25 C-40.09 33.25 -39.43 33.25 -38.75 33.25 C-38.915 32.156875 -39.08 31.06375 -39.25 29.9375 C-39.75 26.25 -39.75 26.25 -39.75 23.25 C-39.09 23.25 -38.43 23.25 -37.75 23.25 C-37.75 22.59 -37.75 21.93 -37.75 21.25 C-37.09 21.25 -36.43 21.25 -35.75 21.25 C-35.75 20.59 -35.75 19.93 -35.75 19.25 C-35.09 18.92 -34.43 18.59 -33.75 18.25 C-33.37875 16.579375 -33.37875 16.579375 -33 14.875 C-31.75 11.25 -31.75 11.25 -28.8125 9.3125 C-25.75 8.25 -25.75 8.25 -22.75 8.25 C-22.75 7.59 -22.75 6.93 -22.75 6.25 C-22.09 6.25 -21.43 6.25 -20.75 6.25 C-20.75 5.59 -20.75 4.93 -20.75 4.25 C-20.09 4.25 -19.43 4.25 -18.75 4.25 C-18.75 3.59 -18.75 2.93 -18.75 2.25 C-18.16992188 2.28480469 -17.58984375 2.31960938 -16.9921875 2.35546875 C-12.87316792 2.49820705 -10.35631725 2.56528497 -6.625 0.625 C-3.75 -0.75 -3.75 -0.75 0 0 Z M-22.375 15.3125 C-28.65805588 20.45903041 -31.7227067 26.24110173 -32.75 34.25 C-33.71295388 44.31835323 -32.53255137 51.81381204 -26.75 60.25 C-24.83552997 62.40500601 -23.19791997 63.61805335 -20.75 65.25 C-20.19699219 65.62640625 -19.64398438 66.0028125 -19.07421875 66.390625 C-17.64380337 67.36016669 -16.19808863 68.30705856 -14.75 69.25 C-14.255 69.745 -14.255 69.745 -13.75 70.25 C-15.73 70.745 -15.73 70.745 -17.75 71.25 C-17.75 72.57 -17.75 73.89 -17.75 75.25 C-16.77160156 75.32347656 -16.77160156 75.32347656 -15.7734375 75.3984375 C-8.25638298 76.04148936 -8.25638298 76.04148936 -4.5625 77.5625 C-1.27029976 78.36726006 -0.71447207 77.99026854 2.125 76.375 C3.15625 75.67375 4.1875 74.9725 5.25 74.25 C4.92 73.26 4.59 72.27 4.25 71.25 C0.29 71.25 -3.67 71.25 -7.75 71.25 C-6.89277344 71.21261719 -6.03554688 71.17523438 -5.15234375 71.13671875 C5.04810853 70.55022149 12.73685986 68.4010611 20.25 61.25 C22.98098431 58.12417458 24.99427393 55.22741289 26.25 51.25 C25.83950101 45.93438595 24.1910228 41.66153421 21.25 37.25 C22.24 36.92 23.23 36.59 24.25 36.25 C22.93 36.25 21.61 36.25 20.25 36.25 C20.20875 35.26 20.1675 34.27 20.125 33.25 C19.41859307 28.29505997 16.67751411 24.7763847 13.25 21.25 C10.68530507 19.59939366 10.68530507 19.59939366 8.25 19.25 C7.59 19.58 6.93 19.91 6.25 20.25 C6.20875 19.63125 6.1675 19.0125 6.125 18.375 C5.41154724 15.94020523 5.41154724 15.94020523 2.5 15.0625 C-0.24337098 14.37665725 -2.96560963 13.74136301 -5.75 13.25 C-5.75 14.24 -5.75 15.23 -5.75 16.25 C-6.41 15.92 -7.07 15.59 -7.75 15.25 C-7.42 13.93 -7.09 12.61 -6.75 11.25 C-12.62022125 8.9019115 -17.66742576 11.93651914 -22.375 15.3125 Z " fill="#F5C608" transform="translate(42.75,0.75)"/>
<path d="M0 0 C-0.66 1.65 -1.32 3.3 -2 5 C-3.175625 4.9690625 -3.175625 4.9690625 -4.375 4.9375 C-6.98114961 4.81315937 -6.98114961 4.81315937 -9 6 C-9.33 6.99 -9.66 7.98 -10 9 C-12 10 -12 10 -15 11 C-15.99208401 13.26198081 -15.99208401 13.26198081 -16.625 15.9375 C-17.95665635 20.91331269 -17.95665635 20.91331269 -19 23 C-19.66 23 -20.32 23 -21 23 C-20.67 24.32 -20.34 25.64 -20 27 C-20.99 27 -21.98 27 -23 27 C-23 27.66 -23 28.32 -23 29 C-21.68 29 -20.36 29 -19 29 C-18.83564453 30.01320313 -18.83564453 30.01320313 -18.66796875 31.046875 C-18.50941406 31.93890625 -18.35085937 32.8309375 -18.1875 33.75 C-18.03667969 34.63171875 -17.88585938 35.5134375 -17.73046875 36.421875 C-16.94333232 39.20000356 -15.77635698 40.76130354 -14 43 C-14 43.66 -14 44.32 -14 45 C-13.34 45 -12.68 45 -12 45 C-11 48 -11 48 -11 50 C-10.4225 49.79375 -9.845 49.5875 -9.25 49.375 C-7 49 -7 49 -5.15625 49.9296875 C1.33293114 53.15076655 8.35713757 52.05324839 15 50 C15.33 50 15.66 50 16 50 C17.03161048 48.90391386 18.02583996 47.77244813 19 46.625 C19.53625 45.99851563 20.0725 45.37203125 20.625 44.7265625 C22.06765258 43.03750026 22.06765258 43.03750026 23 41 C24.32 41.33 25.64 41.66 27 42 C27 41.34 27 40.68 27 40 C26.34 40 25.68 40 25 40 C25.495 35.05 25.495 35.05 26 30 C27.65 30 29.3 30 31 30 C32.30918973 33.02983909 32.98568208 35.68778701 33 39 C30.06888255 46.26276883 24.91837879 52.2886454 18 56 C13.66978731 57.71166521 9.76177214 58.34111599 5.125 58.625 C3.97257812 58.69976562 2.82015625 58.77453125 1.6328125 58.8515625 C0.76398437 58.90054688 -0.10484375 58.94953125 -1 59 C2.96 59 6.92 59 11 59 C11.33 59.99 11.66 60.98 12 62 C9.63294695 63.60959607 7.63332162 64.9541798 5 66 C2.1875 65.3125 2.1875 65.3125 -1 64 C-4.32242773 63.52536747 -7.65389178 63.25128876 -11 63 C-10.67 61.35 -10.34 59.7 -10 58 C-8.35 58 -6.7 58 -5 58 C-5.825 57.62875 -6.65 57.2575 -7.5 56.875 C-16.64846992 51.97403397 -22.64437449 46.06687652 -26 36 C-26.65964282 23.92700233 -25.97622904 14.52228224 -18 5 C-12.88699272 0.13143929 -6.83737746 -4.47059295 0 0 Z " fill="#F6CA08" transform="translate(36,13)"/>
<path d="M0 0 C3.25 1.25 3.25 1.25 5.25 2.25 C6.62342831 2.3189472 8.00002102 2.33467708 9.375 2.3125 C11.293125 2.2815625 11.293125 2.2815625 13.25 2.25 C13.25 2.91 13.25 3.57 13.25 4.25 C8.19385559 6.07021199 3.56464177 4.84756444 -1.1875 2.6875 C-2.4559375 1.9759375 -2.4559375 1.9759375 -3.75 1.25 C-4.41 2.57 -5.07 3.89 -5.75 5.25 C-5.75 4.59 -5.75 3.93 -5.75 3.25 C-6.79800781 3.48396484 -6.79800781 3.48396484 -7.8671875 3.72265625 C-8.77726562 3.91730469 -9.68734375 4.11195313 -10.625 4.3125 C-11.98238281 4.60833984 -11.98238281 4.60833984 -13.3671875 4.91015625 C-15.75 5.25 -15.75 5.25 -17.75 4.25 C-17.42 5.9 -17.09 7.55 -16.75 9.25 C-16.09 9.25 -15.43 9.25 -14.75 9.25 C-14.75 9.91 -14.75 10.57 -14.75 11.25 C-16.44401174 12.48713291 -18.18186395 13.66449492 -19.9375 14.8125 C-26.12526459 19.20047721 -29.79256468 23.60865793 -31.33984375 31.109375 C-32.77071529 42.06576282 -32.34909006 51.00268508 -25.75 60.25 C-20.92529379 64.46881288 -15.82466519 68.10600052 -9.75 70.25 C-12.24064888 70.93707555 -14.12886292 71.25 -16.75 71.25 C-17.08 72.57 -17.41 73.89 -17.75 75.25 C-16.77160156 75.19779297 -16.77160156 75.19779297 -15.7734375 75.14453125 C-10.26434628 74.97389568 -6.55761576 75.2136111 -1.75 78.25 C-1.75 78.91 -1.75 79.57 -1.75 80.25 C-3.3278125 79.7859375 -3.3278125 79.7859375 -4.9375 79.3125 C-10.52139488 77.64520235 -10.52139488 77.64520235 -16.25 77.5625 C-18.75 77.25 -18.75 77.25 -21.125 74.375 C-21.53234375 73.82070312 -21.9396875 73.26640625 -22.359375 72.6953125 C-23.86229693 70.88726528 -23.86229693 70.88726528 -27.375 70.25 C-30.75 69.25 -30.75 69.25 -32.6875 66.3125 C-33.75 63.25 -33.75 63.25 -33.75 60.25 C-34.41 60.25 -35.07 60.25 -35.75 60.25 C-35.75 59.59 -35.75 58.93 -35.75 58.25 C-36.41 58.25 -37.07 58.25 -37.75 58.25 C-37.75 57.59 -37.75 56.93 -37.75 56.25 C-38.41 56.25 -39.07 56.25 -39.75 56.25 C-39.71519531 55.68152344 -39.68039063 55.11304688 -39.64453125 54.52734375 C-39.49414992 50.23789527 -39.5813104 47.62630757 -41.375 43.625 C-43.17874053 39.19763689 -42.43585442 37.59772983 -40.75 33.25 C-40.09 33.25 -39.43 33.25 -38.75 33.25 C-38.915 32.156875 -39.08 31.06375 -39.25 29.9375 C-39.75 26.25 -39.75 26.25 -39.75 23.25 C-39.09 23.25 -38.43 23.25 -37.75 23.25 C-37.75 22.59 -37.75 21.93 -37.75 21.25 C-37.09 21.25 -36.43 21.25 -35.75 21.25 C-35.75 20.59 -35.75 19.93 -35.75 19.25 C-35.09 18.92 -34.43 18.59 -33.75 18.25 C-33.37875 16.579375 -33.37875 16.579375 -33 14.875 C-31.75 11.25 -31.75 11.25 -28.8125 9.3125 C-25.75 8.25 -25.75 8.25 -22.75 8.25 C-22.75 7.59 -22.75 6.93 -22.75 6.25 C-22.09 6.25 -21.43 6.25 -20.75 6.25 C-20.75 5.59 -20.75 4.93 -20.75 4.25 C-20.09 4.25 -19.43 4.25 -18.75 4.25 C-18.75 3.59 -18.75 2.93 -18.75 2.25 C-18.16992188 2.28480469 -17.58984375 2.31960938 -16.9921875 2.35546875 C-12.87316792 2.49820705 -10.35631725 2.56528497 -6.625 0.625 C-3.75 -0.75 -3.75 -0.75 0 0 Z " fill="#EEA00F" transform="translate(42.75,0.75)"/>
<path d="M0 0 C0.66 0 1.32 0 2 0 C2 0.66 2 1.32 2 2 C2.66 2 3.32 2 4 2 C4 2.66 4 3.32 4 4 C6.97 4.66 9.94 5.32 13 6 C13.51355204 8.05420818 14.02223794 10.11118972 14.4375 12.1875 C14.623125 12.785625 14.80875 13.38375 15 14 C15.66 14.33 16.32 14.66 17 15 C17 15.66 17 16.32 17 17 C17.66 17 18.32 17 19 17 C19 17.66 19 18.32 19 19 C19.66 19 20.32 19 21 19 C21.125 26.75 21.125 26.75 20 29 C20.66 29 21.32 29 22 29 C24.03844169 33.07688338 24.07759755 35.59164639 23 40 C22.505 40.99 22.505 40.99 22 42 C21.34 42 20.68 42 20 42 C20.2475 43.6396875 20.2475 43.6396875 20.5 45.3125 C21 49 21 49 21 52 C20.34 52 19.68 52 19 52 C19 52.66 19 53.32 19 54 C18.38125 54.391875 17.7625 54.78375 17.125 55.1875 C14.65542086 56.93860329 14.65542086 56.93860329 14.125 60.5 C13 64 13 64 10.125 65.8125 C8.578125 66.4003125 8.578125 66.4003125 7 67 C3.78062955 68.35869934 3.78062955 68.35869934 1.75 71.125 C-0 73 -0 73 -1.89453125 73.29296875 C-4.83710491 73.31947842 -7.33399076 73.33300462 -10 72 C-10 72.66 -10 73.32 -10 74 C-11.98 74.495 -11.98 74.495 -14 75 C-14.33 74.34 -14.66 73.68 -15 73 C-10.25 70 -10.25 70 -8 70 C-8.33 69.34 -8.66 68.68 -9 68 C-12.96 68 -16.92 68 -21 68 C-21.33 67.34 -21.66 66.68 -22 66 C-20.60587891 65.94392578 -20.60587891 65.94392578 -19.18359375 65.88671875 C-9.67530763 65.44407649 -9.67530763 65.44407649 -1 62 C-0.41992188 61.68417969 0.16015625 61.36835937 0.7578125 61.04296875 C7.00751036 57.21469062 10.7149004 50.8552988 13 44 C13.26730154 40.90693933 13.44451759 37.81431891 13.62109375 34.71484375 C14 32 14 32 16 30 C16 34.29 16 38.58 16 43 C20.00758647 39.45203758 20.00758647 39.45203758 21 35 C20.690625 34.29875 20.38125 33.5975 20.0625 32.875 C18.49171511 28.62464089 18.84325874 24.48454152 19 20 C18.34 20 17.68 20 17 20 C13.83943569 17.33327386 12.2147856 14.9480532 11 11 C11 10.01 11 9.02 11 8 C10.443125 7.87625 9.88625 7.7525 9.3125 7.625 C6.68771772 6.91559938 4.41552105 6.27132687 2 5 C0.6875 2.375 0.6875 2.375 0 0 Z " fill="#EB9112" transform="translate(56,5)"/>
<path d="M0 0 C1.65 0.99 3.3 1.98 5 3 C4.4740625 4.670625 4.4740625 4.670625 3.9375 6.375 C2.62760669 9.80264476 2.62760669 9.80264476 4 12 C4.99 12 5.98 12 7 12 C7 12.66 7 13.32 7 14 C7.99 14 8.98 14 10 14 C10 14.66 10 15.32 10 16 C9.01 16.33 8.02 16.66 7 17 C6.67 16.34 6.34 15.68 6 15 C6 15.99 6 16.98 6 18 C6.66 18.33 7.32 18.66 8 19 C8 19.66 8 20.32 8 21 C9.32 20.67 10.64 20.34 12 20 C12 20.66 12 21.32 12 22 C10.865625 22.268125 9.73125 22.53625 8.5625 22.8125 C7.386875 23.204375 6.21125 23.59625 5 24 C4.67 24.99 4.34 25.98 4 27 C1.69 27.33 -0.62 27.66 -3 28 C-3 28.99 -3 29.98 -3 31 C-4.65 31.66 -6.3 32.32 -8 33 C-8 32.01 -8 31.02 -8 30 C-9.32 30 -10.64 30 -12 30 C-11.01 31.32 -10.02 32.64 -9 34 C-9.33 34.66 -9.66 35.32 -10 36 C-7.65147472 37.17426264 -6.26225935 37.11508173 -3.6484375 37.09765625 C-2.37226562 37.09282227 -2.37226562 37.09282227 -1.0703125 37.08789062 C0.26386719 37.07532227 0.26386719 37.07532227 1.625 37.0625 C2.5221875 37.05798828 3.419375 37.05347656 4.34375 37.04882812 C6.56256648 37.03702591 8.78125018 37.02056155 11 37 C11 36.34 11 35.68 11 35 C9.35 35 7.7 35 6 35 C5.34 33.35 4.68 31.7 4 30 C5.65 30.33 7.3 30.66 9 31 C9 31.66 9 32.32 9 33 C9.45375 32.505 9.9075 32.01 10.375 31.5 C12 30 12 30 14 30 C13.57742724 31.4835001 13.13643678 32.96176424 12.6875 34.4375 C12.44386719 35.26121094 12.20023438 36.08492187 11.94921875 36.93359375 C11.63597656 37.61550781 11.32273437 38.29742187 11 39 C7.42687005 40.19104332 4.45446678 40.20528823 0.6875 40.25 C-0.60800781 40.27578125 -1.90351562 40.3015625 -3.23828125 40.328125 C-7.2587518 39.97742975 -9.65049541 39.23130883 -13 37 C-13.875 33.3125 -13.875 33.3125 -14 30 C-9.375 27 -9.375 27 -6 27 C-5.67 25.35 -5.34 23.7 -5 22 C-7.31 22 -9.62 22 -12 22 C-14.32845886 18.36178302 -14.23553948 15.23971058 -14 11 C-13.67 10.34 -13.34 9.68 -13 9 C-12.34 9 -11.68 9 -11 9 C-11 9.99 -11 10.98 -11 12 C-10.67 12.66 -10.34 13.32 -10 14 C-9.34 14 -8.68 14 -8 14 C-8.33 12.68 -8.66 11.36 -9 10 C-8.34 10 -7.68 10 -7 10 C-6.67 10.66 -6.34 11.32 -6 12 C-5.34 12 -4.68 12 -4 12 C-3.34 11.34 -2.68 10.68 -2 10 C-1.01 10.66 -0.02 11.32 1 12 C1 11.01 1 10.02 1 9 C0.34 9 -0.32 9 -1 9 C-1 8.34 -1 7.68 -1 7 C-0.34 7 0.32 7 1 7 C0.67 4.69 0.34 2.38 0 0 Z " fill="#EA8C0F" transform="translate(40,21)"/>
<path d="M0 0 C1.0725 0.165 2.145 0.33 3.25 0.5 C7.03028752 1.08810915 7.03028752 1.08810915 11 1 C13.48706153 4.7305923 13.33096694 6.86075804 13.375 11.3125 C13.40335938 12.60800781 13.43171875 13.90351562 13.4609375 15.23828125 C12.93452784 19.53431939 11.75290635 21.69958254 9 25 C8.34 25 7.68 25 7 25 C7 24.34 7 23.68 7 23 C5.68 23 4.36 23 3 23 C3 23.66 3 24.32 3 25 C3.99 25.33 4.98 25.66 6 26 C6.99 26.33 7.98 26.66 9 27 C9 27.66 9 28.32 9 29 C5.72978041 30.63510979 2.15266249 30.22628299 -1.4375 30.25 C-2.21416016 30.270625 -2.99082031 30.29125 -3.79101562 30.3125 C-9.55919911 30.35224631 -9.55919911 30.35224631 -11.74633789 28.60449219 C-13 27 -13 27 -13 25 C-13.33 24.01 -13.66 23.02 -14 22 C-10.535 21.505 -10.535 21.505 -7 21 C-7.99 21.99 -8.98 22.98 -10 24 C-8.35 23.67 -6.7 23.34 -5 23 C-5 22.01 -5 21.02 -5 20 C-5.66 19.67 -6.32 19.34 -7 19 C-4.03 19 -1.06 19 2 19 C2.33 17.68 2.66 16.36 3 15 C6.465 14.505 6.465 14.505 10 14 C10 13.34 10 12.68 10 12 C9.38125 12.20625 8.7625 12.4125 8.125 12.625 C7.42375 12.74875 6.7225 12.8725 6 13 C5.34 12.34 4.68 11.68 4 11 C3.34 10.67 2.68 10.34 2 10 C2.66 8.68 3.32 7.36 4 6 C5.32 6.66 6.64 7.32 8 8 C8 7.34 8 6.68 8 6 C7.01 6 6.02 6 5 6 C5 5.34 5 4.68 5 4 C3.68 4.33 2.36 4.66 1 5 C0.67 3.35 0.34 1.7 0 0 Z " fill="#F2B10A" transform="translate(42,29)"/>
<path d="M0 0 C0.99 0.33 1.98 0.66 3 1 C2.67 3.97 2.34 6.94 2 10 C1.34 10 0.68 10 0 10 C0 10.66 0 11.32 0 12 C0.66 12 1.32 12 2 12 C2 12.99 2 13.98 2 15 C1.01 14.67 0.02 14.34 -1 14 C-1.66 14.66 -2.32 15.32 -3 16 C-3.99 16 -4.98 16 -6 16 C-6 15.01 -6 14.02 -6 13 C-6.66 13 -7.32 13 -8 13 C-7.67 14.32 -7.34 15.64 -7 17 C-8.65 17.33 -10.3 17.66 -12 18 C-11.34 16.02 -10.68 14.04 -10 12 C-10.66 12 -11.32 12 -12 12 C-12.0272415 13.41655793 -12.04650467 14.83327045 -12.0625 16.25 C-12.07410156 17.03890625 -12.08570313 17.8278125 -12.09765625 18.640625 C-12.00385306 20.90691002 -11.63241063 22.8288895 -11 25 C-8.69 25 -6.38 25 -4 25 C-4.0625 27.3125 -4.0625 27.3125 -5 30 C-8.4375 31.6875 -8.4375 31.6875 -12 33 C-12.66 33.66 -13.32 34.32 -14 35 C-14 34.34 -14 33.68 -14 33 C-14.99 32.67 -15.98 32.34 -17 32 C-19.77282746 27.47591309 -19.63423759 22.12207066 -19 17 C-17.1474441 11.34249397 -12.86808515 7.2490366 -8 4 C-4.54395127 2.82180157 -3.49125864 2.83624712 0 4 C0 2.68 0 1.36 0 0 Z " fill="#FADE03" transform="translate(39,18)"/>
<path d="M0 0 C0.495 0.763125 0.99 1.52625 1.5 2.3125 C4.03489098 5.03750781 4.70472067 5.37256914 8.0625 6.3125 C10.66832168 7.14250246 11.70519528 7.4830236 13.078125 9.890625 C13.8125 12.0625 13.8125 12.0625 14.33203125 14.16015625 C14.93363793 16.38389374 14.93363793 16.38389374 18 18 C18 18.66 18 19.32 18 20 C18.66 20 19.32 20 20 20 C20.04898438 20.65226562 20.09796875 21.30453125 20.1484375 21.9765625 C20.49477707 26.02515265 20.80626884 29.48661242 22.25 33.3125 C23 36 23 36 21.6875 38.6875 C21.130625 39.450625 20.57375 40.21375 20 41 C19.67 41.99 19.34 42.98 19 44 C18.01 43.67 17.02 43.34 16 43 C16 39.37 16 35.74 16 32 C15.67 32 15.34 32 15 32 C14.79375 30.88625 14.5875 29.7725 14.375 28.625 C11.99807448 19.42662383 7.21302298 13.47123795 -0.6328125 8.27734375 C-5.16846939 5.82988533 -9.67327979 5.73020315 -14.75 5.4375 C-15.44738281 5.39431641 -16.14476562 5.35113281 -16.86328125 5.30664062 C-18.57531922 5.20110404 -20.28763561 5.1001009 -22 5 C-19.259471 2.259471 -16.73742298 2.03194379 -13 2 C-8.96483237 2.49872858 -4.98710862 3.20781586 -1 4 C-0.67 2.68 -0.34 1.36 0 0 Z " fill="#F1AC0D" transform="translate(55,5)"/>
<path d="M0 0 C4.60093315 0.54128625 7.47648821 1.99033368 11 5 C15.36814685 11.25491185 17.31874277 17.42322336 16 25 C15.00528113 28.20627831 13.89613338 31.21604497 12 34 C10.515 34.495 10.515 34.495 9 35 C8.67 35.66 8.34 36.32 8 37 C8.185625 35.88625 8.37125 34.7725 8.5625 33.625 C9.31680657 30.17431139 9.31680657 30.17431139 8 28 C8.66 27.67 9.32 27.34 10 27 C10.02698422 24.56242587 10.04683099 22.12515085 10.0625 19.6875 C10.07087891 18.99720703 10.07925781 18.30691406 10.08789062 17.59570312 C10.10307906 14.4516975 10.00193327 12.00579981 9 9 C8.34 9 7.68 9 7 9 C6.67 9.66 6.34 10.32 6 11 C3.0625 10.1875 3.0625 10.1875 0 9 C-1.1023021 5.6930937 -0.78325422 4.30707339 0 1 C0 0.67 0 0.34 0 0 Z " fill="#FBE002" transform="translate(44,21)"/>
<path d="M0 0 C0.66 0 1.32 0 2 0 C5.03901852 5.82478551 5.3540919 10.48208608 5 17 C5.66 17 6.32 17 7 17 C10.16056431 19.66672614 11.7852144 22.0519468 13 26 C13 26.99 13 27.98 13 29 C15.97 29 18.94 29 22 29 C20.68 29 19.36 29 18 29 C18 27.35 18 25.7 18 24 C18.66386719 24.40992187 19.32773437 24.81984375 20.01171875 25.2421875 C20.89472656 25.78101562 21.77773438 26.31984375 22.6875 26.875 C23.55761719 27.40867187 24.42773438 27.94234375 25.32421875 28.4921875 C27.83391082 29.90640814 30.30299069 30.99894789 33 32 C30.50935112 32.68707555 28.62113708 33 26 33 C25.67 34.32 25.34 35.64 25 37 C25.97839844 36.94779297 25.97839844 36.94779297 26.9765625 36.89453125 C32.48565372 36.72389568 36.19238424 36.9636111 41 40 C41 40.66 41 41.32 41 42 C39.948125 41.690625 38.89625 41.38125 37.8125 41.0625 C32.22860512 39.39520235 32.22860512 39.39520235 26.5 39.3125 C24 39 24 39 21.625 36.125 C21.01398437 35.29355469 21.01398437 35.29355469 20.390625 34.4453125 C18.88770307 32.63726528 18.88770307 32.63726528 15.375 32 C12 31 12 31 10.0625 28.0625 C9 25 9 25 9 22 C8.34 22 7.68 22 7 22 C7 21.34 7 20.68 7 20 C6.34 20 5.68 20 5 20 C5 19.34 5 18.68 5 18 C4.34 18 3.68 18 3 18 C3.03480469 17.43152344 3.06960938 16.86304687 3.10546875 16.27734375 C3.30360761 10.62566857 2.47930333 7.06191096 0 2 C0 1.34 0 0.68 0 0 Z " fill="#EC9511" transform="translate(0,39)"/>
<path d="M0 0 C3.25 1.25 3.25 1.25 5.25 2.25 C6.62342831 2.3189472 8.00002102 2.33467708 9.375 2.3125 C11.293125 2.2815625 11.293125 2.2815625 13.25 2.25 C13.25 2.91 13.25 3.57 13.25 4.25 C8.19385559 6.07021199 3.56464177 4.84756444 -1.1875 2.6875 C-2.4559375 1.9759375 -2.4559375 1.9759375 -3.75 1.25 C-4.41 2.57 -5.07 3.89 -5.75 5.25 C-5.75 4.59 -5.75 3.93 -5.75 3.25 C-6.79800781 3.48396484 -6.79800781 3.48396484 -7.8671875 3.72265625 C-8.77726562 3.91730469 -9.68734375 4.11195313 -10.625 4.3125 C-11.98238281 4.60833984 -11.98238281 4.60833984 -13.3671875 4.91015625 C-15.75 5.25 -15.75 5.25 -17.75 4.25 C-17.75 4.91 -17.75 5.57 -17.75 6.25 C-20.41672614 9.41056431 -22.8019468 11.0352144 -26.75 12.25 C-27.74 12.25 -28.73 12.25 -29.75 12.25 C-29.87375 12.806875 -29.9975 13.36375 -30.125 13.9375 C-31.24053862 18.0649929 -32.30794873 21.52504274 -35.75 24.25 C-36.41 24.25 -37.07 24.25 -37.75 24.25 C-37.42 25.24 -37.09 26.23 -36.75 27.25 C-37.01953125 29.44140625 -37.01953125 29.44140625 -37.5625 31.8125 C-37.73394531 32.59753906 -37.90539063 33.38257813 -38.08203125 34.19140625 C-38.75 36.25 -38.75 36.25 -40.75 38.25 C-40.75 36.93 -40.75 35.61 -40.75 34.25 C-39.76 33.755 -39.76 33.755 -38.75 33.25 C-38.915 32.156875 -39.08 31.06375 -39.25 29.9375 C-39.75 26.25 -39.75 26.25 -39.75 23.25 C-39.09 23.25 -38.43 23.25 -37.75 23.25 C-37.75 22.59 -37.75 21.93 -37.75 21.25 C-37.09 21.25 -36.43 21.25 -35.75 21.25 C-35.75 20.59 -35.75 19.93 -35.75 19.25 C-35.09 18.92 -34.43 18.59 -33.75 18.25 C-33.37875 16.579375 -33.37875 16.579375 -33 14.875 C-31.75 11.25 -31.75 11.25 -28.8125 9.3125 C-25.75 8.25 -25.75 8.25 -22.75 8.25 C-22.75 7.59 -22.75 6.93 -22.75 6.25 C-22.09 6.25 -21.43 6.25 -20.75 6.25 C-20.75 5.59 -20.75 4.93 -20.75 4.25 C-20.09 4.25 -19.43 4.25 -18.75 4.25 C-18.75 3.59 -18.75 2.93 -18.75 2.25 C-18.16992188 2.28480469 -17.58984375 2.31960938 -16.9921875 2.35546875 C-12.87316792 2.49820705 -10.35631725 2.56528497 -6.625 0.625 C-3.75 -0.75 -3.75 -0.75 0 0 Z " fill="#E46F1D" transform="translate(42.75,0.75)"/>
<path d="M0 0 C0 1.32 0 2.64 0 4 C-1.98 4.33 -3.96 4.66 -6 5 C-6.33 5.99 -6.66 6.98 -7 8 C-9 9 -9 9 -12 10 C-12.99208401 12.26198081 -12.99208401 12.26198081 -13.625 14.9375 C-14.95665635 19.91331269 -14.95665635 19.91331269 -16 22 C-16.66 22 -17.32 22 -18 22 C-17.67 23.32 -17.34 24.64 -17 26 C-17.99 26 -18.98 26 -20 26 C-20 26.66 -20 27.32 -20 28 C-18.68 28 -17.36 28 -16 28 C-16 30.64 -16 33.28 -16 36 C-17.9375 35.1875 -17.9375 35.1875 -20 34 C-21.93403792 28.19788625 -21.08754658 21.93207224 -20 16 C-18.609375 14.48046875 -18.609375 14.48046875 -17 13 C-16.16434191 11.87094471 -15.35179215 10.72444156 -14.5625 9.5625 C-9.58433067 2.51257757 -9.58433067 2.51257757 -5.875 1.3125 C-5.25625 1.209375 -4.6375 1.10625 -4 1 C-2 0 -2 0 0 0 Z " fill="#F2B20C" transform="translate(33,14)"/>
<path d="M0 0 C1.65 0.66 3.3 1.32 5 2 C5 2.66 5 3.32 5 4 C4.34 4 3.68 4 3 4 C2.67 4.99 2.34 5.98 2 7 C1.01 7.495 1.01 7.495 0 8 C-0.41844199 9.27825431 -0.78646289 10.57330096 -1.125 11.875 C-2.03241563 14.51261744 -2.45204701 15.68608032 -4.90234375 17.08984375 C-7.0625 17.8125 -7.0625 17.8125 -9.16015625 18.33203125 C-11.38389374 18.93363793 -11.38389374 18.93363793 -13 22 C-13.66 22 -14.32 22 -15 22 C-15 22.66 -15 23.32 -15 24 C-15.66 24 -16.32 24 -17 24 C-17.33 22.02 -17.66 20.04 -18 18 C-16.68 18 -15.36 18 -14 18 C-13.67 17.01 -13.34 16.02 -13 15 C-10.4375 13.8125 -10.4375 13.8125 -8 13 C-8 12.34 -8 11.68 -8 11 C-7.34 11 -6.68 11 -6 11 C-5.7525 10.29875 -5.505 9.5975 -5.25 8.875 C-3.83911974 5.62997541 -2.02104602 2.89683263 0 0 Z " fill="#F1AF0C" transform="translate(70,52)"/>
<path d="M0 0 C-1.485 1.485 -1.485 1.485 -3 3 C-2.13117187 2.96519531 -1.26234375 2.93039063 -0.3671875 2.89453125 C11.07908612 2.62565905 11.07908612 2.62565905 16 6 C16 6.66 16 7.32 16 8 C12.72978041 9.63510979 9.15266249 9.22628299 5.5625 9.25 C4.39750977 9.2809375 4.39750977 9.2809375 3.20898438 9.3125 C-2.55919911 9.35224631 -2.55919911 9.35224631 -4.74633789 7.60449219 C-6 6 -6 6 -6 4 C-6.33 3.01 -6.66 2.02 -7 1 C-4.53721199 -0.231394 -2.7204945 -0.07159196 0 0 Z " fill="#F5C207" transform="translate(35,50)"/>
<path d="M0 0 C3.41158256 1.13719419 4.11854601 2.04342944 6 5 C6 5.66 6 6.32 6 7 C6.66 7 7.32 7 8 7 C9 10 9 10 9 12 C9.5775 11.79375 10.155 11.5875 10.75 11.375 C13 11 13 11 14.84375 11.9375 C17.23701267 13.11678885 19.10397396 13.39152711 21.75 13.625 C22.54921875 13.69976562 23.3484375 13.77453125 24.171875 13.8515625 C24.77515625 13.90054688 25.3784375 13.94953125 26 14 C25.67 15.32 25.34 16.64 25 18 C21.14354879 18.22036864 18.50776784 17.60355101 15 16 C14.67 16.99 14.34 17.98 14 19 C10.00499382 17.6302836 7.19990508 15.74277578 4 13 C4.66 13 5.32 13 6 13 C5.34 11.02 4.68 9.04 4 7 C3.01 7 2.02 7 1 7 C1 5.68 1 4.36 1 3 C0.34 2.34 -0.32 1.68 -1 1 C-0.67 0.67 -0.34 0.34 0 0 Z " fill="#F4BB0A" transform="translate(16,51)"/>
<path d="M0 0 C0.66 0 1.32 0 2 0 C2 0.66 2 1.32 2 2 C2.66 2 3.32 2 4 2 C4 2.66 4 3.32 4 4 C8.455 4.99 8.455 4.99 13 6 C13.51355204 8.05420818 14.02223794 10.11118972 14.4375 12.1875 C14.623125 12.785625 14.80875 13.38375 15 14 C15.66 14.33 16.32 14.66 17 15 C17 15.66 17 16.32 17 17 C17.66 17 18.32 17 19 17 C19 17.66 19 18.32 19 19 C19.66 19 20.32 19 21 19 C21.125 26.75 21.125 26.75 20 29 C20.66 29 21.32 29 22 29 C24.03844169 33.07688338 24.07759755 35.59164639 23 40 C22.67 40.66 22.34 41.32 22 42 C21.34 42 20.68 42 20 42 C20.33 43.98 20.66 45.96 21 48 C20.34 47.67 19.68 47.34 19 47 C18.74850299 40.58682635 18.74850299 40.58682635 20.125 37.375 C21.29241603 35.02321369 21.29241603 35.02321369 20.125 32.8125 C18.44229738 28.60574345 18.84350378 24.47753075 19 20 C18.34 20 17.68 20 17 20 C13.83943569 17.33327386 12.2147856 14.9480532 11 11 C11 10.01 11 9.02 11 8 C10.443125 7.87625 9.88625 7.7525 9.3125 7.625 C6.68771772 6.91559938 4.41552105 6.27132687 2 5 C0.6875 2.375 0.6875 2.375 0 0 Z " fill="#E5721C" transform="translate(56,5)"/>
<path d="M0 0 C0.556875 0.78375 1.11375 1.5675 1.6875 2.375 C4.07668565 5.08704858 5.60073413 5.96133543 9 7 C9 9 9 11 9 13 C9.99 13 10.98 13 12 13 C11.67 14.65 11.34 16.3 11 18 C10.57589844 17.62488281 10.15179688 17.24976562 9.71484375 16.86328125 C1.62128398 9.801428 -3.85455924 6.06568704 -14.75 5.4375 C-15.44738281 5.39431641 -16.14476562 5.35113281 -16.86328125 5.30664062 C-18.57531922 5.20110404 -20.28763561 5.1001009 -22 5 C-19.259471 2.259471 -16.73742298 2.03194379 -13 2 C-8.96483237 2.49872858 -4.98710862 3.20781586 -1 4 C-0.67 2.68 -0.34 1.36 0 0 Z " fill="#EE9F0F" transform="translate(55,5)"/>
<path d="M0 0 C0.99 0.33 1.98 0.66 3 1 C2.67 3.97 2.34 6.94 2 10 C1.34 10 0.68 10 0 10 C0 10.66 0 11.32 0 12 C0.66 12 1.32 12 2 12 C2 12.99 2 13.98 2 15 C1.01 14.67 0.02 14.34 -1 14 C-1.66 14.66 -2.32 15.32 -3 16 C-3.99 16 -4.98 16 -6 16 C-6 15.01 -6 14.02 -6 13 C-6.66 13 -7.32 13 -8 13 C-7.67 14.32 -7.34 15.64 -7 17 C-8.65 17.33 -10.3 17.66 -12 18 C-11.34 16.02 -10.68 14.04 -10 12 C-10.66 11.67 -11.32 11.34 -12 11 C-6.25 8 -6.25 8 -4 8 C-4 7.34 -4 6.68 -4 6 C-3.34 6 -2.68 6 -2 6 C-2 5.34 -2 4.68 -2 4 C-1.34 4 -0.68 4 0 4 C0 2.68 0 1.36 0 0 Z " fill="#F6C707" transform="translate(39,18)"/>
<path d="M0 0 C0.33 0.66 0.66 1.32 1 2 C0.33333333 3.33333333 -0.33333333 4.66666667 -1 6 C-1.90671228 10.38138592 -2.16318528 14.59345388 -2.1875 19.0625 C-2.20167969 20.24972656 -2.21585938 21.43695313 -2.23046875 22.66015625 C-2.00574045 25.91681209 -1.22326198 28.02184742 0 31 C-0.495 32.485 -0.495 32.485 -1 34 C-5.31700546 27.61833975 -5.14875187 21.43759367 -5 14 C-6.32 13.34 -7.64 12.68 -9 12 C-8.67 9.69 -8.34 7.38 -8 5 C-6.02 5 -4.04 5 -2 5 C-1.855625 4.360625 -1.71125 3.72125 -1.5625 3.0625 C-1 1 -1 1 0 0 Z " fill="#ED9A10" transform="translate(13,23)"/>
<path d="M0 0 C1.32 0.33 2.64 0.66 4 1 C4.38838614 3.79040505 4.76120046 6.58137886 5.125 9.375 C5.23714844 10.1690625 5.34929688 10.963125 5.46484375 11.78125 C5.72721267 13.84521885 5.87150738 15.92339351 6 18 C5.34 18.66 4.68 19.32 4 20 C3.01 20 2.02 20 1 20 C0.92652344 19.03900391 0.92652344 19.03900391 0.8515625 18.05859375 C0.49319861 13.91269431 0.13030486 10.02441655 -1.1875 6.0625 C-1.455625 5.051875 -1.72375 4.04125 -2 3 C-1.34 2.01 -0.68 1.02 0 0 Z " fill="#F1AB0D" transform="translate(4,36)"/>
<path d="M0 0 C0 1.98 0 3.96 0 6 C0.66 6 1.32 6 2 6 C2 6.66 2 7.32 2 8 C0.02 8 -1.96 8 -4 8 C-4 8.66 -4 9.32 -4 10 C-3.01 10 -2.02 10 -1 10 C-1 10.66 -1 11.32 -1 12 C-2.32 12 -3.64 12 -5 12 C-5 10.68 -5 9.36 -5 8 C-5.99 8 -6.98 8 -8 8 C-8 7.34 -8 6.68 -8 6 C-9.32 6.33 -10.64 6.66 -12 7 C-12.99 5.68 -13.98 4.36 -15 3 C-13.125 2.375 -13.125 2.375 -11 2 C-10.34 2.66 -9.68 3.32 -9 4 C-6.42938689 4.64767793 -6.42938689 4.64767793 -4 5 C-4 4.34 -4 3.68 -4 3 C-4.99 2.67 -5.98 2.34 -7 2 C-5.26578631 -1.46842738 -3.40984787 -1.13661596 0 0 Z " fill="#F3BC08" transform="translate(43,35)"/>
<path d="M0 0 C0.33 0.66 0.66 1.32 1 2 C1.99 1.67 2.98 1.34 4 1 C6.04296875 1.55859375 6.04296875 1.55859375 8.1875 2.4375 C8.90292969 2.72496094 9.61835937 3.01242188 10.35546875 3.30859375 C10.89816406 3.53675781 11.44085938 3.76492188 12 4 C12 4.66 12 5.32 12 6 C12.99 6.33 13.98 6.66 15 7 C16.1875 9.0625 16.1875 9.0625 17 11 C15.68 11.33 14.36 11.66 13 12 C13 11.34 13 10.68 13 10 C10.69 9.67 8.38 9.34 6 9 C5.67 8.01 5.34 7.02 5 6 C1.82757352 4.68964993 -0.55881664 4 -4 4 C-4 3.01 -4 2.02 -4 1 C-2.68 0.67 -1.36 0.34 0 0 Z " fill="#F1AD0D" transform="translate(43,12)"/>
<path d="M0 0 C0.66 0 1.32 0 2 0 C5.03901852 5.82478551 5.3540919 10.48208608 5 17 C5.66 17 6.32 17 7 17 C10.16056431 19.66672614 11.7852144 22.0519468 13 26 C13 26.99 13 27.98 13 29 C13.66 29 14.32 29 15 29 C14.67 29.66 14.34 30.32 14 31 C13.01 30.67 12.02 30.34 11 30 C9.5522078 27.10441559 9 25.25811062 9 22 C8.34 22 7.68 22 7 22 C7 21.34 7 20.68 7 20 C6.34 20 5.68 20 5 20 C5 19.34 5 18.68 5 18 C4.34 18 3.68 18 3 18 C3.03480469 17.43152344 3.06960938 16.86304687 3.10546875 16.27734375 C3.30360761 10.62566857 2.47930333 7.06191096 0 2 C0 1.34 0 0.68 0 0 Z " fill="#E46E1E" transform="translate(0,39)"/>
<path d="M0 0 C0.33 0 0.66 0 1 0 C1 4.29 1 8.58 1 13 C1.99 12.34 2.98 11.68 4 11 C4.33 13.31 4.66 15.62 5 18 C2.50907189 19.24546405 1.58919267 18.7767578 -1 18 C-1.61875 19.093125 -2.2375 20.18625 -2.875 21.3125 C-4.17899562 23.6162256 -5.52774699 25.79162049 -7 28 C-7.66 27.67 -8.32 27.34 -9 27 C-8.57847656 26.31292969 -8.15695313 25.62585938 -7.72265625 24.91796875 C-7.17480469 24.01691406 -6.62695312 23.11585937 -6.0625 22.1875 C-5.51722656 21.29417969 -4.97195312 20.40085937 -4.41015625 19.48046875 C-1.68034148 14.678717 -1.64795383 10.11717699 -1.28125 4.71484375 C-1 2 -1 2 0 0 Z " fill="#E98614" transform="translate(71,35)"/>
<path d="M0 0 C1.32 0.66 2.64 1.32 4 2 C4 2.99 4 3.98 4 5 C3.34 5 2.68 5 2 5 C1.8453125 6.0828125 1.8453125 6.0828125 1.6875 7.1875 C0.91258191 10.35761946 0.04269518 12.44663103 -2 15 C-4.6875 15.3125 -4.6875 15.3125 -7 15 C-7.33 14.01 -7.66 13.02 -8 12 C-7.34 12 -6.68 12 -6 12 C-5.67 11.01 -5.34 10.02 -5 9 C-4.34 8.67 -3.68 8.34 -3 8 C-2.09656316 6.11736119 -2.09656316 6.11736119 -1.375 3.9375 C-0.98441406 2.83728516 -0.98441406 2.83728516 -0.5859375 1.71484375 C-0.39257812 1.14894531 -0.19921875 0.58304688 0 0 Z " fill="#F4C209" transform="translate(13,13)"/>
<path d="M0 0 C0.66 0.33 1.32 0.66 2 1 C2 1.99 2 2.98 2 4 C1.34 4 0.68 4 0 4 C0 4.66 0 5.32 0 6 C-0.61875 6.391875 -1.2375 6.78375 -1.875 7.1875 C-4.34457914 8.93860329 -4.34457914 8.93860329 -4.875 12.5 C-6 16 -6 16 -8.875 17.8125 C-9.90625 18.204375 -10.9375 18.59625 -12 19 C-15.38435659 20.45043854 -16.9486108 21.9229162 -19 25 C-20.32 24.67 -21.64 24.34 -23 24 C-22.01 23.67 -21.02 23.34 -20 23 C-20 22.34 -20 21.68 -20 21 C-17.33327386 17.83943569 -14.9480532 16.2147856 -11 15 C-10.01 15 -9.02 15 -8 15 C-7.87625 14.2575 -7.7525 13.515 -7.625 12.75 C-6.68862483 8.62994923 -5.27825541 5.73187951 -2 3 C-1.34 3 -0.68 3 0 3 C0 2.01 0 1.02 0 0 Z " fill="#E26620" transform="translate(75,53)"/>
<path d="M0 0 C0.66 0 1.32 0 2 0 C2.27263672 0.83144531 2.27263672 0.83144531 2.55078125 1.6796875 C2.80214844 2.40414063 3.05351563 3.12859375 3.3125 3.875 C3.55613281 4.59429688 3.79976563 5.31359375 4.05078125 6.0546875 C4.96335547 8.33994905 4.96335547 8.33994905 8 10 C8 10.66 8 11.32 8 12 C8.66 12 9.32 12 10 12 C9.67 12.99 9.34 13.98 9 15 C7.68 15 6.36 15 5 15 C4.34 13.35 3.68 11.7 3 10 C2.34 10 1.68 10 1 10 C1 8.68 1 7.36 1 6 C0.01 5.67 -0.98 5.34 -2 5 C-1.125 1.125 -1.125 1.125 0 0 Z " fill="#F6C908" transform="translate(65,13)"/>
<path d="M0 0 C1.32 0.66 2.64 1.32 4 2 C4 2.66 4 3.32 4 4 C2.2421875 4.94401042 0.484375 5.88802083 -1.2734375 6.83203125 C-3.30502365 8.04763493 -3.30502365 8.04763493 -5 11 C-5.66 11 -6.32 11 -7 11 C-7 11.66 -7 12.32 -7 13 C-7.66 13 -8.32 13 -9 13 C-9.33 11.02 -9.66 9.04 -10 7 C-8.68 7 -7.36 7 -6 7 C-5.67 6.01 -5.34 5.02 -5 4 C-2.4375 2.8125 -2.4375 2.8125 0 2 C0 1.34 0 0.68 0 0 Z " fill="#F5C709" transform="translate(62,63)"/>
<path d="M0 0 C0.66 1.32 1.32 2.64 2 4 C4.31 4 6.62 4 9 4 C8.67 5.65 8.34 7.3 8 9 C5.69 9.66 3.38 10.32 1 11 C0.01 8.03 -0.98 5.06 -2 2 C-1.34 2 -0.68 2 0 2 C0 1.34 0 0.68 0 0 Z " fill="#F6C508" transform="translate(26,39)"/>
<path d="M0 0 C1.85776765 3.13498292 2.20140476 5.37471432 2 9 C0.824375 8.525625 -0.35125 8.05125 -1.5625 7.5625 C-8.18531727 5.31244029 -15.06905055 5.26481889 -22 5 C-19.259471 2.259471 -16.73742298 2.03194379 -13 2 C-8.96483237 2.49872858 -4.98710862 3.20781586 -1 4 C-0.67 2.68 -0.34 1.36 0 0 Z " fill="#EB9013" transform="translate(55,5)"/>
<path d="M0 0 C0.33 0.99 0.66 1.98 1 3 C1.66 3 2.32 3 3 3 C2.67 3.99 2.34 4.98 2 6 C0.27119018 6.05449838 -1.45812712 6.09301688 -3.1875 6.125 C-4.15042969 6.14820312 -5.11335938 6.17140625 -6.10546875 6.1953125 C-9.12812778 5.9913544 -11.26769985 5.26874632 -14 4 C-12.75 2.4375 -12.75 2.4375 -11 1 C-8.8125 1.3125 -8.8125 1.3125 -7 2 C-7 2.66 -7 3.32 -7 4 C-6.01 3.67 -5.02 3.34 -4 3 C-3.34 3.33 -2.68 3.66 -2 4 C-2 3.34 -2 2.68 -2 2 C-1.34 2 -0.68 2 0 2 C0 1.34 0 0.68 0 0 Z " fill="#F7D007" transform="translate(43,65)"/>
<path d="M0 0 C0.12375 0.61875 0.2475 1.2375 0.375 1.875 C0.87197356 4.19120832 0.87197356 4.19120832 3 6 C0.03 6.66 -2.94 7.32 -6 8 C-5.67 7.01 -5.34 6.02 -5 5 C-5.66 5 -6.32 5 -7 5 C-7 4.01 -7 3.02 -7 2 C-2.25 0 -2.25 0 0 0 Z " fill="#F2B10C" transform="translate(51,63)"/>
<path d="M0 0 C7.26 0 14.52 0 22 0 C22 0.66 22 1.32 22 2 C18.72978041 3.63510979 15.15266249 3.22628299 11.5625 3.25 C10.39750977 3.2809375 10.39750977 3.2809375 9.20898438 3.3125 C6.94140625 3.328125 6.94140625 3.328125 3 3 C2.01 2.01 1.02 1.02 0 0 Z " fill="#FEF600" transform="translate(29,56)"/>
<path d="M0 0 C2.4375 0.6875 2.4375 0.6875 5 2 C5.75 4.3125 5.75 4.3125 6 7 C6.185625 7.928125 6.37125 8.85625 6.5625 9.8125 C6.7790625 10.8953125 6.7790625 10.8953125 7 12 C5.68 12 4.36 12 3 12 C2.49166409 10.75336669 1.99368855 9.50250613 1.5 8.25 C1.2215625 7.55390625 0.943125 6.8578125 0.65625 6.140625 C0 4 0 4 0 0 Z " fill="#F1AC0D" transform="translate(60,25)"/>
<path d="M0 0 C0 1.32 0 2.64 0 4 C-1.98 4.33 -3.96 4.66 -6 5 C-6.33 5.99 -6.66 6.98 -7 8 C-9 9 -9 9 -13 9 C-11.86560182 5.59680547 -10.69698684 4.31170301 -8 2 C-5.875 1.3125 -5.875 1.3125 -4 1 C-2 0 -2 0 0 0 Z " fill="#EFA20F" transform="translate(33,14)"/>
<path d="M0 0 C0.66 0 1.32 0 2 0 C2.33 1.32 2.66 2.64 3 4 C2.01 4 1.02 4 0 4 C0 4.66 0 5.32 0 6 C1.32 6 2.64 6 4 6 C4 8.64 4 11.28 4 14 C2.0625 13.1875 2.0625 13.1875 0 12 C-1.1671568 8.49852959 -1.13357453 5.67329964 -1 2 C-0.67 1.34 -0.34 0.68 0 0 Z " fill="#F6C908" transform="translate(13,36)"/>
<path d="M0 0 C0 0.66 0 1.32 0 2 C-5.17578125 5.22265625 -5.17578125 5.22265625 -7 6 C-7.99 5.67 -8.98 5.34 -10 5 C-9.67 3.35 -9.34 1.7 -9 0 C-3.375 -1.125 -3.375 -1.125 0 0 Z " fill="#F5C408" transform="translate(48,73)"/>
<path d="M0 0 C2 2 2 2 2.125 5.625 C2.08375 6.73875 2.0425 7.8525 2 9 C0.1875 10.0625 0.1875 10.0625 -2 11 C-2.99 10.67 -3.98 10.34 -5 10 C-4.649375 9.38125 -4.29875 8.7625 -3.9375 8.125 C-3.628125 7.42375 -3.31875 6.7225 -3 6 C-3.33 5.34 -3.66 4.68 -4 4 C-3.01 4 -2.02 4 -1 4 C-0.67 2.68 -0.34 1.36 0 0 Z " fill="#F6C408" transform="translate(53,39)"/>
<path d="M0 0 C1.67542976 0.28604898 3.34385343 0.61781233 5 1 C3.80100302 4.0831351 2.52299523 7.06279492 1 10 C0.01 9.67 -0.98 9.34 -2 9 C-1.125 1.125 -1.125 1.125 0 0 Z " fill="#F5C608" transform="translate(73,39)"/>
<path d="M0 0 C0.66 0.33 1.32 0.66 2 1 C3.37342831 1.0689472 4.75002102 1.08467708 6.125 1.0625 C8.043125 1.0315625 8.043125 1.0315625 10 1 C10 1.66 10 2.32 10 3 C6.16418458 4.38089355 2.93990328 3.77390957 -1 3 C-1.680625 2.649375 -2.36125 2.29875 -3.0625 1.9375 C-5.74173845 0.6410943 -8.06820212 0.86673646 -11 1 C-8.58511479 -3.82977042 -4.09143221 -1.33901418 0 0 Z " fill="#E3661F" transform="translate(46,2)"/>
<path d="M0 0 C1.32 0.66 2.64 1.32 4 2 C2.68 2.99 1.36 3.98 0 5 C0.66 5.33 1.32 5.66 2 6 C1.34 6 0.68 6 0 6 C0 6.66 0 7.32 0 8 C-1.98 8.66 -3.96 9.32 -6 10 C-6 6.41087588 -5.33563446 5.89142971 -3 3.3125 C-2.443125 2.68988281 -1.88625 2.06726562 -1.3125 1.42578125 C-0.879375 0.95527344 -0.44625 0.48476563 0 0 Z " fill="#F0A80D" transform="translate(59,54)"/>
<path d="M0 0 C0 1.98 0 3.96 0 6 C0.66 6 1.32 6 2 6 C2 6.66 2 7.32 2 8 C0.0625 7.625 0.0625 7.625 -2 7 C-2.66666667 5.66666667 -3.33333333 4.33333333 -4 3 C-4.99 2.67 -5.98 2.34 -7 2 C-5.26578631 -1.46842738 -3.40984787 -1.13661596 0 0 Z " fill="#F6C906" transform="translate(43,35)"/>
<path d="M0 0 C0.99 0 1.98 0 3 0 C3.66 1.32 4.32 2.64 5 4 C5.99 4 6.98 4 8 4 C7.67 4.99 7.34 5.98 7 7 C6.67 6.67 6.34 6.34 6 6 C5.030625 6 4.06125 6 3.0625 6 C0 6 0 6 -2 5 C-1.125 1.125 -1.125 1.125 0 0 Z " fill="#F5C808" transform="translate(15,63)"/>
<path d="M0 0 C3.41158256 1.13719419 4.11854601 2.04342944 6 5 C6 5.66 6 6.32 6 7 C6.66 7 7.32 7 8 7 C8.33 7.99 8.66 8.98 9 10 C7.68 10 6.36 10 5 10 C4.34 9.01 3.68 8.02 3 7 C2.34 7 1.68 7 1 7 C1 5.68 1 4.36 1 3 C0.34 2.34 -0.32 1.68 -1 1 C-0.67 0.67 -0.34 0.34 0 0 Z " fill="#F0A50E" transform="translate(16,51)"/>
<path d="M0 0 C0.99 0.33 1.98 0.66 3 1 C2.67 3.97 2.34 6.94 2 10 C0.68 10 -0.64 10 -2 10 C-3.125 6.25 -3.125 6.25 -2 4 C-1.34 4 -0.68 4 0 4 C0 2.68 0 1.36 0 0 Z " fill="#EFA30C" transform="translate(39,18)"/>
<path d="M0 0 C0.99 0 1.98 0 3 0 C3 1.32 3 2.64 3 4 C4.32 4 5.64 4 7 4 C7 3.34 7 2.68 7 2 C6.01 2 5.02 2 4 2 C4 1.34 4 0.68 4 0 C6.31 0 8.62 0 11 0 C10.1875 2.4375 10.1875 2.4375 9 5 C6 6 6 6 3.375 5.3125 C1 4 1 4 0.1875 1.875 C0.125625 1.25625 0.06375 0.6375 0 0 Z " fill="#E57012" transform="translate(35,43)"/>
<path d="M0 0 C2.475 0.99 2.475 0.99 5 2 C5 2.66 5 3.32 5 4 C4.34 4 3.68 4 3 4 C2.67 4.99 2.34 5.98 2 7 C-0.0625 7.6875 -0.0625 7.6875 -2 8 C-1.125 1.125 -1.125 1.125 0 0 Z " fill="#F5C509" transform="translate(70,52)"/>
<path d="M0 0 C0 0.66 0 1.32 0 2 C0.66 2 1.32 2 2 2 C2 2.99 2 3.98 2 5 C1.01 4.67 0.02 4.34 -1 4 C-1.66 4.66 -2.32 5.32 -3 6 C-3.99 6 -4.98 6 -6 6 C-6 5.01 -6 4.02 -6 3 C-6.66 2.67 -7.32 2.34 -8 2 C-2.25 0 -2.25 0 0 0 Z " fill="#F3B80A" transform="translate(39,28)"/>
<path d="M0 0 C11.52164009 -0.55353075 11.52164009 -0.55353075 17 3 C17 3.66 17 4.32 17 5 C15.4221875 4.5359375 15.4221875 4.5359375 13.8125 4.0625 C9.05692973 2.73717714 4.94399273 1.85874306 0 2 C0 1.34 0 0.68 0 0 Z " fill="#E46B1E" transform="translate(24,76)"/>
<path d="M0 0 C0.33 0 0.66 0 1 0 C1.12117187 0.95261719 1.24234375 1.90523437 1.3671875 2.88671875 C1.53476563 4.14097656 1.70234375 5.39523438 1.875 6.6875 C2.03742187 7.92886719 2.19984375 9.17023437 2.3671875 10.44921875 C2.85992621 13.93459367 2.85992621 13.93459367 4.1328125 16.76953125 C5 19 5 19 4 22 C-0.6857526 15.07323528 -0.12921884 8.06899851 0 0 Z " fill="#E88115" transform="translate(8,35)"/>
<path d="M0 0 C0.99 0 1.98 0 3 0 C3.33 0.66 3.66 1.32 4 2 C6.01669827 3.13350534 6.01669827 3.13350534 8 4 C7.67 5.32 7.34 6.64 7 8 C6.401875 7.690625 5.80375 7.38125 5.1875 7.0625 C2.91043228 5.89790296 2.91043228 5.89790296 0 5 C0 4.34 0 3.68 0 3 C0.66 3 1.32 3 2 3 C2 2.34 2 1.68 2 1 C1.34 0.67 0.68 0.34 0 0 Z " fill="#F1AE0D" transform="translate(31,70)"/>
<path d="M0 0 C1.98 0 3.96 0 6 0 C5.67 1.65 5.34 3.3 5 5 C2.69 4.67 0.38 4.34 -2 4 C-1.34 2.68 -0.68 1.36 0 0 Z " fill="#F6CA08" transform="translate(49,5)"/>
<path d="M0 0 C1.32 0.33 2.64 0.66 4 1 C3.67 2.65 3.34 4.3 3 6 C1.35 5.67 -0.3 5.34 -2 5 C-1.34 3.35 -0.68 1.7 0 0 Z " fill="#F7CE07" transform="translate(4,36)"/>
<path d="M0 0 C3.83206182 0.41427695 6.08025204 1.51280729 9 4 C8.34 4 7.68 4 7 4 C6.67 4.66 6.34 5.32 6 6 C3.0625 5.1875 3.0625 5.1875 0 4 C-0.33 3.01 -0.66 2.02 -1 1 C-0.67 0.67 -0.34 0.34 0 0 Z " fill="#F7CD07" transform="translate(44,26)"/>
<path d="M0 0 C1.65 0.99 3.3 1.98 5 3 C3.92598892 5.91517292 3.22189824 7.77810176 1 10 C0.34 9.67 -0.32 9.34 -1 9 C-1 8.34 -1 7.68 -1 7 C-0.34 7 0.32 7 1 7 C0.67 4.69 0.34 2.38 0 0 Z " fill="#E88110" transform="translate(40,21)"/>
<path d="M0 0 C0.66 0 1.32 0 2 0 C2 0.66 2 1.32 2 2 C2.66 2 3.32 2 4 2 C4 2.66 4 3.32 4 4 C4.78375 4.12375 5.5675 4.2475 6.375 4.375 C9 5 9 5 11 7 C7.14033177 7 5.3130044 6.83087085 2 5 C0.6875 2.375 0.6875 2.375 0 0 Z " fill="#E26521" transform="translate(56,5)"/>
<path d="M0 0 C0.33 0.66 0.66 1.32 1 2 C1.99 1.67 2.98 1.34 4 1 C4 1.99 4 2.98 4 4 C1.33333333 4 -1.33333333 4 -4 4 C-4 3.01 -4 2.02 -4 1 C-2.68 0.67 -1.36 0.34 0 0 Z " fill="#EFA20E" transform="translate(43,12)"/>
<path d="M0 0 C1.32 0 2.64 0 4 0 C3.67 1.65 3.34 3.3 3 5 C1.68 5.33 0.36 5.66 -1 6 C-1.33 5.34 -1.66 4.68 -2 4 C-1.0625 1.875 -1.0625 1.875 0 0 Z " fill="#F2AF0B" transform="translate(31,43)"/>
<path d="M0 0 C1.03115279 3.26913624 0.9638984 5.86041348 0.5625 9.25 C0.46066406 10.14203125 0.35882812 11.0340625 0.25390625 11.953125 C0.17011719 12.62859375 0.08632812 13.3040625 0 14 C-0.33 14 -0.66 14 -1 14 C-1 10.7 -1 7.4 -1 4 C-1.99 4 -2.98 4 -4 4 C-4 3.01 -4 2.02 -4 1 C-2.68 1.33 -1.36 1.66 0 2 C0 1.34 0 0.68 0 0 Z " fill="#F2B20C" transform="translate(10,31)"/>
<path d="M0 0 C0.99 0 1.98 0 3 0 C3 0.66 3 1.32 3 2 C3.66 2 4.32 2 5 2 C4.34 3.32 3.68 4.64 3 6 C2.01 6 1.02 6 0 6 C0 4.02 0 2.04 0 0 Z " fill="#F8D207" transform="translate(5,50)"/>
<path d="M0 0 C0.33 0 0.66 0 1 0 C1.33 2.31 1.66 4.62 2 7 C1.01 7.495 1.01 7.495 0 8 C-0.99 7.34 -1.98 6.68 -3 6 C-2.42655063 3.13275314 -2.1385485 2.1385485 0 0 Z " fill="#EFA40F" transform="translate(74,46)"/>
<path d="M0 0 C0.99 0 1.98 0 3 0 C3.33 2.31 3.66 4.62 4 7 C2.68 6.34 1.36 5.68 0 5 C0 3.35 0 1.7 0 0 Z " fill="#F0A70E" transform="translate(13,43)"/>
<path d="M0 0 C0.66 0.33 1.32 0.66 2 1 C1.67 1.99 1.34 2.98 1 4 C0.34 4 -0.32 4 -1 4 C-1 4.66 -1 5.32 -1 6 C-0.01 6 0.98 6 2 6 C2 6.66 2 7.32 2 8 C0.68 8 -0.64 8 -2 8 C-2 6.02 -2 4.04 -2 2 C-1.34 2 -0.68 2 0 2 C0 1.34 0 0.68 0 0 Z " fill="#EFA30C" transform="translate(40,39)"/>
<path d="M0 0 C0.96398647 2.8919594 1 4.9994375 1 8 C-0.32 8 -1.64 8 -3 8 C-3.1875 5.125 -3.1875 5.125 -3 2 C-2.01 1.34 -1.02 0.68 0 0 Z " fill="#EFA20F" transform="translate(16,28)"/>
<path d="M0 0 C0.33 0.66 0.66 1.32 1 2 C-1.97 1.505 -1.97 1.505 -5 1 C-5 1.66 -5 2.32 -5 3 C-6.32 3.33 -7.64 3.66 -9 4 C-9.33 3.34 -9.66 2.68 -10 2 C-6.5980513 -0.09350689 -3.94727588 -0.17942163 0 0 Z " fill="#E46B1F" transform="translate(51,76)"/>
<path d="M0 0 C1.32 0 2.64 0 4 0 C4 1.98 4 3.96 4 6 C3.01 5.67 2.02 5.34 1 5 C0.67 3.35 0.34 1.7 0 0 Z " fill="#F0A90D" transform="translate(62,43)"/>
<path d="M0 0 C0.66 0 1.32 0 2 0 C5.10096154 5.45769231 5.10096154 5.45769231 4.58984375 8.203125 C4.39519531 8.79609375 4.20054688 9.3890625 4 10 C3.32845067 8.71086513 2.66291141 7.41859796 2 6.125 C1.62875 5.40570312 1.2575 4.68640625 0.875 3.9453125 C0 2 0 2 0 0 Z " fill="#E98314" transform="translate(66,23)"/>
<path d="M0 0 C2.31 0.33 4.62 0.66 7 1 C7.66 2.65 8.32 4.3 9 6 C5.92222122 4.97407374 5.15549526 4.24530756 3 2 C2.01 1.34 1.02 0.68 0 0 Z " fill="#E16122" transform="translate(15,70)"/>
<path d="M0 0 C0.33 1.65 0.66 3.3 1 5 C-0.32 5 -1.64 5 -3 5 C-3 4.34 -3 3.68 -3 3 C-3.66 3 -4.32 3 -5 3 C-5 2.34 -5 1.68 -5 1 C-2 0 -2 0 0 0 Z " fill="#ED9B0D" transform="translate(53,30)"/>
<path d="M0 0 C1.98 0.66 3.96 1.32 6 2 C5.67 2.66 5.34 3.32 5 4 C2.03 3.505 2.03 3.505 -1 3 C-0.67 2.01 -0.34 1.02 0 0 Z " fill="#EFA60E" transform="translate(31,64)"/>
</svg>
