<?xml version="1.0" encoding="UTF-8"?>
<svg version="1.1" xmlns="http://www.w3.org/2000/svg" width="200" height="100">
<path d="M0 0 C1.27875 -0.061875 2.5575 -0.12375 3.875 -0.1875 C4.95394531 -0.23970703 4.95394531 -0.23970703 6.0546875 -0.29296875 C6.69664063 -0.19628906 7.33859375 -0.09960938 8 0 C8.66 0.99 9.32 1.98 10 3 C11.33076989 3.34342449 12.66431979 3.67619874 14 4 C15.8125 5.3125 15.8125 5.3125 17 7 C16.33084037 11.05017673 14.46443042 14.7242474 12.83984375 18.46484375 C11.94317922 21.17151947 11.73651871 23.16877382 12 26 C12.495 26.66 12.99 27.32 13.5 28 C15 30 15 30 15.4375 32.5 C14.84889759 35.86344234 13.69964247 36.95702732 11 39 C8.25 39.75 8.25 39.75 6 40 C5.67 41.65 5.34 43.3 5 45 C2.37493198 45.02690844 -0.24986173 45.04679404 -2.875 45.0625 C-3.62136719 45.07087891 -4.36773437 45.07925781 -5.13671875 45.08789062 C-10.7734375 45.11328125 -10.7734375 45.11328125 -13 44 C-13 42.68 -13 41.36 -13 40 C-8.545 39.505 -8.545 39.505 -4 39 C-4.99 38.34 -5.98 37.68 -7 37 C-7.875 34.75 -7.875 34.75 -8 32 C-7 30 -6 28 -5 26 C-4.33128003 20.09297363 -5.96518954 15.44021865 -8 10 C-8.33 9.01 -8.66 8.02 -9 7 C-8.67 6.34 -8.34 5.68 -8 5 C-7.34 5 -6.68 5 -6 5 C-6 4.34 -6 3.68 -6 3 C-5.01 2.67 -4.02 2.34 -3 2 C-2.34 2.33 -1.68 2.66 -1 3 C-0.67 2.01 -0.34 1.02 0 0 Z M8 21 C9 24 9 24 9 24 Z M3 25 C4 27 4 27 4 27 Z " fill="#E29C36" transform="translate(59,27)"/>
<path d="M0 0 C9.24 0 18.48 0 28 0 C28 6.6 28 13.2 28 20 C19.09 20 10.18 20 1 20 C0.09761253 17.29283758 -0.11851302 15.76223232 -0.09765625 12.98828125 C-0.09515869 12.30548096 -0.09266113 11.62268066 -0.09008789 10.91918945 C-0.07643188 9.62887817 -0.07643188 9.62887817 -0.0625 8.3125 C-0.041875 5.569375 -0.02125 2.82625 0 0 Z " fill="#F15725" transform="translate(80,32)"/>
<path d="M0 0 C5.66666667 0 11.33333333 0 17 0 C17.33 0.99 17.66 1.98 18 3 C18.33 2.01 18.66 1.02 19 0 C20.98 0 22.96 0 25 0 C25 4.29 25 8.58 25 13 C20.38 13 15.76 13 11 13 C10.67 11.02 10.34 9.04 10 7 C9.34 7.66 8.68 8.32 8 9 C6.68 9 5.36 9 4 9 C4 10.32 4 11.64 4 13 C2.68 13 1.36 13 0 13 C0 8.71 0 4.42 0 0 Z " fill="#919192" transform="translate(81,57)"/>
<path d="M0 0 C8.91 0 17.82 0 27 0 C27 2.64 27 5.28 27 8 C18.09 8 9.18 8 0 8 C-1 5 -1 5 0 0 Z " fill="#086A3A" transform="translate(81,44)"/>
<path d="M0 0 C8.91 0 17.82 0 27 0 C27 1.98 27 3.96 27 6 C18.09 6 9.18 6 0 6 C0 4.02 0 2.04 0 0 Z " fill="#CAA6AE" transform="translate(81,38)"/>
<path d="M0 0 C1.32 0 2.64 0 4 0 C4.33 2.64 4.66 5.28 5 8 C5.99 5.36 6.98 2.72 8 0 C10.3125 0 10.3125 0 13 1 C15.29999927 4.92617063 16 8.47408842 16 13 C13.33333333 12.33333333 10.66666667 11.66666667 8 11 C8 11.66 8 12.32 8 13 C5.36 13 2.72 13 0 13 C0 8.71 0 4.42 0 0 Z " fill="#929292" transform="translate(137,57)"/>
<path d="M0 0 C1.32 0 2.64 0 4 0 C4.66 0.99 5.32 1.98 6 3 C6.33 2.01 6.66 1.02 7 0 C8.32 0 9.64 0 11 0 C11 4.29 11 8.58 11 13 C9.35 12.67 7.7 12.34 6 12 C5.67 11.34 5.34 10.68 5 10 C4.67 10.99 4.34 11.98 4 13 C2.68 13 1.36 13 0 13 C0 8.71 0 4.42 0 0 Z " fill="#929292" transform="translate(112,57)"/>
<path d="M0 0 C8.34228909 -0.48361096 8.34228909 -0.48361096 11.125 1.5625 C12.36557904 5.01839875 11.84932967 7.47201523 11 11 C9 13 9 13 6.8359375 13.1953125 C4.55729167 13.13020833 2.27864583 13.06510417 0 13 C0 8.71 0 4.42 0 0 Z M4 4 C4 5.98 4 7.96 4 10 C5.32 9.67 6.64 9.34 8 9 C8 7.35 8 5.7 8 4 C6.68 4 5.36 4 4 4 Z " fill="#929292" transform="translate(124,57)"/>
<path d="M0 0 C0 1.65 0 3.3 0 5 C-3.96 5 -7.92 5 -12 5 C-12.33 3.35 -12.66 1.7 -13 0 C-11.39679026 -0.19551338 -9.79237014 -0.38111983 -8.1875 -0.5625 C-7.29417969 -0.66691406 -6.40085937 -0.77132812 -5.48046875 -0.87890625 C-3 -1 -3 -1 0 0 Z " fill="#E29C35" transform="translate(79,67)"/>
<path d="M0 0 C1.32 0 2.64 0 4 0 C4 4.29 4 8.58 4 13 C2.68 13 1.36 13 0 13 C0 8.71 0 4.42 0 0 Z " fill="#929292" transform="translate(107,57)"/>
<path d="M0 0 C3.63 0 7.26 0 11 0 C11 1.65 11 3.3 11 5 C7.37 5 3.74 5 0 5 C0 3.35 0 1.7 0 0 Z " fill="#FEFEFE" transform="translate(97,39)"/>
<path d="M0 0 C3.63 0 7.26 0 11 0 C11 1.65 11 3.3 11 5 C7.37 5 3.74 5 0 5 C0 3.35 0 1.7 0 0 Z " fill="#FEFEFE" transform="translate(81,39)"/>
</svg>
