<?xml version="1.0" encoding="UTF-8"?>
<svg version="1.1" xmlns="http://www.w3.org/2000/svg" width="200" height="100">
<path d="M0 0 C0.70382813 -0.02900391 1.40765625 -0.05800781 2.1328125 -0.08789062 C7.30937106 -0.15043269 10.1214408 0.95500995 14.25 4.3125 C19.28508374 9.57645119 21.29470024 13.90556493 21.5625 21.125 C21.30701768 31.16395231 16.98952595 39.27842723 10.17578125 46.515625 C2.20079519 54.03131867 -4.20600081 56.62916845 -15.0625 56.75 C-15.85197021 56.7603125 -16.64144043 56.770625 -17.45483398 56.78125 C-20.6986196 56.73130826 -23.23949633 56.51511851 -26.26953125 55.3125 C-28.64130746 52.10841182 -28.24680051 48.69248436 -28.125 44.875 C-28.12371094 44.11123047 -28.12242188 43.34746094 -28.12109375 42.56054688 C-28.00963142 35.44553506 -28.00963142 35.44553506 -25.75 32.3125 C-25.09 31.9825 -24.43 31.6525 -23.75 31.3125 C-24.41 30.6525 -25.07 29.9925 -25.75 29.3125 C-25.75 28.3225 -25.75 27.3325 -25.75 26.3125 C-25.09 26.3125 -24.43 26.3125 -23.75 26.3125 C-23.6675 25.590625 -23.585 24.86875 -23.5 24.125 C-22.26005595 19.47520983 -19.94732678 17.0413076 -15.875 14.5625 C-9.93095934 12.18488374 -5.93526352 11.98430858 0.05859375 14.14453125 C3.68444815 16.07702762 5.92707478 18.9875286 8.25 22.3125 C7.93936785 18.89554635 7.63121598 16.80263483 5.5 14.0625 C0.36813777 10.0710516 -4.44696983 9.76985502 -10.75 10.3125 C-13.48511806 10.83778757 -16.07059107 11.53303558 -18.75 12.3125 C-18.20550236 8.51777027 -16.71207612 7.04218732 -13.8125 4.625 C-13.10222656 4.02300781 -12.39195313 3.42101562 -11.66015625 2.80078125 C-7.93437683 -0.10212664 -4.55952472 0.06128393 0 0 Z M-22.75 24.3125 C-22.13125 24.621875 -21.5125 24.93125 -20.875 25.25 C-19.5 25.9375 -18.125 26.625 -16.75 27.3125 C-17.75 30.3125 -17.75 30.3125 -19.75 32.3125 C-18.76 32.3125 -17.77 32.3125 -16.75 32.3125 C-17.03875 33.14652344 -17.3275 33.98054688 -17.625 34.83984375 C-19.85889103 41.61132594 -21.23317823 47.18562105 -20.75 54.3125 C-15.01763402 54.77108928 -12.19703453 53.96895061 -7.75 50.3125 C-2.95744003 45.24607946 -0.61889133 40.08371845 -0.25 33.1875 C-0.39067439 29.63276649 -0.70815211 28.38085155 -2.625 25.25 C-9.0952551 21.23844184 -15.81429625 21.74930514 -22.75 24.3125 Z " fill="#E3612A" transform="translate(67.75,20.6875)"/>
<path d="M0 0 C3.7529818 3.84451794 3.74441741 7.05483263 3.875 12.3125 C3.75375533 22.29093654 -0.45220402 28.76361171 -7.4375 35.625 C-12.43877522 40.5042929 -17.55351447 40.06573547 -24.1953125 40.05859375 C-29.23884432 39.38409733 -29.23884432 39.38409733 -31.4375 36.625 C-31.78957073 33.66820258 -31.90640057 31.13054149 -31.8125 28.1875 C-31.81121094 27.42373047 -31.80992188 26.65996094 -31.80859375 25.87304688 C-31.69713142 18.75803506 -31.69713142 18.75803506 -29.4375 15.625 C-28.7775 15.295 -28.1175 14.965 -27.4375 14.625 C-28.0975 13.965 -28.7575 13.305 -29.4375 12.625 C-29.4375 11.635 -29.4375 10.645 -29.4375 9.625 C-28.7775 9.625 -28.1175 9.625 -27.4375 9.625 C-27.355 8.903125 -27.2725 8.18125 -27.1875 7.4375 C-25.93964603 2.7580476 -23.6220183 0.33067048 -19.5 -2.125 C-12.44038106 -5.00647712 -6.16405953 -4.80085406 0 0 Z M-26.4375 7.625 C-25.81875 7.934375 -25.2 8.24375 -24.5625 8.5625 C-23.1875 9.25 -21.8125 9.9375 -20.4375 10.625 C-21.4375 13.625 -21.4375 13.625 -23.4375 15.625 C-22.4475 15.625 -21.4575 15.625 -20.4375 15.625 C-20.72625 16.45902344 -21.015 17.29304688 -21.3125 18.15234375 C-23.54639103 24.92382594 -24.92067823 30.49812105 -24.4375 37.625 C-18.70513402 38.08358928 -15.88453453 37.28145061 -11.4375 33.625 C-6.64494003 28.55857946 -4.30639133 23.39621845 -3.9375 16.5 C-4.07817439 12.94526649 -4.39565211 11.69335155 -6.3125 8.5625 C-12.7827551 4.55094184 -19.50179625 5.06180514 -26.4375 7.625 Z " fill="#129744" transform="translate(71.4375,37.375)"/>
<path d="M0 0 C2.875 -0.125 2.875 -0.125 6 0 C6.66 0.66 7.32 1.32 8 2 C10.10820797 1.6814823 10.10820797 1.6814823 12 1 C12 1.99 12 2.98 12 4 C15.465 3.505 15.465 3.505 19 3 C19 2.34 19 1.68 19 1 C21.3431213 1.25561323 23.67843403 1.59270772 26 2 C26.33 2.66 26.66 3.32 27 4 C29.35171131 3.40138258 31.6859378 2.73075648 34 2 C34.33 1.34 34.66 0.68 35 0 C35.99 0 36.98 0 38 0 C37.69078116 1.45903258 37.37751201 2.91720722 37.0625 4.375 C36.88847656 5.18710937 36.71445313 5.99921875 36.53515625 6.8359375 C36 9 36 9 35 11 C36.32 11 37.64 11 39 11 C40.485 5.555 40.485 5.555 42 0 C43.32 0 44.64 0 46 0 C46.495 1.485 46.495 1.485 47 3 C48.32 3 49.64 3 51 3 C51.495 3.99 51.495 3.99 52 5 C53.65 4.34 55.3 3.68 57 3 C57 2.01 57 1.02 57 0 C59.97 0.495 59.97 0.495 63 1 C63 2.32 63 3.64 63 5 C63.66 4.34 64.32 3.68 65 3 C67.625 2.875 67.625 2.875 70 3 C69.125 8.75 69.125 8.75 68 11 C68.66 11 69.32 11 70 11 C70 11.66 70 12.32 70 13 C69.33680756 13.01030746 68.67361511 13.02061493 67.99032593 13.03123474 C61.07955518 13.13952633 54.16890886 13.25410553 47.25830078 13.37231445 C44.6802023 13.41559072 42.1020765 13.45727091 39.52392578 13.49731445 C35.81534601 13.55519402 32.10690279 13.61883769 28.3984375 13.68359375 C27.24822113 13.70030624 26.09800476 13.71701874 24.91293335 13.73423767 C23.83226593 13.75418289 22.75159851 13.77412811 21.63818359 13.79467773 C20.2192128 13.81799416 20.2192128 13.81799416 18.77157593 13.84178162 C15.90649146 13.94154427 15.90649146 13.94154427 12.77261353 14.63783264 C11.85765106 14.75734787 10.9426886 14.8768631 10 15 C9.34 14.34 8.68 13.68 8 13 C5.10116917 12.75660449 5.10116917 12.75660449 1.875 12.875 C0.23144531 12.90207031 0.23144531 12.90207031 -1.4453125 12.9296875 C-2.28835937 12.95289063 -3.13140625 12.97609375 -4 13 C-3.40895235 8.15340923 -2.02055843 4.39251833 0 0 Z M2 3 C1.67 4.65 1.34 6.3 1 8 C1.99 7.67 2.98 7.34 4 7 C4 5.68 4 4.36 4 3 C3.34 3 2.68 3 2 3 Z M44 4 C45 6 45 6 45 6 Z M20 6 C21 8 21 8 21 8 Z M24 6 C24.33 6.66 24.66 7.32 25 8 C25.33 7.34 25.66 6.68 26 6 C25.34 6 24.68 6 24 6 Z M10 7 C11 9 11 9 11 9 Z M28 7 C29 9 29 9 29 9 Z M32 7 C33 9 33 9 33 9 Z M43 7 C44 9 44 9 44 9 Z M54 7 C55 9 55 9 55 9 Z M19 9 C19 9.66 19 10.32 19 11 C19.66 10.67 20.32 10.34 21 10 C20.34 9.67 19.68 9.34 19 9 Z M46 9 C47 11 47 11 47 11 Z M50 9 C51 11 51 11 51 11 Z M57 9 C58 11 58 11 58 11 Z " fill="#454948" transform="translate(96,41)"/>
<path d="M0 0 C0 6.72710258 -0.66800502 12.62588039 -3 19 C-3.66 19 -4.32 19 -5 19 C-5.33 21.97 -5.66 24.94 -6 28 C-6.99 27.67 -7.98 27.34 -9 27 C-9.33 26.34 -9.66 25.68 -10 25 C-10.33 25 -10.66 25 -11 25 C-11.05411124 22.58303128 -11.09372278 20.16728213 -11.125 17.75 C-11.14175781 17.06808594 -11.15851562 16.38617188 -11.17578125 15.68359375 C-11.21185049 11.9684625 -11.18812735 9.09092116 -9 6 C-8.34 5.67 -7.68 5.34 -7 5 C-7.66 4.34 -8.32 3.68 -9 3 C-9 2.01 -9 1.02 -9 0 C-5.93109813 -1.53445094 -3.29905734 -0.54984289 0 0 Z " fill="#6C9DC3" transform="translate(51,47)"/>
<path d="M0 0 C0.639375 0.144375 1.27875 0.28875 1.9375 0.4375 C8.64372015 1.66925472 15.18922095 2.11543693 22 2 C26.66666667 2 31.33333333 2 36 2 C36 2.99 36 3.98 36 5 C35.34 5 34.68 5 34 5 C34 5.99 34 6.98 34 8 C27.07 8 20.14 8 13 8 C13 8.66 13 9.32 13 10 C12.34 10 11.68 10 11 10 C11 9.34 11 8.68 11 8 C7.37 8 3.74 8 0 8 C-0.92538169 4.29847322 -1.08174162 3.36541838 0 0 Z " fill="#454948" transform="translate(130,55)"/>
<path d="M0 0 C0.721875 0.144375 1.44375 0.28875 2.1875 0.4375 C3.5796875 0.7159375 3.5796875 0.7159375 5 1 C5.75667969 1.17273437 6.51335937 1.34546875 7.29296875 1.5234375 C10.2779715 2.04893582 13.09495952 2.16851478 16.125 2.1875 C17.67574219 2.20876953 17.67574219 2.20876953 19.2578125 2.23046875 C22.21720034 2.20408145 22.21720034 2.20408145 25 0 C28.1875 -0.125 28.1875 -0.125 31 0 C31 0.66 31 1.32 31 2 C32.32 2.66 33.64 3.32 35 4 C34.67 5.32 34.34 6.64 34 8 C31.36 8 28.72 8 26 8 C26 6.35 26 4.7 26 3 C25.34 3 24.68 3 24 3 C24 3.66 24 4.32 24 5 C23.34 5 22.68 5 22 5 C22 5.99 22 6.98 22 8 C19.20807795 8.05380578 16.4171859 8.09357669 13.625 8.125 C12.8309375 8.14175781 12.036875 8.15851562 11.21875 8.17578125 C9.14507985 8.19335473 7.07116759 8.10335168 5 8 C4.34 7.34 3.68 6.68 3 6 C2.67 6.66 2.34 7.32 2 8 C1.34 8 0.68 8 0 8 C0 5.36 0 2.72 0 0 Z " fill="#454948" transform="translate(93,55)"/>
<path d="M0 0 C2.625 0.375 2.625 0.375 5 1 C4.79503906 1.71285156 4.59007812 2.42570312 4.37890625 3.16015625 C2.89379353 8.43976749 1.60587654 13.54711116 1 19 C0.01 18.67 -0.98 18.34 -2 18 C-2.33 17.34 -2.66 16.68 -3 16 C-3.33 16 -3.66 16 -4 16 C-4.05410687 14.22950311 -4.09284119 12.45853151 -4.125 10.6875 C-4.14820313 9.70136719 -4.17140625 8.71523437 -4.1953125 7.69921875 C-3.93559103 4.10986802 -2.49894486 2.49894486 0 0 Z " fill="#04589C" transform="translate(44,56)"/>
<path d="M0 0 C1.0251746 3.13871948 1.00856679 4.96607283 -0.125 8.0625 C-0.46917969 9.06990234 -0.46917969 9.06990234 -0.8203125 10.09765625 C-2.49412706 12.7968208 -4.11203821 13.69382641 -7 15 C-10.41015625 15.3984375 -10.41015625 15.3984375 -14.0625 15.375 C-15.27035156 15.38273437 -16.47820313 15.39046875 -17.72265625 15.3984375 C-21.15120125 14.98161796 -22.52493596 14.33310276 -25 12 C-24.67 11.01 -24.34 10.02 -24 9 C-22.66666667 10.33333333 -21.33333333 11.66666667 -20 13 C-20.04125 11.88625 -20.0825 10.7725 -20.125 9.625 C-20 6 -20 6 -18 4 C-18 6.97 -18 9.94 -18 13 C-11.40771896 11.90128649 -7.64603544 10.86727522 -3 6 C-1.13076797 2.85011127 -1.13076797 2.85011127 0 0 Z " fill="#36A25E" transform="translate(65,62)"/>
<path d="M0 0 C1.32 0 2.64 0 4 0 C4.33 0.99 4.66 1.98 5 3 C8.50294871 4.71567661 8.50294871 4.71567661 12 6 C9.20525028 6.93158324 6.97616347 7.25463887 4.0625 7.5 C0.93497549 7.76416497 -1.97387182 8.15745851 -5 9 C-4.42558597 5.12270528 -2.70745361 2.78480942 0 0 Z " fill="#269E51" transform="translate(49,37)"/>
<path d="M0 0 C3.51147764 3.51147764 3.87762764 7.95109402 4.4375 12.75 C4.33884142 18.31872894 1.49746082 23.1477904 -1 28 C-1.33 27.01 -1.66 26.02 -2 25 C-1.67 24.34 -1.34 23.68 -1 23 C-0.92883618 20.62597499 -0.91590915 18.24999323 -0.9375 15.875 C-0.94652344 14.59367187 -0.95554687 13.31234375 -0.96484375 11.9921875 C-0.97644531 11.00476562 -0.98804687 10.01734375 -1 9 C-0.34 9.33 0.32 9.66 1 10 C0.7525 8.63875 0.7525 8.63875 0.5 7.25 C0 4 0 4 0 0 Z " fill="#C2A67E" transform="translate(75,33)"/>
<path d="M0 0 C0.66 0.33 1.32 0.66 2 1 C-2.76064606 4.82088216 -7.16029967 8.0908672 -13 10 C-15.203125 9.56640625 -15.203125 9.56640625 -17 9 C-15.70982586 8.01886757 -14.41780894 7.04015801 -13.125 6.0625 C-12.40570313 5.51722656 -11.68640625 4.97195312 -10.9453125 4.41015625 C-9 3 -9 3 -7 2 C-7 2.66 -7 3.32 -7 4 C-4.08482708 2.92598892 -2.22189824 2.22189824 0 0 Z " fill="#DE7E50" transform="translate(75,67)"/>
<path d="M0 0 C-0.54855348 4.571279 -1.41744803 8.67435795 -3 13 C-3.33 13 -3.66 13 -4 13 C-3.67 10.36 -3.34 7.72 -3 5 C-4.89179203 4.3185177 -4.89179203 4.3185177 -7 4 C-7.66 4.66 -8.32 5.32 -9 6 C-8.67 4.35 -8.34 2.7 -8 1 C-5.23735711 0.40267181 -2.83967231 0 0 0 Z " fill="#4580B3" transform="translate(51,53)"/>
<path d="M0 0 C0.66 0 1.32 0 2 0 C2 1.32 2 2.64 2 4 C3.0209375 3.505 3.0209375 3.505 4.0625 3 C7.50840238 1.82692685 10.38397422 1.85819507 14 2 C14.33 2.66 14.66 3.32 15 4 C11.68929162 5.00109515 8.69915231 5.10356134 5.25 5.0625 C4.26515625 5.05347656 3.2803125 5.04445313 2.265625 5.03515625 C1.51796875 5.02355469 0.7703125 5.01195312 0 5 C0 3.35 0 1.7 0 0 Z " fill="#3C423F" transform="translate(142,49)"/>
<path d="M0 0 C0 3 0 3 -1.5 4.6875 C-1.995 5.120625 -2.49 5.55375 -3 6 C-4.32 5.34 -5.64 4.68 -7 4 C-7 3.01 -7 2.02 -7 1 C-4.53721199 -0.231394 -2.7204945 -0.07159196 0 0 Z " fill="#417FB3" transform="translate(49,46)"/>
<path d="M0 0 C1.62374052 4.83830789 -0.13115814 8.45329382 -2 13 C-3.6875 16.0625 -3.6875 16.0625 -5 18 C-6.25460729 15.49078542 -5.86211613 14.61169775 -5.1875 11.9375 C-4.93033203 10.86822266 -4.93033203 10.86822266 -4.66796875 9.77734375 C-4 8 -4 8 -2 7 C-1.26924352 4.6859378 -0.59861742 2.35171131 0 0 Z " fill="#EDA382" transform="translate(88,43)"/>
<path d="M0 0 C0.33 0 0.66 0 1 0 C1.33 3.3 1.66 6.6 2 10 C0.02 10 -1.96 10 -4 10 C-4.66 8.68 -5.32 7.36 -6 6 C-5.01 6 -4.02 6 -3 6 C-3 6.66 -3 7.32 -3 8 C-2.34 8.33 -1.68 8.66 -1 9 C-1.020625 7.88625 -1.04125 6.7725 -1.0625 5.625 C-1 2 -1 2 0 0 Z " fill="#558CBA" transform="translate(46,66)"/>
<path d="M0 0 C1.32 0 2.64 0 4 0 C3.82374165 2.37948772 3.30280227 3.70225849 1.59765625 5.37890625 C0.09350908 6.62115486 -1.45129851 7.81376056 -3 9 C-2.01 6.03 -1.02 3.06 0 0 Z " fill="#079339" transform="translate(66,64)"/>
<path d="M0 0 C0.66 0.66 1.32 1.32 2 2 C4.58354218 2.16687448 4.58354218 2.16687448 7 2 C4.04816899 4.95183101 1.04488053 5.08663988 -3 6 C-2.42655063 3.13275314 -2.1385485 2.1385485 0 0 Z " fill="#E8936D" transform="translate(52,27)"/>
<path d="M0 0 C2.97 0 5.94 0 9 0 C6.04816899 2.95183101 3.04488053 3.08663988 -1 4 C-0.67 2.68 -0.34 1.36 0 0 Z " fill="#58B679" transform="translate(45,42)"/>
</svg>
