<?xml version="1.0" encoding="UTF-8"?>
<svg version="1.1" xmlns="http://www.w3.org/2000/svg" width="200" height="100">
<path d="M0 0 C0.99 0.66 1.98 1.32 3 2 C3.99 1.34 4.98 0.68 6 0 C8.3400417 0.28241883 10.67504723 0.61250787 13 1 C13.33 0.67 13.66 0.34 14 0 C16.875 -0.375 16.875 -0.375 20 0 C22.40143218 2.98108822 23.06261812 5.25047247 24 9 C24.99 6.03 25.98 3.06 27 0 C29.31 0 31.62 0 34 0 C33.37740353 4.7954752 32.02670357 9.08933469 30.25 13.5625 C30.01023438 14.20896484 29.77046875 14.85542969 29.5234375 15.52148438 C27.76170229 19.9848496 25.63673315 22.88779567 22 26 C18.11216352 27.40394095 14.07104928 27.01138863 9.98828125 26.83984375 C7.76519753 26.80276895 7.76519753 26.80276895 6 29 C5.64486621 30.90821061 5.64486621 30.90821061 5.6875 33 C5.67074219 33.70125 5.65398437 34.4025 5.63671875 35.125 C5.75660156 35.74375 5.87648438 36.3625 6 37 C8.91765 38.9451 10.62537285 39.45276317 14 40 C14 38.68 14 37.36 14 36 C12.68 35.67 11.36 35.34 10 35 C9.957279 33.33388095 9.95936168 31.66617115 10 30 C11 29 11 29 13.03125 28.8671875 C13.8459375 28.86976562 14.660625 28.87234375 15.5 28.875 C16.3146875 28.87242188 17.129375 28.86984375 17.96875 28.8671875 C20 29 20 29 21 30 C21.07271741 32.35313555 21.08370868 34.70833668 21.0625 37.0625 C21.05347656 38.35285156 21.04445312 39.64320312 21.03515625 40.97265625 C21.02355469 41.97167969 21.01195312 42.97070312 21 44 C15.7985172 46.24589067 11.28037885 46.97825584 5.8125 45.34765625 C1.92242407 43.6815024 0.249564 42.39325237 -2.0625 38.75 C-3.1362128 34.45514878 -3.68722042 31.16743443 -2 27 C2.49075927 21.70731943 6.85579821 20.00011074 13.6875 19.4375 C14.68136719 19.35371094 15.67523438 19.26992188 16.69921875 19.18359375 C17.45847656 19.12300781 18.21773437 19.06242187 19 19 C18.42732628 14.89583836 17.5731146 11.9327865 16 8 C15.67 11.63 15.34 15.26 15 19 C13.00045254 19.04254356 10.99958364 19.04080783 9 19 C8 18 8 18 7.90234375 15.27734375 C7.91394531 14.17519531 7.92554687 13.07304687 7.9375 11.9375 C7.94652344 10.83277344 7.95554687 9.72804688 7.96484375 8.58984375 C7.97644531 7.73519531 7.98804687 6.88054688 8 6 C7.01 6.33 6.02 6.66 5 7 C4.67 10.96 4.34 14.92 4 19 C1.69 19 -0.62 19 -3 19 C-3 14.71 -3 10.42 -3 6 C-3.99 6.33 -4.98 6.66 -6 7 C-6.33 10.96 -6.66 14.92 -7 19 C-9.31 19 -11.62 19 -14 19 C-14 13.06 -14 7.12 -14 1 C-11.69 1 -9.38 1 -7 1 C-4.47454232 -0.26272884 -2.80127043 -0.20497101 0 0 Z " fill="#08B68F" transform="translate(75,18)"/>
<path d="M0 0 C3.5 1.5 3.5 1.5 6 3 C6 2.01 6 1.02 6 0 C8.64 0 11.28 0 14 0 C16.22656164 4.74354436 17.46148032 8.72250715 18 14 C18.66 14 19.32 14 20 14 C20.103125 13.175 20.20625 12.35 20.3125 11.5 C21.11646056 7.40710988 22.46352158 3.87459775 24 0 C26.31 0 28.62 0 31 0 C30.41631082 6.05885808 28.61261739 11.27358046 26.4375 16.9375 C26.10814453 17.81212891 25.77878906 18.68675781 25.43945312 19.58789062 C24.63262162 21.72774809 23.81936819 23.86491864 23 26 C20.36 26 17.72 26 15 26 C12.525 20.06 12.525 20.06 10 14 C9.46375 15.2375 8.9275 16.475 8.375 17.75 C6.27560739 21.89006096 4.31284306 24.00945705 0 26 C-4.43242848 26.85102627 -7.27901752 26.36729296 -11.3125 24.3125 C-15.4669881 20.73770791 -16.82641779 18.56223989 -17.4375 13.0625 C-17.25994127 8.7849487 -15.81013746 6.26583542 -13 3 C-9.0302012 -0.30816566 -5.01481895 -0.76248709 0 0 Z M-9 8 C-10.16593591 12.37225967 -10.0733767 14.9684342 -8 19 C-6.87465895 20.35618499 -6.87465895 20.35618499 -3.9375 20.0625 C-2.968125 20.041875 -1.99875 20.02125 -1 20 C1.39775683 16.21892192 2.13229952 14.67252256 1.25 10.1875 C0.31745104 7.18407051 0.31745104 7.18407051 -1 6 C-5.49885769 5.53277305 -5.49885769 5.53277305 -9 8 Z M8 7 C9 9 9 9 9 9 Z " fill="#C13793" transform="translate(114,38)"/>
<path d="M0 0 C0.99 0.66 1.98 1.32 3 2 C3.99 1.34 4.98 0.68 6 0 C9.5625 0.1875 9.5625 0.1875 13 1 C15.45391569 4.68087353 15.22802759 7.44355588 15.125 11.6875 C15.11597656 12.38939453 15.10695313 13.09128906 15.09765625 13.81445312 C15.07413704 15.54311525 15.03826713 17.27160145 15 19 C13.00045254 19.04254356 10.99958364 19.04080783 9 19 C8 18 8 18 7.90234375 15.27734375 C7.91394531 14.17519531 7.92554687 13.07304687 7.9375 11.9375 C7.94652344 10.83277344 7.95554687 9.72804688 7.96484375 8.58984375 C7.97644531 7.73519531 7.98804687 6.88054688 8 6 C7.01 6.33 6.02 6.66 5 7 C4.67 10.96 4.34 14.92 4 19 C1.69 19 -0.62 19 -3 19 C-3 14.71 -3 10.42 -3 6 C-3.99 6.33 -4.98 6.66 -6 7 C-6.33 10.96 -6.66 14.92 -7 19 C-9.31 19 -11.62 19 -14 19 C-14 13.06 -14 7.12 -14 1 C-11.69 1 -9.38 1 -7 1 C-4.47454232 -0.26272884 -2.80127043 -0.20497101 0 0 Z " fill="#82C82F" transform="translate(75,18)"/>
<path d="M0 0 C2.64 0 5.28 0 8 0 C10.22656164 4.74354436 11.46148032 8.72250715 12 14 C12.66 14 13.32 14 14 14 C14.103125 13.175 14.20625 12.35 14.3125 11.5 C15.11646056 7.40710988 16.46352158 3.87459775 18 0 C20.31 0 22.62 0 25 0 C24.41631082 6.05885808 22.61261739 11.27358046 20.4375 16.9375 C20.10814453 17.81212891 19.77878906 18.68675781 19.43945312 19.58789062 C18.63262162 21.72774809 17.81936819 23.86491864 17 26 C14.36 26 11.72 26 9 26 C0 5.19672131 0 5.19672131 0 0 Z " fill="#EF580D" transform="translate(120,38)"/>
<path d="M0 0 C12.54 0 25.08 0 38 0 C38 3.78706732 37.5745952 7.26513121 37 11 C36.01 11 35.02 11 34 11 C32.0549 8.08235 31.54723683 6.37462715 31 3 C31 5.64 31 8.28 31 11 C30.01 11 29.02 11 28 11 C27.67 10.34 27.34 9.68 27 9 C26.01 9 25.02 9 24 9 C24 9.66 24 10.32 24 11 C21.23723823 10.47731534 18.6739124 9.89130413 16 9 C16 9.66 16 10.32 16 11 C14.0625 10.625 14.0625 10.625 12 10 C11.67 9.34 11.34 8.68 11 8 C10.67 8.99 10.34 9.98 10 11 C9.01 11 8.02 11 7 11 C7 10.01 7 9.02 7 8 C6.01 9.485 6.01 9.485 5 11 C3.0625 10.3125 3.0625 10.3125 1 9 C0.25 6.375 0.25 6.375 0 4 C0.99 3.67 1.98 3.34 3 3 C1.68 3 0.36 3 -1 3 C-0.67 2.01 -0.34 1.02 0 0 Z M6 3 C7 5 7 5 7 5 Z M10 3 C10.33 3.66 10.66 4.32 11 5 C11.66 5 12.32 5 13 5 C13 4.34 13 3.68 13 3 C12.01 3 11.02 3 10 3 Z M16 3 C16.33 3.66 16.66 4.32 17 5 C17.33 4.34 17.66 3.68 18 3 C17.34 3 16.68 3 16 3 Z M24 5 C25 7 25 7 25 7 Z " fill="#3E7FCD" transform="translate(86,71)"/>
<path d="M0 0 C2.8125 -0.3125 2.8125 -0.3125 6 0 C8.40143218 2.98108822 9.06261812 5.25047247 10 9 C10.99 6.03 11.98 3.06 13 0 C15.31 0 17.62 0 20 0 C19.37740353 4.7954752 18.02670357 9.08933469 16.25 13.5625 C15.89035156 14.53219727 15.89035156 14.53219727 15.5234375 15.52148438 C13.76135885 19.98571971 11.64736087 22.89684853 8 26 C5.375 26.9375 5.375 26.9375 3 27 C2.01 26.34 1.02 25.68 0 25 C0.804375 24.7525 1.60875 24.505 2.4375 24.25 C5.07313091 23.29194205 5.07313091 23.29194205 5.80859375 21.3203125 C6.08471093 17.97309604 4.92302205 15.7015274 3.625 12.625 C1.84614635 8.38158933 0.59381172 4.57096928 0 0 Z " fill="#207ECC" transform="translate(89,18)"/>
<path d="M0 0 C3.34373475 0.55728913 6.03312999 1.35173889 9 3 C9.66 2.01 10.32 1.02 11 0 C13.375 0.1875 13.375 0.1875 16 1 C18.84176266 5.262644 17.81138016 9.21285703 17 14 C16.01 14 15.02 14 14 14 C13.67 12.68 13.34 11.36 13 10 C13 11.32 13 12.64 13 14 C11.0625 13.625 11.0625 13.625 9 13 C8.67 12.34 8.34 11.68 8 11 C7.67 11.99 7.34 12.98 7 14 C6.01 14 5.02 14 4 14 C3.67 13.01 3.34 12.02 3 11 C1.68 11 0.36 11 -1 11 C-0.67 9.35 -0.34 7.7 0 6 C-0.66 6 -1.32 6 -2 6 C-1.34 4.02 -0.68 2.04 0 0 Z M3 6 C4 8 4 8 4 8 Z M7 6 C7.33 6.66 7.66 7.32 8 8 C8.66 8 9.32 8 10 8 C10 7.34 10 6.68 10 6 C9.01 6 8.02 6 7 6 Z " fill="#3E7FCD" transform="translate(65,68)"/>
<path d="M0 0 C0.33 0 0.66 0 1 0 C1 26.73 1 53.46 1 81 C0.67 81 0.34 81 0 81 C0 54.27 0 27.54 0 0 Z " fill="#E6E6E6" transform="translate(55,10)"/>
</svg>
